<svg aria-hidden="true" style="position: absolute; width: 0; height: 0; overflow: hidden;" version="1.1" xmlns="http://www.w3.org/2000/svg" xmlns:xlink="http://www.w3.org/1999/xlink">
<defs>
<symbol id="icon-icon-back" viewBox="0 0 32 32">
<path fill="none" stroke="#f9e000" style="stroke: var(--color1, #f9e000)" stroke-linejoin="round" stroke-linecap="round" stroke-miterlimit="4" stroke-width="1.6" d="M22.4 16h-12.8M9.6 16l4.8-4.8M9.6 16l4.8 4.8"></path>
</symbol>
<symbol id="icon-burger-menu" viewBox="0 0 32 32">
<path fill="none" stroke="#f9e000" style="stroke: var(--color1, #f9e000)" stroke-linejoin="round" stroke-linecap="round" stroke-miterlimit="4" stroke-width="2.4" d="M4.8 8.8h22.4M4.8 16h22.4M4.8 23.2h22.4"></path>
</symbol>
<symbol id="icon-icon-close" viewBox="0 0 32 32">
<path fill="#f9e000" style="fill: var(--color1, #f9e000)" d="M18.018 17.827l8.296 7.375c0.277 0.237 0.647 0.368 1.032 0.366s0.752-0.14 1.024-0.382c0.272-0.242 0.426-0.569 0.43-0.91-0-0.364-0.159-0.692-0.411-0.917l-0.001-0.001-8.296-7.374 8.296-7.374c0.267-0.246 0.416-0.576 0.412-0.918-0.008-0.364-0.172-0.688-0.428-0.909l-0.002-0.001c-0.272-0.242-0.64-0.378-1.024-0.382s-0.755 0.128-1.032 0.366l-8.296 7.375-8.297-7.375c-0.268-0.219-0.615-0.352-0.992-0.352-0.012 0-0.025 0-0.037 0l0.002-0c-0.381 0.006-0.744 0.142-1.014 0.382s-0.423 0.563-0.429 0.902c-0.006 0.338 0.136 0.666 0.398 0.912l8.294 7.375-8.296 7.374c-0.136 0.116-0.246 0.257-0.325 0.416l-0.003 0.008c-0.074 0.15-0.118 0.327-0.118 0.514 0 0.179 0.040 0.349 0.111 0.501l-0.003-0.007c0.074 0.16 0.182 0.306 0.32 0.428s0.302 0.219 0.482 0.285c0.165 0.062 0.356 0.098 0.555 0.098 0.208 0 0.407-0.039 0.59-0.11l-0.011 0.004c0.178-0.069 0.341-0.168 0.476-0.292l8.296-7.375z"></path>
</symbol>
</defs>
</svg>
