<svg width="320" height="103" viewBox="0 0 320 103" fill="none" xmlns="http://www.w3.org/2000/svg">
<g clip-path="url(#clip0_602_159)">
<path d="M67.1385 66C83.6839 66 97.0965 52.5685 97.0965 36C97.0965 19.4315 83.6839 6 67.1385 6C50.5931 6 37.1804 19.4315 37.1804 36C37.1804 52.5685 50.5931 66 67.1385 66Z" fill="url(#paint0_radial_602_159)"/>
<path d="M17.7077 96C34.2531 96 47.6658 82.5685 47.6658 66C47.6658 49.4315 34.2531 36 17.7077 36C1.16228 36 -12.2504 49.4315 -12.2504 66C-12.2504 82.5685 1.16228 96 17.7077 96Z" fill="url(#paint1_radial_602_159)"/>
<path d="M82.8509 1.00015C82.8509 17.5687 69.4384 31 52.8931 31C36.3475 31 22.9348 17.5687 22.9348 1.00015C22.9348 -15.5684 36.3475 -29 52.8931 -29C69.4384 -29 82.8509 -15.5684 82.8509 1.00015Z" fill="url(#paint2_radial_602_159)"/>
<path d="M92.8369 28C109.382 28 122.795 14.5685 122.795 -2.00001C122.795 -18.5685 109.382 -32 92.8369 -32C76.2915 -32 62.8788 -18.5685 62.8788 -2.00001C62.8788 14.5685 76.2915 28 92.8369 28Z" fill="url(#paint3_radial_602_159)"/>
<path d="M116.569 58C133.115 58 146.527 44.5685 146.527 28C146.527 11.4315 133.115 -2 116.569 -2C100.024 -2 86.6113 11.4315 86.6113 28C86.6113 44.5685 100.024 58 116.569 58Z" fill="url(#paint4_radial_602_159)"/>
<path d="M138.773 28C155.318 28 168.731 14.5685 168.731 -2.00001C168.731 -18.5685 155.318 -32 138.773 -32C122.227 -32 108.815 -18.5685 108.815 -2.00001C108.815 14.5685 122.227 28 138.773 28Z" fill="url(#paint5_radial_602_159)"/>
<path d="M168.731 58C185.276 58 198.689 44.5685 198.689 28C198.689 11.4315 185.276 -2 168.731 -2C152.185 -2 138.773 11.4315 138.773 28C138.773 44.5685 152.185 58 168.731 58Z" fill="url(#paint6_radial_602_159)"/>
<path d="M208.675 61C225.22 61 238.633 47.5685 238.633 31C238.633 14.4315 225.22 1 208.675 1C192.129 1 178.717 14.4315 178.717 31C178.717 47.5685 192.129 61 208.675 61Z" fill="url(#paint7_radial_602_159)"/>
<path d="M17.4581 61C34.0034 61 47.4161 47.5685 47.4161 31C47.4161 14.4315 34.0034 1 17.4581 1C0.912678 1 -12.5 14.4315 -12.5 31C-12.5 47.5685 0.912678 61 17.4581 61Z" fill="url(#paint8_radial_602_159)"/>
<path d="M48.2899 -10C48.2899 6.56846 34.8774 20 18.3321 20C1.78652 20 -11.6262 6.56876 -11.6262 -10C-11.6262 -26.5688 1.78652 -40 18.3321 -40C34.8774 -40 48.2899 -26.5685 48.2899 -10Z" fill="url(#paint9_radial_602_159)"/>
<path d="M295.038 24C278.493 24 265.08 10.5688 265.08 -5.9997C265.08 -22.5685 278.493 -36 295.038 -36C311.584 -36 324.996 -22.5685 324.996 -5.9997C324.996 10.5688 311.584 24 295.038 24Z" fill="url(#paint10_radial_602_159)"/>
<path d="M228.647 36C228.647 52.5685 242.059 66 258.605 66C275.15 66 288.563 52.5685 288.563 36C288.563 19.4315 275.15 6 258.605 6C242.059 6 228.647 19.4315 228.647 36Z" fill="url(#paint11_radial_602_159)"/>
<path d="M218.661 -2.00001C218.661 14.5685 232.073 28 248.619 28C265.164 28 278.577 14.5685 278.577 -2C278.577 -18.5685 265.164 -32 248.619 -32C232.073 -32 218.661 -18.5685 218.661 -2.00001Z" fill="url(#paint12_radial_602_159)"/>
<path d="M263.988 73C263.988 89.5685 277.401 103 293.946 103C310.491 103 323.904 89.5685 323.904 73C323.904 56.4315 310.491 43 293.946 43C277.401 43 263.988 56.4315 263.988 73Z" fill="url(#paint13_radial_602_159)"/>
<path d="M303.542 66C286.996 66 273.584 52.5688 273.584 36.0003C273.584 19.4315 286.996 6 303.542 6C320.087 6 333.5 19.4315 333.5 36.0003C333.5 52.5688 320.087 66 303.542 66Z" fill="url(#paint14_radial_602_159)"/>
<path d="M166.733 -2C166.733 14.5685 180.146 28 196.691 28C213.237 28 226.65 14.5685 226.65 -2C226.65 -18.5685 213.237 -32 196.691 -32C180.146 -32 166.733 -18.5685 166.733 -2Z" fill="url(#paint15_radial_602_159)"/>
</g>
<defs>
<radialGradient id="paint0_radial_602_159" cx="0" cy="0" r="1" gradientUnits="userSpaceOnUse" gradientTransform="translate(67.1383 36) scale(29.9579 29.9998)">
<stop stop-color="white"/>
<stop offset="1" stop-color="#36A662"/>
</radialGradient>
<radialGradient id="paint1_radial_602_159" cx="0" cy="0" r="1" gradientUnits="userSpaceOnUse" gradientTransform="translate(17.7078 65.9998) scale(29.958 29.9999)">
<stop stop-color="white"/>
<stop offset="1" stop-color="#DF001A"/>
</radialGradient>
<radialGradient id="paint2_radial_602_159" cx="0" cy="0" r="1" gradientUnits="userSpaceOnUse" gradientTransform="translate(52.893 1.00012) scale(29.958 30.0001)">
<stop stop-color="white"/>
<stop offset="1" stop-color="#37A6D9"/>
</radialGradient>
<radialGradient id="paint3_radial_602_159" cx="0" cy="0" r="1" gradientUnits="userSpaceOnUse" gradientTransform="translate(92.8368 -1.99991) scale(29.958 29.9999)">
<stop stop-color="white"/>
<stop offset="1" stop-color="#803586"/>
</radialGradient>
<radialGradient id="paint4_radial_602_159" cx="0" cy="0" r="1" gradientUnits="userSpaceOnUse" gradientTransform="translate(116.569 27.9998) scale(29.958 29.9999)">
<stop stop-color="white"/>
<stop offset="1" stop-color="#DF001A"/>
</radialGradient>
<radialGradient id="paint5_radial_602_159" cx="0" cy="0" r="1" gradientUnits="userSpaceOnUse" gradientTransform="translate(138.773 -1.99988) scale(29.958 30.0001)">
<stop stop-color="white"/>
<stop offset="1" stop-color="#37A6D9"/>
</radialGradient>
<radialGradient id="paint6_radial_602_159" cx="0" cy="0" r="1" gradientUnits="userSpaceOnUse" gradientTransform="translate(168.73 28) scale(29.9579 29.9998)">
<stop stop-color="white"/>
<stop offset="1" stop-color="#36A662"/>
</radialGradient>
<radialGradient id="paint7_radial_602_159" cx="0" cy="0" r="1" gradientUnits="userSpaceOnUse" gradientTransform="translate(208.675 30.9998) scale(29.958 29.9999)">
<stop stop-color="white"/>
<stop offset="1" stop-color="#DF001A"/>
</radialGradient>
<radialGradient id="paint8_radial_602_159" cx="0" cy="0" r="1" gradientUnits="userSpaceOnUse" gradientTransform="translate(17.4582 31.0001) scale(29.958 29.9999)">
<stop stop-color="white"/>
<stop offset="1" stop-color="#E4511E"/>
</radialGradient>
<radialGradient id="paint9_radial_602_159" cx="0" cy="0" r="1" gradientUnits="userSpaceOnUse" gradientTransform="translate(18.3318 -10.0001) scale(29.9582 30.0002)">
<stop stop-color="white"/>
<stop offset="1" stop-color="#F5B034"/>
</radialGradient>
<radialGradient id="paint10_radial_602_159" cx="0" cy="0" r="1" gradientUnits="userSpaceOnUse" gradientTransform="translate(295.038 -5.99982) rotate(90) scale(29.9999 29.9581)">
<stop stop-color="white"/>
<stop offset="1" stop-color="#37A6D9"/>
</radialGradient>
<radialGradient id="paint11_radial_602_159" cx="0" cy="0" r="1" gradientUnits="userSpaceOnUse" gradientTransform="translate(258.605 35.9998) rotate(90) scale(29.9998 29.9579)">
<stop stop-color="white"/>
<stop offset="1" stop-color="#36A662"/>
</radialGradient>
<radialGradient id="paint12_radial_602_159" cx="0" cy="0" r="1" gradientUnits="userSpaceOnUse" gradientTransform="translate(248.619 -1.99982) rotate(90) scale(29.9999 29.958)">
<stop stop-color="white"/>
<stop offset="1" stop-color="#E4511E"/>
</radialGradient>
<radialGradient id="paint13_radial_602_159" cx="0" cy="0" r="1" gradientUnits="userSpaceOnUse" gradientTransform="translate(293.946 73) rotate(90) scale(30.0002 29.9582)">
<stop stop-color="white"/>
<stop offset="1" stop-color="#F5B034"/>
</radialGradient>
<radialGradient id="paint14_radial_602_159" cx="0" cy="0" r="1" gradientUnits="userSpaceOnUse" gradientTransform="translate(303.542 35.9999) rotate(90) scale(29.9999 29.958)">
<stop stop-color="white"/>
<stop offset="1" stop-color="#803586"/>
</radialGradient>
<radialGradient id="paint15_radial_602_159" cx="0" cy="0" r="1" gradientUnits="userSpaceOnUse" gradientTransform="translate(196.692 -2) rotate(90) scale(30.0002 29.9582)">
<stop stop-color="white"/>
<stop offset="1" stop-color="#F5B034"/>
</radialGradient>
<clipPath id="clip0_602_159">
<rect width="320" height="103" fill="white"/>
</clipPath>
</defs>
</svg>
