<svg width="1440" height="288" viewBox="0 0 1440 288" fill="none" xmlns="http://www.w3.org/2000/svg">
<path d="M85 191C118.137 191 145 164.137 145 131C145 97.8629 118.137 71 85 71C51.8629 71 25 97.8629 25 131C25 164.137 51.8629 191 85 191Z" fill="url(#paint0_radial_86_282)"/>
<path d="M882 100C915.137 100 942 73.1371 942 40C942 6.86291 915.137 -20 882 -20C848.863 -20 822 6.86291 822 40C822 73.1371 848.863 100 882 100Z" fill="url(#paint1_radial_86_282)"/>
<path d="M313 90C346.137 90 373 63.1371 373 30C373 -3.13709 346.137 -30 313 -30C279.863 -30 253 -3.13709 253 30C253 63.1371 279.863 90 313 90Z" fill="url(#paint2_radial_86_282)"/>
<path d="M17 288C50.1371 288 77 261.137 77 228C77 194.863 50.1371 168 17 168C-16.1371 168 -43 194.863 -43 228C-43 261.137 -16.1371 288 17 288Z" fill="url(#paint3_radial_86_282)"/>
<path d="M610 93C643.137 93 670 66.1371 670 33C670 -0.137081 643.137 -27 610 -27C576.863 -27 550 -0.137081 550 33C550 66.1371 576.863 93 610 93Z" fill="url(#paint4_radial_86_282)"/>
<path d="M173 31.0003C173 64.1374 146.138 91 113.001 91C79.8631 91 53 64.1374 53 31.0003C53 -2.1368 79.8631 -29 113.001 -29C146.138 -29 173 -2.1368 173 31.0003Z" fill="url(#paint5_radial_86_282)"/>
<path d="M1129 31.0003C1129 64.1374 1102.14 91 1069 91C1035.86 91 1009 64.1374 1009 31.0003C1009 -2.1368 1035.86 -29 1069 -29C1102.14 -29 1129 -2.1368 1129 31.0003Z" fill="url(#paint6_radial_86_282)"/>
<path d="M570 31.0003C570 64.1374 543.138 91 510.001 91C476.863 91 450 64.1374 450 31.0003C450 -2.1368 476.863 -29 510.001 -29C543.138 -29 570 -2.1368 570 31.0003Z" fill="url(#paint7_radial_86_282)"/>
<path d="M208 85C241.137 85 268 58.1371 268 25C268 -8.13709 241.137 -35 208 -35C174.863 -35 148 -8.13709 148 25C148 58.1371 174.863 85 208 85Z" fill="url(#paint8_radial_86_282)"/>
<path d="M974 90C1007.14 90 1034 63.1371 1034 30C1034 -3.13709 1007.14 -30 974 -30C940.863 -30 914 -3.13709 914 30C914 63.1371 940.863 90 974 90Z" fill="url(#paint9_radial_86_282)"/>
<path d="M17 203C50.1371 203 77 176.137 77 143C77 109.863 50.1371 83 17 83C-16.1371 83 -43 109.863 -43 143C-43 176.137 -16.1371 203 17 203Z" fill="url(#paint10_radial_86_282)"/>
<path d="M1146 93C1179.14 93 1206 66.1371 1206 33C1206 -0.137085 1179.14 -27 1146 -27C1112.86 -27 1086 -0.137085 1086 33C1086 66.1371 1112.86 93 1146 93Z" fill="url(#paint11_radial_86_282)"/>
<path d="M701 100C734.137 100 761 73.1371 761 40C761 6.86292 734.137 -20 701 -20C667.863 -20 641 6.86292 641 40C641 73.1371 667.863 100 701 100Z" fill="url(#paint12_radial_86_282)"/>
<path d="M84 33C84 66.1369 57.1375 93 24.0006 93C-9.13692 93 -36 66.1375 -36 33C-36 -0.137531 -9.13692 -27 24.0006 -27C57.1375 -27 84 -0.136936 84 33Z" fill="url(#paint13_radial_86_282)"/>
<path d="M852 40C852 73.1369 825.138 100 792.001 100C758.863 100 732 73.1375 732 40C732 6.86247 758.863 -20 792.001 -20C825.138 -20 852 6.86306 852 40Z" fill="url(#paint14_radial_86_282)"/>
<path d="M470 33C470 66.1369 443.138 93 410.001 93C376.863 93 350 66.1375 350 33C350 -0.137531 376.863 -27 410.001 -27C443.138 -27 470 -0.136936 470 33Z" fill="url(#paint15_radial_86_282)"/>
<path d="M1275 109C1275 142.137 1301.86 169 1335 169C1368.14 169 1395 142.137 1395 109C1395 75.8629 1368.14 49 1335 49C1301.86 49 1275 75.8629 1275 109Z" fill="url(#paint16_radial_86_282)"/>
<path d="M1155 30C1155 63.1371 1181.86 90 1215 90C1248.14 90 1275 63.1371 1275 30C1275 -3.13709 1248.14 -30 1215 -30C1181.86 -30 1155 -3.13709 1155 30Z" fill="url(#paint17_radial_86_282)"/>
<path d="M1410 190C1376.86 190 1350 163.138 1350 130.001C1350 96.8631 1376.86 70 1410 70C1443.14 70 1470 96.8631 1470 130.001C1470 163.138 1443.14 190 1410 190Z" fill="url(#paint18_radial_86_282)"/>
<path d="M1356 217C1356 250.137 1382.86 277 1416 277C1449.14 277 1476 250.137 1476 217C1476 183.863 1449.14 157 1416 157C1382.86 157 1356 183.863 1356 217Z" fill="url(#paint19_radial_86_282)"/>
<path d="M1240 23C1240 56.1371 1266.86 83 1300 83C1333.14 83 1360 56.1371 1360 23C1360 -10.1371 1333.14 -37 1300 -37C1266.86 -37 1240 -10.1371 1240 23Z" fill="url(#paint20_radial_86_282)"/>
<path d="M1410 90C1376.86 90 1350 63.1375 1350 30.0006C1350 -3.13692 1376.86 -30 1410 -30C1443.14 -30 1470 -3.13692 1470 30.0006C1470 63.1375 1443.14 90 1410 90Z" fill="url(#paint21_radial_86_282)"/>
<defs>
<radialGradient id="paint0_radial_86_282" cx="0" cy="0" r="1" gradientUnits="userSpaceOnUse" gradientTransform="translate(84.9996 131) scale(59.9996)">
<stop stop-color="white"/>
<stop offset="1" stop-color="#36A662"/>
</radialGradient>
<radialGradient id="paint1_radial_86_282" cx="0" cy="0" r="1" gradientUnits="userSpaceOnUse" gradientTransform="translate(882 39.9999) scale(59.9996)">
<stop stop-color="white"/>
<stop offset="1" stop-color="#36A662"/>
</radialGradient>
<radialGradient id="paint2_radial_86_282" cx="0" cy="0" r="1" gradientUnits="userSpaceOnUse" gradientTransform="translate(313 29.9999) scale(59.9996)">
<stop stop-color="white"/>
<stop offset="1" stop-color="#36A662"/>
</radialGradient>
<radialGradient id="paint3_radial_86_282" cx="0" cy="0" r="1" gradientUnits="userSpaceOnUse" gradientTransform="translate(17 228) scale(60.0004)">
<stop stop-color="white"/>
<stop offset="1" stop-color="#F5B034"/>
</radialGradient>
<radialGradient id="paint4_radial_86_282" cx="0" cy="0" r="1" gradientUnits="userSpaceOnUse" gradientTransform="translate(610 32.9999) scale(60.0004)">
<stop stop-color="white"/>
<stop offset="1" stop-color="#F5B034"/>
</radialGradient>
<radialGradient id="paint5_radial_86_282" cx="0" cy="0" r="1" gradientUnits="userSpaceOnUse" gradientTransform="translate(113 31.0002) scale(59.9998 60.0001)">
<stop stop-color="white"/>
<stop offset="1" stop-color="#37A6D9"/>
</radialGradient>
<radialGradient id="paint6_radial_86_282" cx="0" cy="0" r="1" gradientUnits="userSpaceOnUse" gradientTransform="translate(1069 31.0002) scale(59.9998 60.0001)">
<stop stop-color="white"/>
<stop offset="1" stop-color="#37A6D9"/>
</radialGradient>
<radialGradient id="paint7_radial_86_282" cx="0" cy="0" r="1" gradientUnits="userSpaceOnUse" gradientTransform="translate(510 31.0002) scale(59.9998 60.0001)">
<stop stop-color="white"/>
<stop offset="1" stop-color="#37A6D9"/>
</radialGradient>
<radialGradient id="paint8_radial_86_282" cx="0" cy="0" r="1" gradientUnits="userSpaceOnUse" gradientTransform="translate(208 25.0002) scale(59.9999)">
<stop stop-color="white"/>
<stop offset="1" stop-color="#803586"/>
</radialGradient>
<radialGradient id="paint9_radial_86_282" cx="0" cy="0" r="1" gradientUnits="userSpaceOnUse" gradientTransform="translate(974 30.0002) scale(59.9999)">
<stop stop-color="white"/>
<stop offset="1" stop-color="#803586"/>
</radialGradient>
<radialGradient id="paint10_radial_86_282" cx="0" cy="0" r="1" gradientUnits="userSpaceOnUse" gradientTransform="translate(17.0001 143) scale(59.9999)">
<stop stop-color="white"/>
<stop offset="1" stop-color="#DF001A"/>
</radialGradient>
<radialGradient id="paint11_radial_86_282" cx="0" cy="0" r="1" gradientUnits="userSpaceOnUse" gradientTransform="translate(1146 32.9996) scale(59.9999)">
<stop stop-color="white"/>
<stop offset="1" stop-color="#DF001A"/>
</radialGradient>
<radialGradient id="paint12_radial_86_282" cx="0" cy="0" r="1" gradientUnits="userSpaceOnUse" gradientTransform="translate(701 39.9996) scale(59.9999)">
<stop stop-color="white"/>
<stop offset="1" stop-color="#DF001A"/>
</radialGradient>
<radialGradient id="paint13_radial_86_282" cx="0" cy="0" r="1" gradientUnits="userSpaceOnUse" gradientTransform="translate(24.0004 33.0002) scale(59.9999)">
<stop stop-color="white"/>
<stop offset="1" stop-color="#E4511E"/>
</radialGradient>
<radialGradient id="paint14_radial_86_282" cx="0" cy="0" r="1" gradientUnits="userSpaceOnUse" gradientTransform="translate(792 40.0002) scale(59.9999)">
<stop stop-color="white"/>
<stop offset="1" stop-color="#E4511E"/>
</radialGradient>
<radialGradient id="paint15_radial_86_282" cx="0" cy="0" r="1" gradientUnits="userSpaceOnUse" gradientTransform="translate(410 33.0002) scale(59.9999)">
<stop stop-color="white"/>
<stop offset="1" stop-color="#E4511E"/>
</radialGradient>
<radialGradient id="paint16_radial_86_282" cx="0" cy="0" r="1" gradientUnits="userSpaceOnUse" gradientTransform="translate(1335 109) rotate(90) scale(59.9996)">
<stop stop-color="white"/>
<stop offset="1" stop-color="#36A662"/>
</radialGradient>
<radialGradient id="paint17_radial_86_282" cx="0" cy="0" r="1" gradientUnits="userSpaceOnUse" gradientTransform="translate(1215 30) rotate(90) scale(60.0004)">
<stop stop-color="white"/>
<stop offset="1" stop-color="#F5B034"/>
</radialGradient>
<radialGradient id="paint18_radial_86_282" cx="0" cy="0" r="1" gradientUnits="userSpaceOnUse" gradientTransform="translate(1410 130) rotate(90) scale(59.9998 60.0001)">
<stop stop-color="white"/>
<stop offset="1" stop-color="#37A6D9"/>
</radialGradient>
<radialGradient id="paint19_radial_86_282" cx="0" cy="0" r="1" gradientUnits="userSpaceOnUse" gradientTransform="translate(1416 217) rotate(90) scale(59.9999)">
<stop stop-color="white"/>
<stop offset="1" stop-color="#803586"/>
</radialGradient>
<radialGradient id="paint20_radial_86_282" cx="0" cy="0" r="1" gradientUnits="userSpaceOnUse" gradientTransform="translate(1300 23.0001) rotate(90) scale(59.9999)">
<stop stop-color="white"/>
<stop offset="1" stop-color="#DF001A"/>
</radialGradient>
<radialGradient id="paint21_radial_86_282" cx="0" cy="0" r="1" gradientUnits="userSpaceOnUse" gradientTransform="translate(1410 30.0004) rotate(90) scale(59.9999)">
<stop stop-color="white"/>
<stop offset="1" stop-color="#E4511E"/>
</radialGradient>
</defs>
</svg>
