<svg width="320" height="97" viewBox="0 0 320 97" fill="none" xmlns="http://www.w3.org/2000/svg">
<path d="M41 55.5215C52.0457 55.5215 61 46.5672 61 35.5215C61 24.4758 52.0457 15.5215 41 15.5215C29.9543 15.5215 21 24.4758 21 35.5215C21 46.5672 29.9543 55.5215 41 55.5215Z" fill="url(#paint0_radial_90_423)"/>
<path d="M11 96.9125C22.0457 96.9125 31 87.9582 31 76.9125C31 65.8668 22.0457 56.9125 11 56.9125C-0.0456953 56.9125 -9 65.8668 -9 76.9125C-9 87.9582 -0.0456953 96.9125 11 96.9125Z" fill="url(#paint1_radial_90_423)"/>
<path d="M61 6.54795C61 17.5936 52.0458 26.5479 41.0002 26.5479C29.9544 26.5479 21 17.5936 21 6.54795C21 -4.49775 29.9544 -13.4521 41.0002 -13.4521C52.0458 -13.4521 61 -4.49775 61 6.54795Z" fill="url(#paint2_radial_90_423)"/>
<path d="M75 26.5479C86.0457 26.5479 95 17.5935 95 6.54785C95 -4.49785 86.0457 -13.4521 75 -13.4521C63.9543 -13.4521 55 -4.49785 55 6.54785C55 17.5935 63.9543 26.5479 75 26.5479Z" fill="url(#paint3_radial_90_423)"/>
<path d="M107 26.5479C118.046 26.5479 127 17.5935 127 6.54785C127 -4.49785 118.046 -13.4521 107 -13.4521C95.9543 -13.4521 87 -4.49785 87 6.54785C87 17.5935 95.9543 26.5479 107 26.5479Z" fill="url(#paint4_radial_90_423)"/>
<path d="M140 26.5479C151.046 26.5479 160 17.5935 160 6.54785C160 -4.49785 151.046 -13.4521 140 -13.4521C128.954 -13.4521 120 -4.49785 120 6.54785C120 17.5935 128.954 26.5479 140 26.5479Z" fill="url(#paint5_radial_90_423)"/>
<path d="M173 26.5479C184.046 26.5479 193 17.5935 193 6.54785C193 -4.49785 184.046 -13.4521 173 -13.4521C161.954 -13.4521 153 -4.49785 153 6.54785C153 17.5935 161.954 26.5479 173 26.5479Z" fill="url(#paint6_radial_90_423)"/>
<path d="M210 26.5479C221.046 26.5479 230 17.5935 230 6.54785C230 -4.49785 221.046 -13.4521 210 -13.4521C198.954 -13.4521 190 -4.49785 190 6.54785C190 17.5935 198.954 26.5479 210 26.5479Z" fill="url(#paint7_radial_90_423)"/>
<path d="M11 62.7649C22.0457 62.7649 31 53.8106 31 42.7649C31 31.7192 22.0457 22.7649 11 22.7649C-0.0456972 22.7649 -9 31.7192 -9 42.7649C-9 53.8106 -0.0456972 62.7649 11 62.7649Z" fill="url(#paint8_radial_90_423)"/>
<path d="M31 11.7217C31 22.7673 22.0458 31.7217 11.0002 31.7217C-0.045639 31.7217 -9 22.7675 -9 11.7217C-9 0.675838 -0.045639 -8.27832 11.0002 -8.27832C22.0458 -8.27832 31 0.676036 31 11.7217Z" fill="url(#paint9_radial_90_423)"/>
<path d="M305 30.687C293.954 30.687 285 21.7329 285 10.6872C285 -0.358629 293.954 -9.31299 305 -9.31299C316.046 -9.31299 325 -0.358627 325 10.6872C325 21.7329 316.046 30.687 305 30.687Z" fill="url(#paint10_radial_90_423)"/>
<path d="M255 10.687C255 21.7327 263.954 30.687 275 30.687C286.046 30.687 295 21.7327 295 10.687C295 -0.358685 286.046 -9.31299 275 -9.31299C263.954 -9.31299 255 -0.358687 255 10.687Z" fill="url(#paint11_radial_90_423)"/>
<path d="M290 76.9125C290 87.9582 298.954 96.9125 310 96.9125C321.046 96.9125 330 87.9582 330 76.9125C330 65.8668 321.046 56.9125 310 56.9125C298.954 56.9125 290 65.8668 290 76.9125Z" fill="url(#paint12_radial_90_423)"/>
<path d="M310 61.7302C298.954 61.7302 290 52.7761 290 41.7304C290 30.6846 298.954 21.7302 310 21.7302C321.046 21.7302 330 30.6846 330 41.7304C330 52.7761 321.046 61.7302 310 61.7302Z" fill="url(#paint13_radial_90_423)"/>
<path d="M222 10.687C222 21.7327 230.954 30.687 242 30.687C253.046 30.687 262 21.7327 262 10.687C262 -0.358684 253.046 -9.31299 242 -9.31299C230.954 -9.31299 222 -0.358685 222 10.687Z" fill="url(#paint14_radial_90_423)"/>
<path d="M262 41.7302C262 52.7759 270.954 61.7302 282 61.7302C293.046 61.7302 302 52.7759 302 41.7302C302 30.6845 293.046 21.7302 282 21.7302C270.954 21.7302 262 30.6845 262 41.7302Z" fill="url(#paint15_radial_90_423)"/>
<defs>
<radialGradient id="paint0_radial_90_423" cx="0" cy="0" r="1" gradientUnits="userSpaceOnUse" gradientTransform="translate(40.9999 35.5215) scale(19.9999)">
<stop stop-color="white"/>
<stop offset="1" stop-color="#36A662"/>
</radialGradient>
<radialGradient id="paint1_radial_90_423" cx="0" cy="0" r="1" gradientUnits="userSpaceOnUse" gradientTransform="translate(11 76.9124) scale(20)">
<stop stop-color="white"/>
<stop offset="1" stop-color="#DF001A"/>
</radialGradient>
<radialGradient id="paint2_radial_90_423" cx="0" cy="0" r="1" gradientUnits="userSpaceOnUse" gradientTransform="translate(41.0001 6.54793) scale(19.9999 20)">
<stop stop-color="white"/>
<stop offset="1" stop-color="#37A6D9"/>
</radialGradient>
<radialGradient id="paint3_radial_90_423" cx="0" cy="0" r="1" gradientUnits="userSpaceOnUse" gradientTransform="translate(75 6.54791) scale(20)">
<stop stop-color="white"/>
<stop offset="1" stop-color="#803586"/>
</radialGradient>
<radialGradient id="paint4_radial_90_423" cx="0" cy="0" r="1" gradientUnits="userSpaceOnUse" gradientTransform="translate(107 6.54773) scale(20)">
<stop stop-color="white"/>
<stop offset="1" stop-color="#DF001A"/>
</radialGradient>
<radialGradient id="paint5_radial_90_423" cx="0" cy="0" r="1" gradientUnits="userSpaceOnUse" gradientTransform="translate(140 6.54793) scale(19.9999 20)">
<stop stop-color="white"/>
<stop offset="1" stop-color="#37A6D9"/>
</radialGradient>
<radialGradient id="paint6_radial_90_423" cx="0" cy="0" r="1" gradientUnits="userSpaceOnUse" gradientTransform="translate(173 6.54783) scale(19.9999)">
<stop stop-color="white"/>
<stop offset="1" stop-color="#36A662"/>
</radialGradient>
<radialGradient id="paint7_radial_90_423" cx="0" cy="0" r="1" gradientUnits="userSpaceOnUse" gradientTransform="translate(210 6.54773) scale(20)">
<stop stop-color="white"/>
<stop offset="1" stop-color="#DF001A"/>
</radialGradient>
<radialGradient id="paint8_radial_90_423" cx="0" cy="0" r="1" gradientUnits="userSpaceOnUse" gradientTransform="translate(11.0001 42.765) scale(20)">
<stop stop-color="white"/>
<stop offset="1" stop-color="#E4511E"/>
</radialGradient>
<radialGradient id="paint9_radial_90_423" cx="0" cy="0" r="1" gradientUnits="userSpaceOnUse" gradientTransform="translate(11 11.7216) scale(20.0001)">
<stop stop-color="white"/>
<stop offset="1" stop-color="#F5B034"/>
</radialGradient>
<radialGradient id="paint10_radial_90_423" cx="0" cy="0" r="1" gradientUnits="userSpaceOnUse" gradientTransform="translate(305 10.6871) rotate(90) scale(19.9999 20)">
<stop stop-color="white"/>
<stop offset="1" stop-color="#37A6D9"/>
</radialGradient>
<radialGradient id="paint11_radial_90_423" cx="0" cy="0" r="1" gradientUnits="userSpaceOnUse" gradientTransform="translate(275 10.6871) rotate(90) scale(20)">
<stop stop-color="white"/>
<stop offset="1" stop-color="#E4511E"/>
</radialGradient>
<radialGradient id="paint12_radial_90_423" cx="0" cy="0" r="1" gradientUnits="userSpaceOnUse" gradientTransform="translate(310 76.9125) rotate(90) scale(20.0001)">
<stop stop-color="white"/>
<stop offset="1" stop-color="#F5B034"/>
</radialGradient>
<radialGradient id="paint13_radial_90_423" cx="0" cy="0" r="1" gradientUnits="userSpaceOnUse" gradientTransform="translate(310 41.7302) rotate(90) scale(20)">
<stop stop-color="white"/>
<stop offset="1" stop-color="#803586"/>
</radialGradient>
<radialGradient id="paint14_radial_90_423" cx="0" cy="0" r="1" gradientUnits="userSpaceOnUse" gradientTransform="translate(242 10.687) rotate(90) scale(20.0001)">
<stop stop-color="white"/>
<stop offset="1" stop-color="#F5B034"/>
</radialGradient>
<radialGradient id="paint15_radial_90_423" cx="0" cy="0" r="1" gradientUnits="userSpaceOnUse" gradientTransform="translate(282 41.7301) rotate(90) scale(19.9999)">
<stop stop-color="white"/>
<stop offset="1" stop-color="#36A662"/>
</radialGradient>
</defs>
</svg>
