<svg width="320" height="106" viewBox="0 0 320 106" fill="none" xmlns="http://www.w3.org/2000/svg">
<g filter="url(#filter0_d_90_334)">
<path d="M41 55.8173C52.0457 55.8173 61 46.863 61 35.8173C61 24.7716 52.0457 15.8173 41 15.8173C29.9543 15.8173 21 24.7716 21 35.8173C21 46.863 29.9543 55.8173 41 55.8173Z" fill="url(#paint0_radial_90_334)"/>
<path d="M11 97.9965C22.0457 97.9965 31 89.0422 31 77.9965C31 66.9508 22.0457 57.9965 11 57.9965C-0.0456953 57.9965 -9 66.9508 -9 77.9965C-9 89.0422 -0.0456953 97.9965 11 97.9965Z" fill="url(#paint1_radial_90_334)"/>
<path d="M61 6.29185C61 17.3375 52.0458 26.2917 41.0002 26.2917C29.9544 26.2917 21 17.3375 21 6.29185C21 -4.75385 29.9544 -13.7083 41.0002 -13.7083C52.0458 -13.7083 61 -4.75385 61 6.29185Z" fill="url(#paint2_radial_90_334)"/>
<path d="M75 26.2917C86.0457 26.2917 95 17.3374 95 6.29175C95 -4.75395 86.0457 -13.7083 75 -13.7083C63.9543 -13.7083 55 -4.75395 55 6.29175C55 17.3374 63.9543 26.2917 75 26.2917Z" fill="url(#paint3_radial_90_334)"/>
<path d="M107 26.2917C118.046 26.2917 127 17.3374 127 6.29175C127 -4.75395 118.046 -13.7083 107 -13.7083C95.9543 -13.7083 87 -4.75395 87 6.29175C87 17.3374 95.9543 26.2917 107 26.2917Z" fill="url(#paint4_radial_90_334)"/>
<path d="M140 26.2917C151.046 26.2917 160 17.3374 160 6.29175C160 -4.75395 151.046 -13.7083 140 -13.7083C128.954 -13.7083 120 -4.75395 120 6.29175C120 17.3374 128.954 26.2917 140 26.2917Z" fill="url(#paint5_radial_90_334)"/>
<path d="M173 26.2917C184.046 26.2917 193 17.3374 193 6.29175C193 -4.75395 184.046 -13.7083 173 -13.7083C161.954 -13.7083 153 -4.75395 153 6.29175C153 17.3374 161.954 26.2917 173 26.2917Z" fill="url(#paint6_radial_90_334)"/>
<path d="M210 26.2917C221.046 26.2917 230 17.3374 230 6.29175C230 -4.75395 221.046 -13.7083 210 -13.7083C198.954 -13.7083 190 -4.75395 190 6.29175C190 17.3374 198.954 26.2917 210 26.2917Z" fill="url(#paint7_radial_90_334)"/>
<path d="M11 63.1986C22.0457 63.1986 31 54.2443 31 43.1986C31 32.1529 22.0457 23.1986 11 23.1986C-0.0456972 23.1986 -9 32.1529 -9 43.1986C-9 54.2443 -0.0456972 63.1986 11 63.1986Z" fill="url(#paint8_radial_90_334)"/>
<path d="M31 11.5642C31 22.6098 22.0458 31.5642 11.0002 31.5642C-0.045639 31.5642 -9 22.61 -9 11.5642C-9 0.518367 -0.045639 -8.43579 11.0002 -8.43579C22.0458 -8.43579 31 0.518565 31 11.5642Z" fill="url(#paint9_radial_90_334)"/>
<path d="M305 30.5098C293.954 30.5098 285 21.5556 285 10.51C285 -0.535875 293.954 -9.49024 305 -9.49024C316.046 -9.49023 325 -0.535873 325 10.51C325 21.5556 316.046 30.5098 305 30.5098Z" fill="url(#paint10_radial_90_334)"/>
<path d="M255 10.5098C255 21.5555 263.954 30.5098 275 30.5098C286.046 30.5098 295 21.5555 295 10.5098C295 -0.535932 286.046 -9.49023 275 -9.49024C263.954 -9.49024 255 -0.535933 255 10.5098Z" fill="url(#paint11_radial_90_334)"/>
<path d="M290 77.9965C290 89.0422 298.954 97.9965 310 97.9965C321.046 97.9965 330 89.0422 330 77.9965C330 66.9508 321.046 57.9965 310 57.9965C298.954 57.9965 290 66.9508 290 77.9965Z" fill="url(#paint12_radial_90_334)"/>
<path d="M310 62.144C298.954 62.144 290 53.1899 290 42.1442C290 31.0984 298.954 22.144 310 22.144C321.046 22.144 330 31.0984 330 42.1442C330 53.1899 321.046 62.144 310 62.144Z" fill="url(#paint13_radial_90_334)"/>
<path d="M222 10.5098C222 21.5555 230.954 30.5098 242 30.5098C253.046 30.5098 262 21.5555 262 10.5098C262 -0.53593 253.046 -9.49023 242 -9.49024C230.954 -9.49024 222 -0.535932 222 10.5098Z" fill="url(#paint14_radial_90_334)"/>
<path d="M262 42.144C262 53.1897 270.954 62.144 282 62.144C293.046 62.144 302 53.1897 302 42.144C302 31.0983 293.046 22.144 282 22.144C270.954 22.144 262 31.0983 262 42.144Z" fill="url(#paint15_radial_90_334)"/>
</g>
<defs>
<filter id="filter0_d_90_334" x="-13" y="-13.7083" width="347" height="119.705" filterUnits="userSpaceOnUse" color-interpolation-filters="sRGB">
<feFlood flood-opacity="0" result="BackgroundImageFix"/>
<feColorMatrix in="SourceAlpha" type="matrix" values="0 0 0 0 0 0 0 0 0 0 0 0 0 0 0 0 0 0 127 0" result="hardAlpha"/>
<feOffset dy="4"/>
<feGaussianBlur stdDeviation="2"/>
<feComposite in2="hardAlpha" operator="out"/>
<feColorMatrix type="matrix" values="0 0 0 0 0 0 0 0 0 0 0 0 0 0 0 0 0 0 0.25 0"/>
<feBlend mode="normal" in2="BackgroundImageFix" result="effect1_dropShadow_90_334"/>
<feBlend mode="normal" in="SourceGraphic" in2="effect1_dropShadow_90_334" result="shape"/>
</filter>
<radialGradient id="paint0_radial_90_334" cx="0" cy="0" r="1" gradientUnits="userSpaceOnUse" gradientTransform="translate(40.9999 35.8172) scale(19.9999)">
<stop stop-color="white"/>
<stop offset="1" stop-color="#36A662"/>
</radialGradient>
<radialGradient id="paint1_radial_90_334" cx="0" cy="0" r="1" gradientUnits="userSpaceOnUse" gradientTransform="translate(11 77.9963) scale(20)">
<stop stop-color="white"/>
<stop offset="1" stop-color="#DF001A"/>
</radialGradient>
<radialGradient id="paint2_radial_90_334" cx="0" cy="0" r="1" gradientUnits="userSpaceOnUse" gradientTransform="translate(41.0001 6.29183) scale(19.9999 20)">
<stop stop-color="white"/>
<stop offset="1" stop-color="#37A6D9"/>
</radialGradient>
<radialGradient id="paint3_radial_90_334" cx="0" cy="0" r="1" gradientUnits="userSpaceOnUse" gradientTransform="translate(75 6.29181) scale(20)">
<stop stop-color="white"/>
<stop offset="1" stop-color="#803586"/>
</radialGradient>
<radialGradient id="paint4_radial_90_334" cx="0" cy="0" r="1" gradientUnits="userSpaceOnUse" gradientTransform="translate(107 6.29163) scale(20)">
<stop stop-color="white"/>
<stop offset="1" stop-color="#DF001A"/>
</radialGradient>
<radialGradient id="paint5_radial_90_334" cx="0" cy="0" r="1" gradientUnits="userSpaceOnUse" gradientTransform="translate(140 6.29183) scale(19.9999 20)">
<stop stop-color="white"/>
<stop offset="1" stop-color="#37A6D9"/>
</radialGradient>
<radialGradient id="paint6_radial_90_334" cx="0" cy="0" r="1" gradientUnits="userSpaceOnUse" gradientTransform="translate(173 6.29173) scale(19.9999)">
<stop stop-color="white"/>
<stop offset="1" stop-color="#36A662"/>
</radialGradient>
<radialGradient id="paint7_radial_90_334" cx="0" cy="0" r="1" gradientUnits="userSpaceOnUse" gradientTransform="translate(210 6.29163) scale(20)">
<stop stop-color="white"/>
<stop offset="1" stop-color="#DF001A"/>
</radialGradient>
<radialGradient id="paint8_radial_90_334" cx="0" cy="0" r="1" gradientUnits="userSpaceOnUse" gradientTransform="translate(11.0001 43.1987) scale(20)">
<stop stop-color="white"/>
<stop offset="1" stop-color="#E4511E"/>
</radialGradient>
<radialGradient id="paint9_radial_90_334" cx="0" cy="0" r="1" gradientUnits="userSpaceOnUse" gradientTransform="translate(11 11.5642) scale(20.0001)">
<stop stop-color="white"/>
<stop offset="1" stop-color="#F5B034"/>
</radialGradient>
<radialGradient id="paint10_radial_90_334" cx="0" cy="0" r="1" gradientUnits="userSpaceOnUse" gradientTransform="translate(305 10.5099) rotate(90) scale(19.9999 20)">
<stop stop-color="white"/>
<stop offset="1" stop-color="#37A6D9"/>
</radialGradient>
<radialGradient id="paint11_radial_90_334" cx="0" cy="0" r="1" gradientUnits="userSpaceOnUse" gradientTransform="translate(275 10.5099) rotate(90) scale(20)">
<stop stop-color="white"/>
<stop offset="1" stop-color="#E4511E"/>
</radialGradient>
<radialGradient id="paint12_radial_90_334" cx="0" cy="0" r="1" gradientUnits="userSpaceOnUse" gradientTransform="translate(310 77.9965) rotate(90) scale(20.0001)">
<stop stop-color="white"/>
<stop offset="1" stop-color="#F5B034"/>
</radialGradient>
<radialGradient id="paint13_radial_90_334" cx="0" cy="0" r="1" gradientUnits="userSpaceOnUse" gradientTransform="translate(310 42.144) rotate(90) scale(20)">
<stop stop-color="white"/>
<stop offset="1" stop-color="#803586"/>
</radialGradient>
<radialGradient id="paint14_radial_90_334" cx="0" cy="0" r="1" gradientUnits="userSpaceOnUse" gradientTransform="translate(242 10.5098) rotate(90) scale(20.0001)">
<stop stop-color="white"/>
<stop offset="1" stop-color="#F5B034"/>
</radialGradient>
<radialGradient id="paint15_radial_90_334" cx="0" cy="0" r="1" gradientUnits="userSpaceOnUse" gradientTransform="translate(282 42.1439) rotate(90) scale(19.9999)">
<stop stop-color="white"/>
<stop offset="1" stop-color="#36A662"/>
</radialGradient>
</defs>
</svg>
