<svg width="1440" height="320" viewBox="0 0 1440 320" fill="none" xmlns="http://www.w3.org/2000/svg">
<path d="M89 223C122.137 223 149 196.137 149 163C149 129.863 122.137 103 89 103C55.8629 103 29 129.863 29 163C29 196.137 55.8629 223 89 223Z" fill="url(#paint0_radial_86_481)"/>
<path d="M886 132C919.137 132 946 105.137 946 72C946 38.8629 919.137 12 886 12C852.863 12 826 38.8629 826 72C826 105.137 852.863 132 886 132Z" fill="url(#paint1_radial_86_481)"/>
<path d="M317 122C350.137 122 377 95.1371 377 62C377 28.8629 350.137 2 317 2C283.863 2 257 28.8629 257 62C257 95.1371 283.863 122 317 122Z" fill="url(#paint2_radial_86_481)"/>
<path d="M21 320C54.1371 320 81 293.137 81 260C81 226.863 54.1371 200 21 200C-12.1371 200 -39 226.863 -39 260C-39 293.137 -12.1371 320 21 320Z" fill="url(#paint3_radial_86_481)"/>
<path d="M614 125C647.137 125 674 98.1371 674 65C674 31.8629 647.137 5 614 5C580.863 5 554 31.8629 554 65C554 98.1371 580.863 125 614 125Z" fill="url(#paint4_radial_86_481)"/>
<path d="M177 63.0003C177 96.1374 150.138 123 117.001 123C83.8631 123 57 96.1374 57 63.0003C57 29.8632 83.8631 3 117.001 3C150.138 3 177 29.8632 177 63.0003Z" fill="url(#paint5_radial_86_481)"/>
<path d="M1133 63.0003C1133 96.1374 1106.14 123 1073 123C1039.86 123 1013 96.1374 1013 63.0003C1013 29.8632 1039.86 3 1073 3C1106.14 3 1133 29.8632 1133 63.0003Z" fill="url(#paint6_radial_86_481)"/>
<path d="M574 63.0003C574 96.1374 547.138 123 514.001 123C480.863 123 454 96.1374 454 63.0003C454 29.8632 480.863 3 514.001 3C547.138 3 574 29.8632 574 63.0003Z" fill="url(#paint7_radial_86_481)"/>
<path d="M212 117C245.137 117 272 90.1371 272 57C272 23.8629 245.137 -3 212 -3C178.863 -3 152 23.8629 152 57C152 90.1371 178.863 117 212 117Z" fill="url(#paint8_radial_86_481)"/>
<path d="M978 122C1011.14 122 1038 95.1371 1038 62C1038 28.8629 1011.14 2 978 2C944.863 2 918 28.8629 918 62C918 95.1371 944.863 122 978 122Z" fill="url(#paint9_radial_86_481)"/>
<path d="M21 235C54.1371 235 81 208.137 81 175C81 141.863 54.1371 115 21 115C-12.1371 115 -39 141.863 -39 175C-39 208.137 -12.1371 235 21 235Z" fill="url(#paint10_radial_86_481)"/>
<path d="M1150 125C1183.14 125 1210 98.1371 1210 65C1210 31.8629 1183.14 5 1150 5C1116.86 5 1090 31.8629 1090 65C1090 98.1371 1116.86 125 1150 125Z" fill="url(#paint11_radial_86_481)"/>
<path d="M705 132C738.137 132 765 105.137 765 72C765 38.8629 738.137 12 705 12C671.863 12 645 38.8629 645 72C645 105.137 671.863 132 705 132Z" fill="url(#paint12_radial_86_481)"/>
<path d="M88 65C88 98.1369 61.1375 125 28.0006 125C-5.13692 125 -32 98.1375 -32 65C-32 31.8625 -5.13692 5 28.0006 5C61.1375 5 88 31.8631 88 65Z" fill="url(#paint13_radial_86_481)"/>
<path d="M856 72C856 105.137 829.138 132 796.001 132C762.863 132 736 105.138 736 72C736 38.8625 762.863 12 796.001 12C829.138 12 856 38.8631 856 72Z" fill="url(#paint14_radial_86_481)"/>
<path d="M474 65C474 98.1369 447.138 125 414.001 125C380.863 125 354 98.1375 354 65C354 31.8625 380.863 5 414.001 5C447.138 5 474 31.8631 474 65Z" fill="url(#paint15_radial_86_481)"/>
<path d="M1279 141C1279 174.137 1305.86 201 1339 201C1372.14 201 1399 174.137 1399 141C1399 107.863 1372.14 81 1339 81C1305.86 81 1279 107.863 1279 141Z" fill="url(#paint16_radial_86_481)"/>
<path d="M1159 62C1159 95.1371 1185.86 122 1219 122C1252.14 122 1279 95.1371 1279 62C1279 28.8629 1252.14 2 1219 2C1185.86 2 1159 28.8629 1159 62Z" fill="url(#paint17_radial_86_481)"/>
<path d="M1414 222C1380.86 222 1354 195.138 1354 162.001C1354 128.863 1380.86 102 1414 102C1447.14 102 1474 128.863 1474 162.001C1474 195.138 1447.14 222 1414 222Z" fill="url(#paint18_radial_86_481)"/>
<path d="M1360 249C1360 282.137 1386.86 309 1420 309C1453.14 309 1480 282.137 1480 249C1480 215.863 1453.14 189 1420 189C1386.86 189 1360 215.863 1360 249Z" fill="url(#paint19_radial_86_481)"/>
<path d="M1244 55C1244 88.1371 1270.86 115 1304 115C1337.14 115 1364 88.1371 1364 55C1364 21.8629 1337.14 -5 1304 -5C1270.86 -5 1244 21.8629 1244 55Z" fill="url(#paint20_radial_86_481)"/>
<path d="M1414 122C1380.86 122 1354 95.1375 1354 62.0006C1354 28.8631 1380.86 2 1414 2C1447.14 2 1474 28.8631 1474 62.0006C1474 95.1375 1447.14 122 1414 122Z" fill="url(#paint21_radial_86_481)"/>
<defs>
<radialGradient id="paint0_radial_86_481" cx="0" cy="0" r="1" gradientUnits="userSpaceOnUse" gradientTransform="translate(88.9996 163) scale(59.9996)">
<stop stop-color="white"/>
<stop offset="1" stop-color="#36A662"/>
</radialGradient>
<radialGradient id="paint1_radial_86_481" cx="0" cy="0" r="1" gradientUnits="userSpaceOnUse" gradientTransform="translate(886 71.9999) scale(59.9996)">
<stop stop-color="white"/>
<stop offset="1" stop-color="#36A662"/>
</radialGradient>
<radialGradient id="paint2_radial_86_481" cx="0" cy="0" r="1" gradientUnits="userSpaceOnUse" gradientTransform="translate(317 61.9999) scale(59.9996)">
<stop stop-color="white"/>
<stop offset="1" stop-color="#36A662"/>
</radialGradient>
<radialGradient id="paint3_radial_86_481" cx="0" cy="0" r="1" gradientUnits="userSpaceOnUse" gradientTransform="translate(21 260) scale(60.0004)">
<stop stop-color="white"/>
<stop offset="1" stop-color="#F5B034"/>
</radialGradient>
<radialGradient id="paint4_radial_86_481" cx="0" cy="0" r="1" gradientUnits="userSpaceOnUse" gradientTransform="translate(614 64.9999) scale(60.0004)">
<stop stop-color="white"/>
<stop offset="1" stop-color="#F5B034"/>
</radialGradient>
<radialGradient id="paint5_radial_86_481" cx="0" cy="0" r="1" gradientUnits="userSpaceOnUse" gradientTransform="translate(117 63.0002) scale(59.9998 60.0001)">
<stop stop-color="white"/>
<stop offset="1" stop-color="#37A6D9"/>
</radialGradient>
<radialGradient id="paint6_radial_86_481" cx="0" cy="0" r="1" gradientUnits="userSpaceOnUse" gradientTransform="translate(1073 63.0002) scale(59.9998 60.0001)">
<stop stop-color="white"/>
<stop offset="1" stop-color="#37A6D9"/>
</radialGradient>
<radialGradient id="paint7_radial_86_481" cx="0" cy="0" r="1" gradientUnits="userSpaceOnUse" gradientTransform="translate(514 63.0002) scale(59.9998 60.0001)">
<stop stop-color="white"/>
<stop offset="1" stop-color="#37A6D9"/>
</radialGradient>
<radialGradient id="paint8_radial_86_481" cx="0" cy="0" r="1" gradientUnits="userSpaceOnUse" gradientTransform="translate(212 57.0002) scale(59.9999)">
<stop stop-color="white"/>
<stop offset="1" stop-color="#803586"/>
</radialGradient>
<radialGradient id="paint9_radial_86_481" cx="0" cy="0" r="1" gradientUnits="userSpaceOnUse" gradientTransform="translate(978 62.0002) scale(59.9999)">
<stop stop-color="white"/>
<stop offset="1" stop-color="#803586"/>
</radialGradient>
<radialGradient id="paint10_radial_86_481" cx="0" cy="0" r="1" gradientUnits="userSpaceOnUse" gradientTransform="translate(21.0001 175) scale(59.9999)">
<stop stop-color="white"/>
<stop offset="1" stop-color="#DF001A"/>
</radialGradient>
<radialGradient id="paint11_radial_86_481" cx="0" cy="0" r="1" gradientUnits="userSpaceOnUse" gradientTransform="translate(1150 64.9996) scale(59.9999)">
<stop stop-color="white"/>
<stop offset="1" stop-color="#DF001A"/>
</radialGradient>
<radialGradient id="paint12_radial_86_481" cx="0" cy="0" r="1" gradientUnits="userSpaceOnUse" gradientTransform="translate(705 71.9996) scale(59.9999)">
<stop stop-color="white"/>
<stop offset="1" stop-color="#DF001A"/>
</radialGradient>
<radialGradient id="paint13_radial_86_481" cx="0" cy="0" r="1" gradientUnits="userSpaceOnUse" gradientTransform="translate(28.0004 65.0002) scale(59.9999)">
<stop stop-color="white"/>
<stop offset="1" stop-color="#E4511E"/>
</radialGradient>
<radialGradient id="paint14_radial_86_481" cx="0" cy="0" r="1" gradientUnits="userSpaceOnUse" gradientTransform="translate(796 72.0002) scale(59.9999)">
<stop stop-color="white"/>
<stop offset="1" stop-color="#E4511E"/>
</radialGradient>
<radialGradient id="paint15_radial_86_481" cx="0" cy="0" r="1" gradientUnits="userSpaceOnUse" gradientTransform="translate(414 65.0002) scale(59.9999)">
<stop stop-color="white"/>
<stop offset="1" stop-color="#E4511E"/>
</radialGradient>
<radialGradient id="paint16_radial_86_481" cx="0" cy="0" r="1" gradientUnits="userSpaceOnUse" gradientTransform="translate(1339 141) rotate(90) scale(59.9996)">
<stop stop-color="white"/>
<stop offset="1" stop-color="#36A662"/>
</radialGradient>
<radialGradient id="paint17_radial_86_481" cx="0" cy="0" r="1" gradientUnits="userSpaceOnUse" gradientTransform="translate(1219 62) rotate(90) scale(60.0004)">
<stop stop-color="white"/>
<stop offset="1" stop-color="#F5B034"/>
</radialGradient>
<radialGradient id="paint18_radial_86_481" cx="0" cy="0" r="1" gradientUnits="userSpaceOnUse" gradientTransform="translate(1414 162) rotate(90) scale(59.9998 60.0001)">
<stop stop-color="white"/>
<stop offset="1" stop-color="#37A6D9"/>
</radialGradient>
<radialGradient id="paint19_radial_86_481" cx="0" cy="0" r="1" gradientUnits="userSpaceOnUse" gradientTransform="translate(1420 249) rotate(90) scale(59.9999)">
<stop stop-color="white"/>
<stop offset="1" stop-color="#803586"/>
</radialGradient>
<radialGradient id="paint20_radial_86_481" cx="0" cy="0" r="1" gradientUnits="userSpaceOnUse" gradientTransform="translate(1304 55.0001) rotate(90) scale(59.9999)">
<stop stop-color="white"/>
<stop offset="1" stop-color="#DF001A"/>
</radialGradient>
<radialGradient id="paint21_radial_86_481" cx="0" cy="0" r="1" gradientUnits="userSpaceOnUse" gradientTransform="translate(1414 62.0004) rotate(90) scale(59.9999)">
<stop stop-color="white"/>
<stop offset="1" stop-color="#E4511E"/>
</radialGradient>
</defs>
</svg>
