<svg width="0" height="0" class="hidden">
  <symbol fill="none" xmlns="http://www.w3.org/2000/svg" viewBox="0 0 216 64" id="Badge">
    <g id="Badge" clip-path="url(#clip0_34_328)">
      <path id="Vector" d="M208 0H8C3.58172 0 0 3.58172 0 8V56C0 60.4183 3.58172 64 8 64H208C212.418 64 216 60.4183 216 56V8C216 3.58172 212.418 0 208 0Z" fill="white"></path>
      <path id="Vector_2" d="M208 1.28C209.782 1.28 211.492 1.988 212.752 3.24824C214.012 4.50849 214.72 6.21775 214.72 8V56C214.72 57.7823 214.012 59.4915 212.752 60.7518C211.492 62.012 209.782 62.72 208 62.72H8C6.21775 62.72 4.50849 62.012 3.24824 60.7518C1.988 59.4915 1.28 57.7823 1.28 56V8C1.28 6.21775 1.988 4.50849 3.24824 3.24824C4.50849 1.988 6.21775 1.28 8 1.28H208ZM208 0H8C5.87827 0 3.84344 0.842855 2.34315 2.34315C0.842855 3.84344 0 5.87827 0 8V56C0 58.1217 0.842855 60.1566 2.34315 61.6569C3.84344 63.1571 5.87827 64 8 64H208C210.122 64 212.157 63.1571 213.657 61.6569C215.157 60.1566 216 58.1217 216 56V8C216 5.87827 215.157 3.84344 213.657 2.34315C212.157 0.842855 210.122 0 208 0Z" fill="black"></path>
      <path id="Vector_3" d="M75.872 16.384C75.8983 16.9707 75.8055 17.5567 75.5993 18.1067C75.393 18.6566 75.0776 19.1592 74.672 19.584C74.2175 20.0532 73.6689 20.4212 73.0624 20.6639C72.4558 20.9065 71.8048 21.0183 71.152 20.992C70.4955 21.0066 69.8429 20.8864 69.2347 20.6387C68.6265 20.391 68.0755 20.0211 67.616 19.552C66.6837 18.5983 66.1617 17.3176 66.1617 15.984C66.1617 14.6503 66.6837 13.3696 67.616 12.416C68.3288 11.7195 69.2315 11.2491 70.2108 11.0641C71.1901 10.8791 72.2022 10.9876 73.12 11.376C73.697 11.6131 74.2116 11.9799 74.624 12.448L73.776 13.296C73.4583 12.9132 73.0557 12.6098 72.6002 12.4098C72.1447 12.2098 71.6488 12.1188 71.152 12.144C70.5248 12.1483 69.9083 12.3062 69.3562 12.6038C68.8042 12.9015 68.3334 13.3298 67.9851 13.8514C67.6368 14.3729 67.4216 14.9719 67.3582 15.5959C67.2948 16.2198 67.3853 16.8498 67.6216 17.4308C67.8579 18.0117 68.2329 18.526 68.7139 18.9285C69.1948 19.3311 69.767 19.6097 70.3805 19.74C70.994 19.8704 71.6301 19.8485 72.2331 19.6762C72.8362 19.504 73.3879 19.1867 73.84 18.752C74.3287 18.2161 74.6121 17.5247 74.64 16.8H71.152V15.648H75.808C75.8444 15.8918 75.8658 16.1376 75.872 16.384Z" fill="black" stroke="black" stroke-width="0.411304" stroke-miterlimit="10"></path>
      <path id="Vector_4" d="M83.2 12.384H78.88V15.424H82.816V16.576H78.88V19.616H83.2V20.8H77.632V11.2H83.2V12.384Z" fill="black" stroke="black" stroke-width="0.411304" stroke-miterlimit="10"></path>
      <path id="Vector_5" d="M88.448 20.8H87.216V12.384H84.528V11.2H91.2V12.384H88.448V20.8Z" fill="black" stroke="black" stroke-width="0.411304" stroke-miterlimit="10"></path>
      <path id="Vector_6" d="M95.9041 20.8V11.2H97.136V20.8H95.9041Z" fill="black" stroke="black" stroke-width="0.411304" stroke-miterlimit="10"></path>
      <path id="Vector_7" d="M102.608 20.8H101.376V12.384H98.6879V11.2H105.28V12.384H102.608V20.8Z" fill="black" stroke="black" stroke-width="0.411304" stroke-miterlimit="10"></path>
      <path id="Vector_8" d="M117.776 19.5518C117.314 20.0143 116.765 20.3812 116.161 20.6315C115.557 20.8819 114.91 21.0107 114.256 21.0107C113.602 21.0107 112.955 20.8819 112.351 20.6315C111.747 20.3812 111.198 20.0143 110.736 19.5518C109.831 18.5903 109.328 17.3199 109.328 15.9998C109.328 14.6797 109.831 13.4094 110.736 12.4478C111.188 11.9723 111.735 11.597 112.341 11.3462C112.948 11.0954 113.6 10.9747 114.256 10.9918C114.911 10.9815 115.561 11.1053 116.167 11.3557C116.772 11.6061 117.32 11.9778 117.776 12.4478C118.236 12.9158 118.598 13.4713 118.84 14.0813C119.081 14.6914 119.198 15.3437 119.184 15.9998C119.205 16.6568 119.091 17.311 118.849 17.922C118.606 18.533 118.241 19.0877 117.776 19.5518ZM111.648 18.7518C111.989 19.0972 112.395 19.3715 112.843 19.5587C113.29 19.7459 113.771 19.8423 114.256 19.8423C114.741 19.8423 115.222 19.7459 115.669 19.5587C116.117 19.3715 116.523 19.0972 116.864 18.7518C117.554 18.0016 117.938 17.0194 117.938 15.9998C117.938 14.9803 117.554 13.998 116.864 13.2478C116.523 12.9024 116.117 12.6282 115.669 12.441C115.222 12.2538 114.741 12.1574 114.256 12.1574C113.771 12.1574 113.29 12.2538 112.843 12.441C112.395 12.6282 111.989 12.9024 111.648 13.2478C110.958 13.998 110.574 14.9803 110.574 15.9998C110.574 17.0194 110.958 18.0016 111.648 18.7518Z" fill="black" stroke="black" stroke-width="0.411304" stroke-miterlimit="10"></path>
      <path id="Vector_9" d="M120.928 20.8V11.2H122.416L127.088 18.672V16.816V11.2H128.32V20.8H127.04L122.16 12.976V14.816V20.8H120.928Z" fill="black" stroke="black" stroke-width="0.411304" stroke-miterlimit="10"></path>
      <path id="Vector_10" d="M109.024 34.8C107.676 34.8031 106.359 35.206 105.24 35.9576C104.121 36.7092 103.25 37.7757 102.737 39.0224C102.224 40.269 102.092 41.6398 102.358 42.9614C102.624 44.2829 103.276 45.4959 104.232 46.4469C105.187 47.3979 106.403 48.0442 107.726 48.3041C109.049 48.564 110.419 48.4258 111.663 47.907C112.907 47.3882 113.97 46.5121 114.716 45.3894C115.463 44.2668 115.859 42.948 115.856 41.6C115.869 40.7007 115.701 39.8079 115.362 38.9749C115.023 38.1419 114.519 37.3857 113.882 36.7512C113.245 36.1167 112.486 35.617 111.651 35.2818C110.817 34.9466 109.923 34.7827 109.024 34.8ZM109.024 45.728C108.198 45.7858 107.373 45.5936 106.658 45.1766C105.942 44.7595 105.368 44.1369 105.011 43.3895C104.654 42.6421 104.53 41.8046 104.655 40.9858C104.781 40.167 105.149 39.4049 105.714 38.7984C106.278 38.192 107.011 37.7693 107.819 37.5852C108.626 37.4012 109.471 37.4644 110.242 37.7665C111.013 38.0687 111.676 38.5958 112.143 39.2795C112.611 39.9632 112.862 40.7717 112.864 41.6C112.89 42.1248 112.81 42.6495 112.63 43.143C112.45 43.6366 112.173 44.0891 111.815 44.4739C111.457 44.8586 111.025 45.1678 110.546 45.3832C110.067 45.5986 109.549 45.7158 109.024 45.728ZM94.112 34.8C92.7639 34.8031 91.4471 35.206 90.328 35.9576C89.2088 36.7092 88.3377 37.7757 87.8248 39.0224C87.3118 40.269 87.18 41.6398 87.4461 42.9614C87.7122 44.2829 88.3642 45.4959 89.3197 46.4469C90.2752 47.3979 91.4912 48.0442 92.814 48.3041C94.1368 48.564 95.5069 48.4258 96.7512 47.907C97.9954 47.3882 99.0579 46.5121 99.8042 45.3894C100.551 44.2668 100.947 42.948 100.944 41.6C100.957 40.7007 100.789 39.8079 100.45 38.9749C100.111 38.1419 99.6075 37.3857 98.97 36.7512C98.3326 36.1167 97.5739 35.617 96.7394 35.2818C95.9048 34.9466 95.0112 34.7827 94.112 34.8ZM94.112 45.728C93.2857 45.7858 92.4612 45.5936 91.7456 45.1766C91.0299 44.7595 90.4563 44.1369 90.0992 43.3895C89.7422 42.6421 89.6182 41.8046 89.7435 40.9858C89.8687 40.167 90.2374 39.4049 90.8016 38.7984C91.3657 38.192 92.0993 37.7693 92.9068 37.5852C93.7144 37.4012 94.5587 37.4644 95.3299 37.7665C96.1011 38.0687 96.7636 38.5958 97.2312 39.2795C97.6988 39.9632 97.95 40.7717 97.952 41.6C97.9778 42.1248 97.8982 42.6495 97.718 43.143C97.5378 43.6366 97.2605 44.0891 96.9026 44.4739C96.5447 44.8586 96.1134 45.1678 95.6342 45.3832C95.1549 45.5986 94.6373 45.7158 94.112 45.728ZM76.384 36.896V39.776H83.296C83.1876 41.1325 82.6238 42.4124 81.696 43.408C81.0027 44.1144 80.1687 44.6674 79.2482 45.0312C78.3276 45.395 77.341 45.5615 76.352 45.52C74.3152 45.52 72.3617 44.7108 70.9214 43.2706C69.4811 41.8303 68.672 39.8768 68.672 37.84C68.672 35.8031 69.4811 33.8497 70.9214 32.4094C72.3617 30.9691 74.3152 30.16 76.352 30.16C78.3047 30.1309 80.1902 30.8725 81.6 32.224L83.632 30.192C82.6784 29.2488 81.5461 28.5054 80.3015 28.0054C79.057 27.5053 77.7251 27.2587 76.384 27.28C74.9616 27.2246 73.5427 27.457 72.2122 27.9631C70.8817 28.4693 69.6672 29.2388 68.6412 30.2256C67.6153 31.2124 66.7991 32.3961 66.2416 33.7059C65.6841 35.0157 65.3967 36.4245 65.3967 37.848C65.3967 39.2715 65.6841 40.6803 66.2416 41.9901C66.7991 43.2998 67.6153 44.4836 68.6412 45.4704C69.6672 46.4571 70.8817 47.2267 72.2122 47.7328C73.5427 48.239 74.9616 48.4713 76.384 48.416C77.7527 48.4706 79.1174 48.2352 80.3887 47.725C81.6599 47.2149 82.8088 46.4416 83.76 45.456C85.4402 43.6102 86.3355 41.1827 86.256 38.688C86.2617 38.0875 86.2135 37.4878 86.112 36.896H76.384ZM148.88 39.136C148.463 37.9084 147.682 36.8364 146.642 36.0621C145.602 35.2878 144.352 34.8477 143.056 34.8C142.181 34.7983 141.315 34.9761 140.511 35.3224C139.707 35.6688 138.983 36.1763 138.383 36.8136C137.783 37.451 137.32 38.2045 137.023 39.0278C136.726 39.851 136.601 40.7265 136.656 41.6C136.642 43.0605 137.102 44.4863 137.965 45.6644C138.828 46.8425 140.05 47.7096 141.447 48.1362C142.844 48.5628 144.341 48.5261 145.716 48.0315C147.09 47.5369 148.267 46.611 149.072 45.392L146.752 43.792C146.406 44.3684 145.916 44.8444 145.329 45.1728C144.742 45.5012 144.08 45.6705 143.408 45.664C142.715 45.6926 142.029 45.5108 141.44 45.1424C140.852 44.7741 140.389 44.2364 140.112 43.6L149.216 39.84L148.88 39.136ZM139.6 41.408C139.568 40.911 139.635 40.4125 139.797 39.9418C139.96 39.471 140.215 39.0374 140.547 38.6664C140.879 38.2954 141.282 37.9944 141.732 37.7811C142.182 37.5677 142.67 37.4463 143.168 37.424C143.684 37.3925 144.197 37.5139 144.644 37.7729C145.091 38.0319 145.451 38.417 145.68 38.88L139.6 41.408ZM132.208 48H135.2V28H132.208V48ZM127.312 36.32H127.2C126.753 35.811 126.201 35.4045 125.583 35.1283C124.964 34.8522 124.293 34.7129 123.616 34.72C121.868 34.8048 120.219 35.559 119.011 36.8265C117.804 38.094 117.13 39.7774 117.13 41.528C117.13 43.2785 117.804 44.962 119.011 46.2294C120.219 47.4969 121.868 48.2512 123.616 48.336C124.294 48.3496 124.967 48.2132 125.587 47.9366C126.206 47.6601 126.757 47.2501 127.2 46.736H127.312V47.712C127.312 50.32 125.92 51.712 123.68 51.712C122.932 51.6955 122.205 51.4571 121.593 51.0269C120.98 50.5968 120.509 49.9943 120.24 49.296L117.648 50.368C118.127 51.5716 118.96 52.6014 120.037 53.3213C121.114 54.0413 122.385 54.4174 123.68 54.4C127.184 54.4 130.08 52.336 130.08 47.312V35.2H127.312V36.32ZM123.872 45.728C122.824 45.6626 121.84 45.2001 121.12 44.4346C120.401 43.6692 120.001 42.6583 120.001 41.608C120.001 40.5576 120.401 39.5468 121.12 38.7813C121.84 38.0159 122.824 37.5533 123.872 37.488C124.384 37.5101 124.887 37.635 125.35 37.8554C125.813 38.0758 126.227 38.387 126.568 38.7707C126.908 39.1543 127.168 39.6025 127.331 40.0885C127.495 40.5746 127.559 41.0886 127.52 41.6C127.564 42.1131 127.503 42.6297 127.341 43.1186C127.179 43.6075 126.92 44.0586 126.579 44.4444C126.238 44.8303 125.822 45.143 125.357 45.3636C124.892 45.5842 124.387 45.7082 123.872 45.728ZM162.896 28H155.728V48H158.72V40.416H162.896C163.749 40.4772 164.605 40.3622 165.411 40.0779C166.218 39.7937 166.957 39.3464 167.582 38.764C168.208 38.1815 168.707 37.4764 169.049 36.6925C169.39 35.9087 169.566 35.0629 169.566 34.208C169.566 33.3531 169.39 32.5073 169.049 31.7234C168.707 30.9396 168.208 30.2344 167.582 29.652C166.957 29.0695 166.218 28.6222 165.411 28.338C164.605 28.0538 163.749 27.9387 162.896 28ZM162.896 37.6H158.72V30.784H162.96C163.41 30.784 163.855 30.8725 164.27 31.0446C164.686 31.2167 165.063 31.4689 165.381 31.7868C165.699 32.1048 165.951 32.4822 166.123 32.8977C166.295 33.3131 166.384 33.7583 166.384 34.208C166.384 34.6576 166.295 35.1029 166.123 35.5183C165.951 35.9337 165.699 36.3112 165.381 36.6291C165.063 36.9471 164.686 37.1993 164.27 37.3713C163.855 37.5434 163.41 37.632 162.96 37.632L162.896 37.6ZM181.36 34.736C180.27 34.6688 179.185 34.9225 178.238 35.4656C177.291 36.0087 176.524 36.8175 176.032 37.792L178.672 38.896C178.939 38.415 179.339 38.0216 179.825 37.7632C180.31 37.5048 180.86 37.3926 181.408 37.44C181.788 37.3956 182.173 37.4273 182.54 37.5333C182.908 37.6393 183.25 37.8173 183.548 38.0571C183.846 38.2969 184.093 38.5936 184.275 38.9299C184.457 39.2663 184.57 39.6354 184.608 40.016V40.208C183.646 39.7022 182.575 39.4386 181.488 39.44C178.64 39.44 175.728 41.04 175.728 43.952C175.756 44.5709 175.908 45.1779 176.176 45.7369C176.443 46.2958 176.82 46.7953 177.284 47.2058C177.748 47.6162 178.29 47.9291 178.878 48.1261C179.465 48.323 180.086 48.3998 180.704 48.352C181.455 48.3935 182.203 48.2346 182.872 47.8916C183.541 47.5486 184.107 47.0338 184.512 46.4H184.608V48H187.488V40.304C187.488 36.8 184.832 34.768 181.424 34.768L181.36 34.736ZM180.992 45.696C180.016 45.696 178.656 45.2 178.656 44C178.656 42.4 180.352 41.856 181.856 41.856C182.806 41.8325 183.746 42.0646 184.576 42.528C184.476 43.3969 184.064 44.1999 183.416 44.7883C182.769 45.3767 181.931 45.7105 181.056 45.728L180.992 45.696ZM197.984 35.2L194.56 43.872H194.464L190.912 35.2H187.712L193.04 47.328L190 54.064H193.12L201.312 35.2H197.984ZM171.104 48H174.08V28H171.104V48Z" fill="black"></path>
      <path id="Vector_11" d="M16.704 12.064C16.1767 12.6874 15.9077 13.4888 15.9519 14.304V49.696C15.8975 50.5126 16.1678 51.3177 16.704 51.936L16.816 52.064L36.64 32.24V31.76L16.816 11.952L16.704 12.064Z" fill="url(#paint0_linear_34_328)"></path>
      <path id="Vector_12" d="M43.2 38.848L36.64 32.24V31.76L43.2 25.152L43.344 25.248L51.2 29.696C53.44 30.96 53.44 33.04 51.2 34.32L43.376 38.768L43.2 38.848Z" fill="url(#paint1_linear_34_328)"></path>
      <path id="Vector_13" d="M43.392 38.7521L36.64 32.0001L16.704 51.9361C17.1561 52.3386 17.7348 52.5701 18.3397 52.5905C18.9447 52.611 19.5377 52.4191 20.016 52.0481L43.392 38.7521Z" fill="url(#paint2_linear_34_328)"></path>
      <path id="Vector_14" d="M43.392 25.248L20.016 11.968C19.5408 11.5918 18.9483 11.3953 18.3425 11.4128C17.7367 11.4304 17.1566 11.6609 16.704 12.064L36.64 32L43.392 25.248Z" fill="url(#paint3_linear_34_328)"></path>
      <path id="Vector_15" opacity="0.2" d="M43.2 38.608L20.016 51.808C19.5551 52.1559 18.9934 52.344 18.416 52.344C17.8386 52.344 17.2769 52.1559 16.816 51.808L16.704 51.92L16.816 52.048C17.2769 52.3959 17.8386 52.584 18.416 52.584C18.9934 52.584 19.5551 52.3959 20.016 52.048L43.392 38.752L43.2 38.608Z" fill="black"></path>
      <path id="Vector_16" opacity="0.12" d="M16.704 51.7119C16.19 51.0773 15.9382 50.2702 16 49.4559V49.6959C15.9455 50.5125 16.2158 51.3176 16.752 51.9359L16.864 51.8239L16.704 51.7119Z" fill="black"></path>
      <path id="Vector_17" opacity="0.12" d="M51.2 34.0801L43.2 38.6081L43.344 38.7521L51.2 34.3041C51.6637 34.108 52.066 33.7906 52.3645 33.3851C52.663 32.9796 52.8466 32.5012 52.896 32.0001C52.796 32.4554 52.5904 32.8809 52.2958 33.2422C52.0012 33.6034 51.6259 33.8905 51.2 34.0801Z" fill="black"></path>
      <path id="Vector_18" opacity="0.25" d="M20.016 12.1921L51.2 29.9201C51.6258 30.1098 52.0012 30.3968 52.2957 30.7581C52.5903 31.1194 52.7959 31.5448 52.896 32.0001C52.8465 31.4991 52.6629 31.0206 52.3644 30.6151C52.066 30.2097 51.6637 29.8922 51.2 29.6961L20.016 11.9681C17.792 10.6881 15.952 11.7441 15.952 14.3041V14.5441C16 11.9841 17.792 10.9281 20.016 12.1921Z" fill="white"></path>
    </g>
    <defs>
      <linearGradient id="paint0_linear_34_328" x1="34.88" y1="13.936" x2="8.03195" y2="40.784" gradientUnits="userSpaceOnUse">
        <stop stop-color="#00A0FF"></stop>
        <stop offset="0.01" stop-color="#00A1FF"></stop>
        <stop offset="0.26" stop-color="#00BEFF"></stop>
        <stop offset="0.51" stop-color="#00D2FF"></stop>
        <stop offset="0.76" stop-color="#00DFFF"></stop>
        <stop offset="1" stop-color="#00E3FF"></stop>
      </linearGradient>
      <linearGradient id="paint1_linear_34_328" x1="54.128" y1="32" x2="15.424" y2="32" gradientUnits="userSpaceOnUse">
        <stop stop-color="#FFE000"></stop>
        <stop offset="0.41" stop-color="#FFBD00"></stop>
        <stop offset="0.78" stop-color="#FFA500"></stop>
        <stop offset="1" stop-color="#FF9C00"></stop>
      </linearGradient>
      <linearGradient id="paint2_linear_34_328" x1="39.728" y1="35.6801" x2="3.31197" y2="72.0801" gradientUnits="userSpaceOnUse">
        <stop stop-color="#FF3A44"></stop>
        <stop offset="1" stop-color="#C31162"></stop>
      </linearGradient>
      <linearGradient id="paint3_linear_34_328" x1="11.68" y1="0.287977" x2="27.936" y2="16.544" gradientUnits="userSpaceOnUse">
        <stop stop-color="#32A071"></stop>
        <stop offset="0.07" stop-color="#2DA771"></stop>
        <stop offset="0.48" stop-color="#15CF74"></stop>
        <stop offset="0.8" stop-color="#06E775"></stop>
        <stop offset="1" stop-color="#00F076"></stop>
      </linearGradient>
      <clipPath id="clip0_34_328">
        <rect width="216" height="64" fill="white"></rect>
      </clipPath>
    </defs>
  </symbol>
  <symbol fill="none" xmlns="http://www.w3.org/2000/svg" viewBox="0 0 99 110" id="Decor for disclaimer (1)">
    <g id="Decor for disclaimer">
      <path id="Vector" d="M79 40C90.0457 40 99 31.0457 99 20C99 8.95431 90.0457 5.4282e-06 79 3.49691e-06C67.9543 1.56562e-06 59 8.9543 59 20C59 31.0457 67.9543 40 79 40Z" fill="url(#paint0_radial_78_1064)"></path>
      <path id="Vector_2" d="M66 20.0001C66 31.0458 57.0458 40 46.0002 40C34.9544 40 26 31.0458 26 20.0001C26 8.9544 34.9544 1.56563e-06 46.0002 3.49695e-06C57.0458 5.42823e-06 66 8.95441 66 20.0001Z" fill="url(#paint1_radial_78_1064)"></path>
      <path id="Vector_3" d="M39 30C39 41.0456 30.0458 50 19.0002 50C7.95435 50 -1.00001 41.0458 -1 30C-1 18.9542 7.95436 10 19.0002 10C30.0458 10 39 18.9544 39 30Z" fill="url(#paint2_radial_78_1064)"></path>
      <path id="Vector_4" d="M14 80C25.0457 80 34 71.0457 34 60C34 48.9543 25.0457 40 14 40C2.9543 40 -6 48.9543 -6 60C-6.00001 71.0457 2.9543 80 14 80Z" fill="url(#paint3_radial_78_1064)"></path>
      <path id="Vector_5" d="M14 110C25.0457 110 34 101.046 34 90C34 78.9543 25.0457 70 14 70C2.9543 70 -6 78.9543 -6 90C-6.00001 101.046 2.9543 110 14 110Z" fill="url(#paint4_radial_78_1064)"></path>
      <path id="Vector_6" d="M46 67C57.0457 67 66 58.0457 66 47C66 35.9543 57.0457 27 46 27C34.9543 27 26 35.9543 26 47C26 58.0457 34.9543 67 46 67Z" fill="url(#paint5_radial_78_1064)"></path>
    </g>
    <defs>
      <radialGradient id="paint0_radial_78_1064" cx="0" cy="0" r="1" gradientUnits="userSpaceOnUse" gradientTransform="translate(79 20.0001) scale(20)">
        <stop stop-color="white"></stop>
        <stop offset="1" stop-color="#803586"></stop>
      </radialGradient>
      <radialGradient id="paint1_radial_78_1064" cx="0" cy="0" r="1" gradientUnits="userSpaceOnUse" gradientTransform="translate(46.0001 20.0001) scale(19.9999 20)">
        <stop stop-color="white"></stop>
        <stop offset="1" stop-color="#37A6D9"></stop>
      </radialGradient>
      <radialGradient id="paint2_radial_78_1064" cx="0" cy="0" r="1" gradientUnits="userSpaceOnUse" gradientTransform="translate(19 29.9999) scale(20)">
        <stop stop-color="white"></stop>
        <stop offset="1" stop-color="#DF001A"></stop>
      </radialGradient>
      <radialGradient id="paint3_radial_78_1064" cx="0" cy="0" r="1" gradientUnits="userSpaceOnUse" gradientTransform="translate(14.0001 60.0001) scale(20)">
        <stop stop-color="white"></stop>
        <stop offset="1" stop-color="#E4511E"></stop>
      </radialGradient>
      <radialGradient id="paint4_radial_78_1064" cx="0" cy="0" r="1" gradientUnits="userSpaceOnUse" gradientTransform="translate(13.9999 90) scale(19.9999)">
        <stop stop-color="white"></stop>
        <stop offset="1" stop-color="#36A662"></stop>
      </radialGradient>
      <radialGradient id="paint5_radial_78_1064" cx="0" cy="0" r="1" gradientUnits="userSpaceOnUse" gradientTransform="translate(46 47) scale(20.0001)">
        <stop stop-color="white"></stop>
        <stop offset="1" stop-color="#F5B034"></stop>
      </radialGradient>
    </defs>
  </symbol>
  <symbol fill="none" xmlns="http://www.w3.org/2000/svg" viewBox="0 0 97 110" id="Decor for disclaimer">
    <g id="Decor for disclaimer">
      <path id="Vector" d="M20 70C8.95431 70 2.7141e-06 78.9543 1.74846e-06 90C7.8281e-07 101.046 8.9543 110 20 110C31.0457 110 40 101.046 40 90C40 78.9543 31.0457 70 20 70Z" fill="url(#paint0_radial_78_1063)"></path>
      <path id="Vector_2" d="M33 89.9999C33 78.9542 41.9542 70 52.9998 70C64.0456 70 73 78.9542 73 89.9999C73 101.046 64.0456 110 52.9998 110C41.9542 110 33 101.046 33 89.9999Z" fill="url(#paint1_radial_78_1063)"></path>
      <path id="Vector_3" d="M60 80C60 68.9544 68.9542 60 79.9998 60C91.0456 60 100 68.9542 100 80C100 91.0458 91.0456 100 79.9998 100C68.9542 100 60 91.0456 60 80Z" fill="url(#paint2_radial_78_1063)"></path>
      <path id="Vector_4" d="M85 30C73.9543 30 65 38.9543 65 50C65 61.0457 73.9543 70 85 70C96.0457 70 105 61.0457 105 50C105 38.9543 96.0457 30 85 30Z" fill="url(#paint3_radial_78_1063)"></path>
      <path id="Vector_5" d="M85 -1.74846e-06C73.9543 -2.7141e-06 65 8.9543 65 20C65 31.0457 73.9543 40 85 40C96.0457 40 105 31.0457 105 20C105 8.95431 96.0457 -7.8281e-07 85 -1.74846e-06Z" fill="url(#paint4_radial_78_1063)"></path>
      <path id="Vector_6" d="M53 43C41.9543 43 33 51.9543 33 63C33 74.0457 41.9543 83 53 83C64.0457 83 73 74.0457 73 63C73 51.9543 64.0457 43 53 43Z" fill="url(#paint5_radial_78_1063)"></path>
    </g>
    <defs>
      <radialGradient id="paint0_radial_78_1063" cx="0" cy="0" r="1" gradientUnits="userSpaceOnUse" gradientTransform="translate(20 89.9999) rotate(-180) scale(20)">
        <stop stop-color="white"></stop>
        <stop offset="1" stop-color="#803586"></stop>
      </radialGradient>
      <radialGradient id="paint1_radial_78_1063" cx="0" cy="0" r="1" gradientUnits="userSpaceOnUse" gradientTransform="translate(52.9999 89.9999) rotate(-180) scale(19.9999 20)">
        <stop stop-color="white"></stop>
        <stop offset="1" stop-color="#37A6D9"></stop>
      </radialGradient>
      <radialGradient id="paint2_radial_78_1063" cx="0" cy="0" r="1" gradientUnits="userSpaceOnUse" gradientTransform="translate(80 80.0001) rotate(-180) scale(20)">
        <stop stop-color="white"></stop>
        <stop offset="1" stop-color="#DF001A"></stop>
      </radialGradient>
      <radialGradient id="paint3_radial_78_1063" cx="0" cy="0" r="1" gradientUnits="userSpaceOnUse" gradientTransform="translate(84.9999 49.9999) rotate(-180) scale(20)">
        <stop stop-color="white"></stop>
        <stop offset="1" stop-color="#E4511E"></stop>
      </radialGradient>
      <radialGradient id="paint4_radial_78_1063" cx="0" cy="0" r="1" gradientUnits="userSpaceOnUse" gradientTransform="translate(85.0001 20) rotate(-180) scale(19.9999)">
        <stop stop-color="white"></stop>
        <stop offset="1" stop-color="#36A662"></stop>
      </radialGradient>
      <radialGradient id="paint5_radial_78_1063" cx="0" cy="0" r="1" gradientUnits="userSpaceOnUse" gradientTransform="translate(53 63) rotate(-180) scale(20.0001)">
        <stop stop-color="white"></stop>
        <stop offset="1" stop-color="#F5B034"></stop>
      </radialGradient>
    </defs>
  </symbol>
  <symbol fill="none" xmlns="http://www.w3.org/2000/svg" viewBox="0 0 64 64" id="Download icon">
    <path id="Download icon" d="M32 48.352L15.8217 32.1783L19.0583 28.8869L29.7143 39.5429V0H34.2857V39.5429L44.9371 28.8914L48.1783 32.1783L32 48.352ZM7.38743 64C5.28152 64 3.52457 63.296 2.11657 61.888C0.708571 60.48 0.00304762 58.7215 0 56.6126V45.536H4.57143V56.6126C4.57143 57.3166 4.864 57.9627 5.44914 58.5509C6.03429 59.1391 6.67886 59.4316 7.38286 59.4286H56.6171C57.3181 59.4286 57.9627 59.136 58.5509 58.5509C59.1391 57.9657 59.4316 57.3196 59.4286 56.6126V45.536H64V56.6126C64 58.7185 63.296 60.4754 61.888 61.8834C60.48 63.2914 58.7215 63.997 56.6126 64H7.38743Z" fill="white"></path>
  </symbol>
  <symbol fill="none" xmlns="http://www.w3.org/2000/svg" viewBox="0 0 84 68" id="Game Logo.png">
    <g id="Reviews icon">
      <path id="Vector" d="M69.6923 2H14.3077C11.0435 2 7.91298 3.22597 5.60484 5.40821C3.2967 7.59045 2 10.5502 2 13.6364V42.7273C2 45.8134 3.2967 48.7732 5.60484 50.9554C7.91298 53.1377 11.0435 54.3636 14.3077 54.3636H48.1538L66.6154 66V54.3636H69.6923C72.9565 54.3636 76.087 53.1377 78.3952 50.9554C80.7033 48.7732 82 45.8134 82 42.7273V13.6364C82 10.5502 80.7033 7.59045 78.3952 5.40821C76.087 3.22597 72.9565 2 69.6923 2Z" stroke="white" stroke-width="4" stroke-linecap="round" stroke-linejoin="round"></path>
      <path id="Vector_2" d="M23.5384 31.0909C23.5384 31.8624 23.2142 32.6023 22.6372 33.1479C22.0601 33.6935 21.2775 33.9999 20.4614 33.9999C19.6454 33.9999 18.8628 33.6935 18.2857 33.1479C17.7087 32.6023 17.3845 31.8624 17.3845 31.0909C17.3845 30.3193 17.7087 29.5794 18.2857 29.0338C18.8628 28.4883 19.6454 28.1818 20.4614 28.1818C21.2775 28.1818 22.0601 28.4883 22.6372 29.0338C23.2142 29.5794 23.5384 30.3193 23.5384 31.0909ZM41.9999 31.0909C41.9999 31.8624 41.6757 32.6023 41.0987 33.1479C40.5217 33.6935 39.739 33.9999 38.923 33.9999C38.1069 33.9999 37.3243 33.6935 36.7473 33.1479C36.1702 32.6023 35.8461 31.8624 35.8461 31.0909C35.8461 30.3193 36.1702 29.5794 36.7473 29.0338C37.3243 28.4883 38.1069 28.1818 38.923 28.1818C39.739 28.1818 40.5217 28.4883 41.0987 29.0338C41.6757 29.5794 41.9999 30.3193 41.9999 31.0909ZM60.4614 31.0909C60.4614 31.8624 60.1373 32.6023 59.5602 33.1479C58.9832 33.6935 58.2006 33.9999 57.3845 33.9999C56.5685 33.9999 55.7858 33.6935 55.2088 33.1479C54.6318 32.6023 54.3076 31.8624 54.3076 31.0909C54.3076 30.3193 54.6318 29.5794 55.2088 29.0338C55.7858 28.4883 56.5685 28.1818 57.3845 28.1818C58.2006 28.1818 58.9832 28.4883 59.5602 29.0338C60.1373 29.5794 60.4614 30.3193 60.4614 31.0909Z" stroke="white" stroke-width="4" stroke-linecap="round" stroke-linejoin="round"></path>
    </g>
  </symbol>
  <symbol fill="none" xmlns="http://www.w3.org/2000/svg" viewBox="0 0 64 64" id="Play Market logo.png">
    <path id="Star icon" d="M63.7886 24.1068C63.5393 23.2884 63.0587 22.5667 62.4093 22.0353C61.7598 21.5039 60.9715 21.1874 60.1465 21.1268L42.6199 19.6565L35.8653 2.68844C35.5501 1.8931 35.0144 1.21291 34.326 0.734238C33.6377 0.255563 32.8278 0 31.9993 0C31.1707 0 30.3608 0.255563 29.6725 0.734238C28.9841 1.21291 28.4484 1.8931 28.1332 2.68844L21.3786 19.6504L3.85196 21.1268C3.02632 21.1878 2.23745 21.5052 1.58792 22.0378C0.938394 22.5703 0.458252 23.2933 0.209919 24.1129C-0.0489447 24.9302 -0.068845 25.8088 0.152727 26.6379C0.374299 27.467 0.827422 28.2094 1.45496 28.7715L14.8363 40.7307L10.7637 58.6196C10.5726 59.4568 10.6251 60.334 10.9146 61.1401C11.204 61.9463 11.7175 62.6452 12.3898 63.1484C13.0539 63.659 13.8511 63.9496 14.6769 63.9819C15.5028 64.0142 16.3188 63.7868 17.018 63.3296L31.9993 53.7707L47.0038 63.3447C47.703 63.8019 48.519 64.0293 49.3449 63.997C50.1707 63.9646 50.9679 63.6741 51.632 63.1635C52.3043 62.6603 52.8177 61.9614 53.1072 61.1552C53.3967 60.3491 53.4492 59.4719 53.2581 58.6347L49.1855 40.7458L62.5435 28.7715C63.1722 28.2089 63.626 27.4654 63.8476 26.6351C64.0693 25.8048 64.0487 24.925 63.7886 24.1068ZM60.2571 26.0301L46.0933 38.7108C45.8516 38.9273 45.6717 39.2083 45.5733 39.5235C45.4748 39.8386 45.4615 40.1757 45.5347 40.4982L49.8633 59.4559C49.9012 59.599 49.8949 59.7508 49.8454 59.89C49.7958 60.0292 49.7054 60.1488 49.5869 60.2319C49.4796 60.318 49.349 60.3672 49.2134 60.3726C49.0779 60.378 48.944 60.3394 48.8306 60.2621L32.9127 50.1114C32.6379 49.9363 32.3217 49.8435 31.9993 49.8435C31.6768 49.8435 31.3606 49.9363 31.0858 50.1114L15.1679 60.259C15.0545 60.3364 14.9207 60.375 14.7851 60.3696C14.6495 60.3642 14.5189 60.315 14.4116 60.2288C14.2905 60.1478 14.1972 60.0292 14.1449 59.8898C14.0927 59.7505 14.0842 59.5976 14.1207 59.4529L18.4492 40.4952C18.5225 40.1727 18.5092 39.8356 18.4107 39.5205C18.3122 39.2053 18.1324 38.9242 17.8907 38.7078L3.72688 26.0271C3.61575 25.9331 3.53559 25.8056 3.49753 25.6622C3.45947 25.5188 3.46541 25.3667 3.51452 25.227C3.55246 25.0892 3.63087 24.9672 3.73881 24.8779C3.84675 24.7886 3.97884 24.7365 4.11668 24.7288L22.7109 23.1709C23.0313 23.1439 23.3383 23.0255 23.598 22.829C23.8577 22.6324 24.0601 22.3651 24.1828 22.0568L31.3476 4.06219C31.3976 3.92898 31.4851 3.81454 31.5988 3.73385C31.7125 3.65317 31.847 3.60999 31.9847 3.60999C32.1224 3.60999 32.2569 3.65317 32.3706 3.73385C32.4843 3.81454 32.5718 3.92898 32.6218 4.06219L39.7866 22.0568C39.9093 22.3651 40.1117 22.6324 40.3714 22.829C40.6311 23.0255 40.9381 23.1439 41.2585 23.1709L59.8527 24.7288C59.9906 24.7365 60.1227 24.7886 60.2306 24.8779C60.3386 24.9672 60.417 25.0892 60.4549 25.227C60.5063 25.3656 60.5149 25.5174 60.4795 25.6613C60.444 25.8052 60.3663 25.9341 60.2571 26.0301Z" fill="white"></path>
  </symbol>
  <symbol fill="none" xmlns="http://www.w3.org/2000/svg" viewBox="0 0 27 27" id="Reviews icon">
    <path id="Vector" d="M24.2256 0.727863L13.4561 11.4974L2.68636 0.727592C2.42669 0.467927 2.07452 0.322045 1.7073 0.32204C1.34008 0.322035 0.987902 0.467908 0.728243 0.727568C0.468583 0.987227 0.32271 1.3394 0.322715 1.70662C0.32272 2.07384 0.468602 2.42602 0.728267 2.68568L11.498 13.4555L0.728539 24.225C0.46888 24.4846 0.323007 24.8368 0.323012 25.204C0.323017 25.5712 0.468897 25.9234 0.728563 26.1831C0.850977 26.3152 1.00028 26.4195 1.16641 26.489C1.33254 26.5585 1.51163 26.5916 1.69162 26.586C1.87162 26.5804 2.04832 26.5363 2.20984 26.4567C2.37135 26.3771 2.51392 26.2638 2.62794 26.1244L13.3974 15.3549L24.226 26.1834C24.4856 26.4431 24.8378 26.5889 25.205 26.5889C25.5723 26.5889 25.9244 26.4431 26.1841 26.1834C26.4437 25.9238 26.5896 25.5716 26.5896 25.2044C26.5896 24.8371 26.4437 24.485 26.1841 24.2253L15.4143 13.4555L26.1838 2.68601C26.4435 2.42635 26.5893 2.07417 26.5893 1.70695C26.5893 1.33973 26.4434 0.987555 26.1838 0.727889C25.9241 0.468222 25.5719 0.322342 25.2047 0.322336C24.8375 0.322331 24.4853 0.468203 24.2256 0.727863Z" fill="white"></path>
  </symbol>
  <symbol fill="none" xmlns="http://www.w3.org/2000/svg" viewBox="0 0 16 30" id="Star icon">
    <path id="Vector" d="M15.6221 14.0966L2.0445 0.844638C1.81795 0.623411 1.51697 0.499999 1.20397 0.499999C0.890974 0.499999 0.58999 0.623411 0.36344 0.844638L0.348822 0.859612C0.238614 0.966858 0.150859 1.09595 0.0908918 1.23903C0.0309248 1.38212 9.08381e-07 1.5362 9.01574e-07 1.69191C8.94768e-07 1.84762 0.0309247 2.00171 0.0908918 2.14479C0.150859 2.28788 0.238614 2.41697 0.348822 2.52421L13.1346 15.0025L0.34882 27.4758C0.238613 27.583 0.150858 27.7121 0.0908906 27.8552C0.0309236 27.9983 -2.55049e-07 28.1524 -2.61856e-07 28.3081C-2.68662e-07 28.4638 0.0309236 28.6179 0.0908906 28.761C0.150858 28.904 0.238613 29.0331 0.34882 29.1404L0.363439 29.1554C0.589988 29.3766 0.890973 29.5 1.20397 29.5C1.51696 29.5 1.81795 29.3766 2.0445 29.1554L15.6221 15.9034C15.7415 15.7869 15.8366 15.6467 15.9016 15.4914C15.9665 15.3361 16 15.1689 16 15C16 14.8311 15.9665 14.6639 15.9016 14.5086C15.8366 14.3533 15.7415 14.2131 15.6221 14.0966Z" fill="white"></path>
  </symbol>
  <symbol fill="none" xmlns="http://www.w3.org/2000/svg" viewBox="0 0 36 36" id="Vector (1)">
    <path id="Vector" d="M34.6154 16.6154H19Vector (1).385V1.38462C19.385 1.01739 19.2392 0.66521 18.9795 0.405545C18.7198 0.145879 18.3677 0 18.0005 0C17.6332 0 17.2811 0.145879 17.0214 0.405545C16.7617 0.66521 16.6159 1.01739 16.6159 1.38462V16.6154H1.38549C1.01827 16.6154 0.666101 16.7613 0.406442 17.0209C0.146783 17.2806 0.00090729 17.6328 0.00090729 18C-0.0059251 18.18 0.0258945 18.3593 0.0942214 18.5259C0.162548 18.6925 0.265795 18.8425 0.397003 18.9659C0.528212 19.0892 0.684334 19.183 0.854848 19.2409C1.02536 19.2988 1.20631 19.3195 1.38549 19.3015H16.6159V34.6154C16.6159 34.9826 16.7617 35.3348 17.0214 35.5945C17.2811 35.8541 17.6332 36 18.0005 36C18.3677 36 18.7198 35.8541 18.9795 35.5945C19.2392 35.3348 19.385 34.9826 19.385 34.6154V19.3846H34.6154C34.9826 19.3846 35.3348 19.2387 35.5945 18.9791C35.8541 18.7194 36 18.3672 36 18C36 17.6328 35.8541 17.2806 35.5945 17.0209C35.3348 16.7613 34.9826 16.6154 34.6154 16.6154Z" fill="white"></path>
  </symbol>
  <symbol fill="none" xmlns="http://www.w3.org/2000/svg" viewBox="0 0 84 68" id="Vector (2)">
    <g id="Wifi icon">
      <path id="Vector" d="M27 44.6663C35 36.1328 49 36.1328 57 44.6663M68 31.8661C52.928 17.6451 32 17.6451 16 31.8661" stroke="white" stroke-width="4" stroke-linecap="round" stroke-linejoin="round"></path>
      <path id="Vector_2" d="M2 19.0659C27.264 -3.68863 56.736 -3.68863 82 19.0659" stroke="white" stroke-width="4" stroke-linecap="round" stroke-linejoin="round"></path>
      <path id="Vector_3" d="M42 66C45.3137 66 48 63.1346 48 59.5999C48 56.0652 45.3137 53.1998 42 53.1998C38.6863 53.1998 36 56.0652 36 59.5999C36 63.1346 38.6863 66 42 66Z" stroke="white" stroke-width="4" stroke-linecap="round" stroke-linejoin="round"></path>
    </g>
  </symbol>
</svg>