<svg aria-hidden="true" version="1.1" xmlns="http://www.w3.org/2000/svg" xmlns:xlink="http://www.w3.org/1999/xlink">
<defs>
<symbol id="icon-menu" viewBox="0 0 27 32">
<path d="M2.8 7.493c-0.313 0.163-0.433 0.361-0.433 0.717 0 0.271 0.105 0.472 0.334 0.642l0.128 0.096 10.379 0.011c10.272 0.012 10.38 0.011 10.555-0.078 0.281-0.144 0.389-0.334 0.389-0.684 0-0.357-0.117-0.556-0.405-0.688-0.18-0.081-0.541-0.084-10.499-0.085-9.264-0.001-10.326 0.006-10.448 0.070zM2.778 12.983c-0.283 0.148-0.411 0.352-0.411 0.662 0 0.359 0.169 0.626 0.468 0.739 0.13 0.049 15.77 0.206 17.634 0.177l0.914-0.015 0.163-0.124c0.49-0.375 0.33-1.197-0.261-1.346-0.114-0.029-2.683-0.065-6.852-0.096-3.669-0.027-7.746-0.062-9.061-0.076l-2.39-0.027-0.204 0.106zM2.823 17.625c-0.289 0.116-0.456 0.386-0.456 0.737 0 0.312 0.129 0.517 0.41 0.656l0.205 0.101 18.273 0.152 0.204-0.119c0.231-0.13 0.384-0.373 0.384-0.652 0-0.034-0.002-0.067-0.006-0.099l0 0.004c-0.034-0.252-0.108-0.373-0.329-0.541-0.149-0.114-0.208-0.128-0.581-0.14-0.453-0.016-16.733-0.151-17.512-0.147-0.263 0.002-0.529 0.023-0.592 0.048zM2.823 23.088c-0.284 0.113-0.456 0.385-0.456 0.723 0 0.284 0.084 0.457 0.304 0.624l0.168 0.128 10.338 0.012c11.518 0.013 10.594 0.039 10.851-0.297 0.107-0.14 0.125-0.207 0.125-0.467 0-0.258-0.018-0.326-0.123-0.464-0.259-0.339 0.738-0.311-10.766-0.308-6.749 0.002-10.367 0.019-10.441 0.048z"></path>
</symbol>
<symbol id="icon-close" viewBox="0 0 31 32">
<path stroke-linejoin="round" stroke-linecap="round" stroke-miterlimit="4" stroke-width="1.561" d="M24.716 4.293h-18.212c-1.437 0-2.601 1.165-2.601 2.601v0 18.212c0 1.437 1.165 2.601 2.601 2.601v0h18.212c1.437 0 2.601-1.165 2.601-2.601v0-18.212c0-1.437-1.165-2.601-2.601-2.601v0zM11.707 12.098l7.805 7.805M19.512 12.098l-7.805 7.805"></path>
</symbol>
<symbol id="arrow" viewBox="0 0 40 40">
<path d="M8.055 11.163c-0.425 0.094-0.771 0.372-0.955 0.745l-0.004 0.008c-0.16 0.315-0.155 0.86 0.012 1.195 0.177 0.353 8.593 8.77 8.947 8.947 0.16 0.080 0.349 0.127 0.549 0.127 0.022 0 0.044-0.001 0.066-0.002l-0.003 0c0.019 0.001 0.040 0.002 0.062 0.002 0.2 0 0.389-0.047 0.557-0.13l-0.007 0.003c0.353-0.177 8.77-8.593 8.947-8.947 0.084-0.175 0.133-0.381 0.133-0.599 0-0.38-0.15-0.725-0.394-0.979l0 0c-0.254-0.243-0.599-0.393-0.978-0.393-0.217 0-0.423 0.049-0.607 0.136l0.009-0.004c-0.177 0.088-1.337 1.212-3.985 3.855l-3.737 3.73-3.737-3.73c-2.41-2.405-3.815-3.768-3.958-3.84-0.195-0.093-0.424-0.147-0.666-0.147-0.089 0-0.176 0.007-0.26 0.021l0.009-0.001z"></path>
</symbol>
</defs>
</svg>
