<svg xmlns="http://www.w3.org/2000/svg">
  <symbol>
    <path id="right" d="m19.875 18-4.316-4.699a.96.96 0 0 1 0-1.346.938.938 0 0 1 1.331 0l5.263 5.37a.956.956 0 0 1 0 1.344l-5.263 5.37a.934.934 0 0 1-1.331 0 .956.956 0 0 1 0-1.344L19.875 18ZM18 0a18 18 0 0 1 18 18c0 9.943-8.059 18-18 18S0 27.943 0 18A18 18 0 0 1 18 0Zm0 33.664a15.665 15.665 0 1 0 0-31.33 15.665 15.665 0 0 0 0 31.33Z"/>
  <symbol/>
  <symbol>
    <path id="left" d="M20.344 12.197a.9.9 0 0 0-1.278 0l-5.053 5.157a.918.918 0 0 0 0 1.29l5.053 5.156a.897.897 0 0 0 1.278 0 .918.918 0 0 0 0-1.291L16.2 18l4.144-4.51a.922.922 0 0 0 0-1.293ZM18 .72A17.28 17.28 0 0 0 .72 18c0 9.545 7.736 17.28 17.28 17.28S35.28 27.545 35.28 18A17.28 17.28 0 0 0 18 .72Zm0 32.317a15.036 15.036 0 1 1 2.934-29.785A15.037 15.037 0 0 1 18 33.037Z"/>
  <symbol/>
  <symbol>
    <path id="dots" d="M4.001 9.92a3.08 3.08 0 1 0 .003 6.161A3.08 3.08 0 0 0 4 9.92h.001Zm0-3.64A3.08 3.08 0 1 0 4 .12 3.08 3.08 0 0 0 4 6.28Zm0 13.44a3.081 3.081 0 1 0 0 6.163 3.081 3.081 0 0 0 0-6.163Z"/>
  <symbol/>
  <symbol>
    <path id="home" d="M25.14 13.4H22.8v8.4c0 .623-.272 1.4-1.4 1.4h-5.6v-8.4h-5.6v8.4H4.6c-1.128 0-1.4-.777-1.4-1.4v-8.4H.86c-.838 0-.659-.454-.085-1.047L12.01 1.108c.273-.283.631-.423.991-.437.36.014.718.153.991.437l11.232 11.243c.576.595.755 1.049-.082 1.049Z"/>
  <symbol/>
  <symbol>
    <path id="close" d="M13.087 14.789a1.68 1.68 0 0 1-2.376 0L7 10.547l-3.711 4.24a1.68 1.68 0 1 1-2.376-2.376l3.861-4.41L.911 3.59a1.68 1.68 0 1 1 2.376-2.376L7 5.456l3.711-4.243a1.68 1.68 0 1 1 2.376 2.376L9.226 8l3.861 4.41a1.68 1.68 0 0 1 0 2.378Z"/>
  <symbol/>
</svg>