<svg aria-hidden="true" style="position: absolute; width: 0; height: 0; overflow: hidden;" version="1.1" xmlns="http://www.w3.org/2000/svg" xmlns:xlink="http://www.w3.org/1999/xlink">
<defs>

<symbol id="icon-Vector-15" viewBox="0 0 32 32">
<path fill="#fff" style="fill: var(--color1, #fff)" d="M28.712 0.863l-12.764 12.764-12.764-12.764c-0.308-0.308-0.725-0.481-1.16-0.481s-0.853 0.173-1.16 0.481c-0.308 0.308-0.481 0.725-0.481 1.16s0.173 0.853 0.481 1.16l12.764 12.764-12.764 12.764c-0.308 0.308-0.481 0.725-0.481 1.16s0.173 0.853 0.481 1.16c0.145 0.157 0.322 0.28 0.519 0.363s0.409 0.122 0.622 0.115c0.213-0.007 0.423-0.059 0.614-0.153s0.36-0.229 0.496-0.394l12.764-12.764 12.834 12.834c0.308 0.308 0.725 0.481 1.16 0.481s0.853-0.173 1.16-0.481c0.308-0.308 0.481-0.725 0.481-1.16s-0.173-0.853-0.481-1.16l-12.764-12.764 12.764-12.764c0.308-0.308 0.481-0.725 0.481-1.16s-0.173-0.853-0.481-1.16c-0.308-0.308-0.725-0.481-1.16-0.481s-0.853 0.173-1.16 0.481z"></path>
</symbol>

<symbol id="icon-Menu" viewBox="0 0 45 32">
<path fill="#fff" style="fill: var(--color1, #fff)" d="M3.2 0h38.4c1.767 0 3.2 1.433 3.2 3.2s-1.433 3.2-3.2 3.2h-38.4c-1.767 0-3.2-1.433-3.2-3.2s1.433-3.2 3.2-3.2z"></path>
<path fill="#fff" style="fill: var(--color1, #fff)" d="M3.2 12.8h38.4c1.767 0 3.2 1.433 3.2 3.2s-1.433 3.2-3.2 3.2h-38.4c-1.767 0-3.2-1.433-3.2-3.2s1.433-3.2 3.2-3.2z"></path>
<path fill="#fff" style="fill: var(--color1, #fff)" d="M3.2 25.6h38.4c1.767 0 3.2 1.433 3.2 3.2s-1.433 3.2-3.2 3.2h-38.4c-1.767 0-3.2-1.433-3.2-3.2s1.433-3.2 3.2-3.2z"></path>
</symbol>

<symbol id="icon-Play-Market-logo" viewBox="0 0 29 32">
<path fill="#1e1e1e" style="fill: var(--color2, #1e1e1e)" d="M0 0h28.981v32h-28.981v-32z"></path>
<path fill="#414141" style="fill: var(--color3, #414141)" d="M-1870.491-758.34h3562.868v12199.245h-3562.868v-12199.245z"></path>
<path fill="#000" style="fill: var(--color4, #000)" d="M0 0h28.981v32h-28.981v-32z"></path>
</symbol>

<symbol id="icon-Game-Logo" viewBox="0 0 32 32">
<path d="M0 0h32v32h-32v-32z"></path>
</symbol>

<symbol id="icon-Vector-14" viewBox="0 0 32 32">
<path fill="#fff" style="fill: var(--color1, #fff)" d="M30.769 14.769h-13.538v-13.538c0-0.326-0.13-0.639-0.36-0.87s-0.544-0.36-0.87-0.36c-0.326 0-0.639 0.13-0.87 0.36s-0.36 0.544-0.36 0.87v13.538h-13.538c-0.326 0-0.639 0.13-0.87 0.36s-0.36 0.544-0.36 0.87c-0.006 0.16 0.022 0.319 0.083 0.467s0.152 0.281 0.269 0.391c0.117 0.11 0.255 0.193 0.407 0.244s0.312 0.070 0.472 0.054h13.538v13.612c0 0.326 0.13 0.639 0.36 0.87s0.544 0.36 0.87 0.36c0.326 0 0.639-0.13 0.87-0.36s0.36-0.544 0.36-0.87v-13.538h13.538c0.326 0 0.639-0.13 0.87-0.36s0.36-0.544 0.36-0.87-0.13-0.639-0.36-0.87c-0.231-0.231-0.544-0.36-0.87-0.36z"></path>
</symbol>

<symbol id="icon-Wifi-icon" viewBox="0 0 40 32">
<path fill="none" stroke="#fff" style="stroke: var(--color1, #fff)" stroke-linejoin="round" stroke-linecap="round" stroke-miterlimit="4" stroke-width="1.8824" d="M12.706 21.019c3.765-4.016 10.353-4.016 14.118 0M32 14.996c-7.093-6.692-16.941-6.692-24.471 0"></path>
<path fill="none" stroke="#fff" style="stroke: var(--color1, #fff)" stroke-linejoin="round" stroke-linecap="round" stroke-miterlimit="4" stroke-width="1.8824" d="M0.941 8.972c11.889-10.708 25.758-10.708 37.647 0"></path>
<path fill="none" stroke="#fff" style="stroke: var(--color1, #fff)" stroke-linejoin="round" stroke-linecap="round" stroke-miterlimit="4" stroke-width="1.8824" d="M19.765 31.059c1.559 0 2.824-1.348 2.824-3.012s-1.264-3.012-2.824-3.012c-1.559 0-2.824 1.348-2.824 3.012s1.264 3.012 2.824 3.012z"></path>
</symbol>

<symbol id="icon-Reviews-icon" viewBox="0 0 40 32">
<path fill="none" stroke="#fff" style="stroke: var(--color1, #fff)" stroke-linejoin="round" stroke-linecap="round" stroke-miterlimit="4" stroke-width="1.8824" d="M32.796 0.941h-26.063c-1.536 0-3.009 0.577-4.095 1.604s-1.696 2.42-1.696 3.872v13.69c0 1.452 0.61 2.845 1.696 3.872s2.559 1.604 4.095 1.604h15.928l8.688 5.476v-5.476h1.448c1.536 0 3.009-0.577 4.095-1.604s1.696-2.42 1.696-3.872v-13.69c0-1.452-0.61-2.845-1.696-3.872s-2.559-1.604-4.095-1.604z"></path>
<path fill="none" stroke="#fff" style="stroke: var(--color1, #fff)" stroke-linejoin="round" stroke-linecap="round" stroke-miterlimit="4" stroke-width="1.8824" d="M11.077 14.631c0 0.363-0.153 0.711-0.424 0.968s-0.64 0.401-1.024 0.401c-0.384 0-0.752-0.144-1.024-0.401s-0.424-0.605-0.424-0.968c0-0.363 0.153-0.711 0.424-0.968s0.64-0.401 1.024-0.401c0.384 0 0.752 0.144 1.024 0.401s0.424 0.605 0.424 0.968zM19.765 14.631c0 0.363-0.153 0.711-0.424 0.968s-0.64 0.401-1.024 0.401c-0.384 0-0.752-0.144-1.024-0.401s-0.424-0.605-0.424-0.968c0-0.363 0.153-0.711 0.424-0.968s0.64-0.401 1.024-0.401c0.384 0 0.752 0.144 1.024 0.401s0.424 0.605 0.424 0.968zM28.452 14.631c0 0.363-0.153 0.711-0.424 0.968s-0.64 0.401-1.024 0.401c-0.384 0-0.752-0.144-1.024-0.401s-0.424-0.605-0.424-0.968c0-0.363 0.153-0.711 0.424-0.968s0.64-0.401 1.024-0.401c0.384 0 0.752 0.144 1.024 0.401s0.424 0.605 0.424 0.968z"></path>
</symbol>

<symbol id="icon-Download-icon" viewBox="0 0 32 32">
<path fill="#fff" style="fill: var(--color1, #fff)" d="M16 24.176l-8.089-8.087 1.618-1.646 5.328 5.328v-19.771h2.286v19.771l5.326-5.326 1.621 1.643-8.089 8.087zM3.694 32c-1.053 0-1.931-0.352-2.635-1.056s-1.057-1.583-1.058-2.638v-5.538h2.286v5.538c0 0.352 0.146 0.675 0.439 0.969s0.615 0.44 0.967 0.439h24.617c0.351 0 0.673-0.146 0.967-0.439s0.44-0.616 0.439-0.969v-5.538h2.286v5.538c0 1.053-0.352 1.931-1.056 2.635s-1.583 1.057-2.638 1.058h-24.613z"></path>
</symbol>

<symbol id="icon-Star-icon" viewBox="0 0 32 32">
<path fill="#fff" style="fill: var(--color1, #fff)" d="M31.894 12.053c-0.125-0.409-0.365-0.77-0.69-1.036s-0.719-0.424-1.131-0.454l-8.763-0.735-3.377-8.484c-0.158-0.398-0.425-0.738-0.77-0.977s-0.749-0.367-1.163-0.367c-0.414 0-0.819 0.128-1.163 0.367s-0.612 0.579-0.77 0.977l-3.377 8.481-8.763 0.738c-0.413 0.030-0.807 0.189-1.132 0.456s-0.565 0.628-0.689 1.038c-0.129 0.409-0.139 0.848-0.029 1.262s0.337 0.786 0.651 1.067l6.691 5.98-2.036 8.944c-0.096 0.419-0.069 0.857 0.075 1.26s0.401 0.753 0.738 1.004c0.332 0.255 0.731 0.401 1.144 0.417s0.821-0.098 1.171-0.326l7.491-4.779 7.502 4.787c0.35 0.229 0.758 0.342 1.171 0.326s0.811-0.161 1.144-0.417c0.336-0.252 0.593-0.601 0.738-1.004s0.171-0.842 0.075-1.26l-2.036-8.944 6.679-5.987c0.314-0.281 0.541-0.653 0.652-1.068s0.101-0.855-0.029-1.264zM30.129 13.015l-7.082 6.34c-0.121 0.108-0.211 0.249-0.26 0.406s-0.056 0.326-0.019 0.487l2.164 9.479c0.019 0.072 0.016 0.147-0.009 0.217s-0.070 0.129-0.129 0.171c-0.054 0.043-0.119 0.068-0.187 0.070s-0.135-0.017-0.191-0.055l-7.959-5.075c-0.137-0.088-0.296-0.134-0.457-0.134s-0.319 0.046-0.457 0.134l-7.959 5.074c-0.057 0.039-0.124 0.058-0.191 0.055s-0.133-0.027-0.187-0.070c-0.061-0.041-0.107-0.1-0.133-0.169s-0.030-0.146-0.012-0.218l2.164-9.479c0.037-0.161 0.030-0.33-0.019-0.487s-0.139-0.298-0.26-0.406l-7.082-6.34c-0.056-0.047-0.096-0.111-0.115-0.182s-0.016-0.148 0.008-0.218c0.019-0.069 0.058-0.13 0.112-0.175s0.12-0.071 0.189-0.075l9.297-0.779c0.16-0.014 0.314-0.073 0.444-0.171s0.231-0.232 0.292-0.386l3.582-8.997c0.025-0.067 0.069-0.124 0.126-0.164s0.124-0.062 0.193-0.062c0.069 0 0.136 0.022 0.193 0.062s0.101 0.098 0.126 0.164l3.582 8.997c0.061 0.154 0.163 0.288 0.292 0.386s0.283 0.157 0.444 0.171l9.297 0.779c0.069 0.004 0.135 0.030 0.189 0.075s0.093 0.106 0.112 0.175c0.026 0.069 0.030 0.145 0.012 0.217s-0.057 0.136-0.111 0.184z"></path>
</symbol>
</defs>
</svg>
