<svg aria-hidden="true" style="position: absolute; width: 0; height: 0; overflow: hidden;" version="1.1" xmlns="http://www.w3.org/2000/svg" xmlns:xlink="http://www.w3.org/1999/xlink">
<defs>
<symbol id="icon-close" viewBox="0 0 31 32">
<path d="M12.222 11.661c0.294-0.246 0.731-0.208 0.978 0.085l2.527 3.012 3.012-2.527c0.294-0.246 0.731-0.208 0.978 0.086s0.208 0.731-0.086 0.978l-3.012 2.527 2.527 3.012c0.246 0.294 0.208 0.731-0.085 0.978s-0.731 0.208-0.978-0.086l-2.527-3.012-3.012 2.527c-0.294 0.246-0.731 0.208-0.977-0.085s-0.208-0.731 0.085-0.978l3.012-2.527-2.527-3.012c-0.246-0.294-0.208-0.731 0.086-0.978z"></path>
</symbol>
<symbol id="icon-burger_menu" viewBox="0 0 60 32">
<path d="M12.222 11.661c0.294-0.246 0.731-0.208 0.978 0.085l2.527 3.012 3.012-2.527c0.294-0.246 0.731-0.208 0.978 0.086s0.208 0.731-0.086 0.978l-3.012 2.527 2.527 3.012c0.246 0.294 0.208 0.731-0.085 0.978s-0.731 0.208-0.978-0.086l-2.527-3.012-3.012 2.527c-0.294 0.246-0.731 0.208-0.977-0.085s-0.208-0.731 0.085-0.978l3.012-2.527-2.527-3.012c-0.246-0.294-0.208-0.731 0.086-0.978z"></path>
</symbol>
<symbol id="icon-warning" viewBox="0 0 32 32">
<path fill="#f2a600" style="fill: var(--color1, #f2a600)" d="M14.29 2.105l-13 26c-0.485 1.005-0.065 2.213 0.938 2.698 0.27 0.13 0.563 0.2 0.862 0.203h26c1.115-0.010 2.013-0.922 2.003-2.038-0.003-0.299-0.072-0.593-0.203-0.863l-13-26c-0.168-0.333-0.426-0.613-0.743-0.808s-0.684-0.299-1.057-0.299c-0.373 0-0.739 0.103-1.057 0.299s-0.575 0.475-0.743 0.808z"></path>
<path fill="#ffcc32" style="fill: var(--color2, #ffcc32)" d="M13.39 3.93l-12.2 24.35c-0.458 0.943-0.063 2.078 0.88 2.535 0.248 0.12 0.52 0.185 0.795 0.19h24.375c0.248-0.002 0.493-0.053 0.721-0.15s0.435-0.238 0.609-0.415c0.174-0.177 0.311-0.386 0.404-0.616s0.139-0.476 0.137-0.724c-0.003-0.284-0.070-0.565-0.195-0.82l-12.175-24.35c-0.214-0.444-0.596-0.785-1.062-0.947s-0.976-0.134-1.421 0.080c-0.378 0.183-0.684 0.489-0.867 0.868z"></path>
<path fill="#424242" style="fill: var(--color3, #424242)" opacity="0.2" d="M16.090 8.505c1.15 0 2.075 0.925 2 2l-0.85 12c-0.095 0.635-0.685 1.075-1.32 0.98-0.247-0.036-0.476-0.151-0.652-0.328s-0.291-0.405-0.328-0.652l-0.85-12c-0.075-1.075 0.85-2 2-2zM16.090 24.505c0.828 0 1.5 0.672 1.5 1.5s-0.672 1.5-1.5 1.5c-0.827 0-1.5-0.672-1.5-1.5s0.672-1.5 1.5-1.5z"></path>
<path fill="#000" style="fill: var(--color4, #000)" d="M16.090 8.505c1.15 0 2.075 0.925 2 2l-0.85 12c-0.095 0.635-0.685 1.075-1.32 0.98-0.247-0.036-0.476-0.151-0.652-0.328s-0.291-0.405-0.328-0.652l-0.85-12c-0.075-1.075 0.85-2 2-2z"></path>
<path fill="#000" style="fill: var(--color4, #000)" d="M16.090 27.505c0.828 0 1.5-0.672 1.5-1.5s-0.672-1.5-1.5-1.5c-0.828 0-1.5 0.672-1.5 1.5s0.672 1.5 1.5 1.5z"></path>
<path fill="#fff170" style="fill: var(--color5, #fff170)" d="M13.39 5.755c-0.3 0.375-5.35 10.25-5.35 10.25s-0.45 0.75 0.175 1.175c0.575 0.4 1.1-0.075 1.325-0.45s4.8-9.225 4.975-9.65c0.15-0.468 0.045-0.978-0.275-1.35-0.325-0.3-0.65-0.25-0.85 0.025z"></path>
<path fill="#fff170" style="fill: var(--color5, #fff170)" d="M7.84 19.657c0.456 0 0.825-0.369 0.825-0.825s-0.369-0.825-0.825-0.825c-0.456 0-0.825 0.369-0.825 0.825s0.369 0.825 0.825 0.825z"></path>
</symbol>
<symbol id="icon-arrow_next" viewBox="0 0 32 32">
<path fill="#58e31c" style="fill: var(--color6, #58e31c)" d="M29.541 14.076c-1.357-0.683-3.145-2.114-3.488-2.798-0.348-0.697-0.844-0.855-0.906-0.287-0.11 1.016-0.088 1.775-0.090 1.844-0.416 0.066-1.108 1.102-3.185-0.788-1.457-1.329-2.144-1.186-4.015 0.843-1.508 1.632-2.009 2.245-4.848 0.297-2.462-1.689-3.587-1.992-5.425-1.472-2.842 0.811-4.479 3.301-2.034 3.093 0.495-0.038 2.237-0.162 2.237-0.162l-0.307 0.334c-1.288 1.412-2.536 3.564-2.794 4.637-0.175 0.728 0.213 1.259 1.374 0.013 1.258-1.351 2.908-2.29 4.121-2.355 0.581-0.029 0.531-0.040 3.974 0.967 2.128 0.626 3 0.31 5.086-1.83 0.716-0.732 1.068-1.059 1.189-1.107 0.607-0.217 0.881-0.167 1.753 0.29 0.677 0.358 1.509 0.594 2.059 0.589l0.464-0.005 0.051 0.794c0.119 1.833 0.49 2.156 1.371 1.197 0.701-0.763 1.922-1.612 3.775-2.62 0.959-0.535 0.88-0.854-0.361-1.475zM26.008 16.733c-0.471 0.438-0.49 0.43-0.482-0.126 0.022-1.053-0.205-1.305-1.161-1.321-0.883-0.010-1.484-0.158-2.368-0.583-1.684-0.808-1.987-0.734-3.554 0.87-2.275 2.326-2.795 2.402-6.952 1.022-2.951-0.977-4.702 1.082-4.35 0.509 0.224-0.366 0.741-1.052 1.326-1.746 1.149-1.364 0.418-1.701-1.34-1.636-0.618 0.022-1.109 0.019-1.083-0.010 0.158-0.172 0.983-0.636 1.45-0.824 3.402-1.326 4.948 0.841 6.3 1.538 2.773 1.878 3.459 0.291 5.763-1.832 0.943-0.867 1.338-0.75 2.279 0.114 1.429 1.312 2.355 1.635 3.482 1.201 0.588-0.225 0.627-0.268 0.576-0.561-0.051-0.284 0.005-1.024 0.030-1.335 4.090 3.756 3.113 2.243 3.293 2.68 0.015 0.031-2.332 1.227-3.208 2.041z"></path>
</symbol>
<symbol id="icon-arrow_prev" viewBox="0 0 32 32">
<path fill="#58e31c" style="fill: var(--color6, #58e31c)" d="M2.643 17.371c1.307 0.729 3.007 2.213 3.316 2.901 0.313 0.701 0.795 0.877 0.88 0.321 0.151-0.996 0.161-1.744 0.166-1.811 0.412-0.048 1.137-1.039 3.102 0.909 1.379 1.37 2.060 1.257 3.987-0.661 1.553-1.544 2.072-2.125 4.785-0.089 2.352 1.766 3.447 2.111 5.278 1.677 2.832-0.68 4.547-3.062 2.132-2.959-0.488 0.017-2.209 0.066-2.209 0.066l0.316-0.316c1.327-1.336 2.646-3.402 2.945-4.448 0.202-0.709-0.157-1.249-1.352-0.071-1.295 1.277-2.959 2.132-4.155 2.145-0.573 0.004-0.524 0.017-3.871-1.118-2.069-0.706-2.94-0.431-5.083 1.588-0.735 0.691-1.096 0.998-1.217 1.039-0.606 0.188-0.874 0.127-1.713-0.359-0.651-0.38-1.46-0.648-2.002-0.666l-0.457-0.015-0.017-0.784c-0.040-1.81-0.392-2.143-1.299-1.236-0.722 0.722-1.96 1.506-3.826 2.421-0.967 0.487-0.902 0.804 0.294 1.467zM6.232 14.903c0.482-0.411 0.5-0.402 0.469 0.144-0.066 1.035 0.147 1.294 1.088 1.349 0.869 0.047 1.454 0.218 2.307 0.673 1.624 0.866 1.925 0.806 3.535-0.707 2.337-2.194 2.852-2.248 6.886-0.714 2.864 1.085 4.674-0.868 4.303-0.319-0.236 0.351-0.773 1.005-1.379 1.663-1.188 1.295-0.483 1.657 1.251 1.666 0.609 0.004 1.093 0.028 1.066 0.055-0.162 0.162-0.994 0.585-1.462 0.75-3.404 1.163-4.835-1.035-6.138-1.778-2.651-1.965-3.393-0.432-5.75 1.561-0.965 0.814-1.349 0.682-2.238-0.207-1.352-1.352-2.25-1.708-3.377-1.328-0.588 0.197-0.629 0.238-0.591 0.529 0.038 0.282-0.048 1.008-0.086 1.313-3.869-3.869-2.971-2.339-3.129-2.777-0.013-0.031 2.347-1.11 3.244-1.874z"></path>
</symbol>
<symbol id="icon-stars_four" viewBox="0 0 203 32">
<path fill="#8e381e" style="fill: var(--color7, #8e381e)" d="M31.854 12.001c-0.185-0.587-0.532-1.103-0.997-1.483s-1.027-0.607-1.615-0.653l-7.268-0.608c-0.095-0.008-0.187-0.044-0.264-0.103s-0.138-0.139-0.175-0.231l-2.785-7.011c-0.227-0.567-0.609-1.052-1.098-1.392s-1.063-0.521-1.65-0.52c-0.588-0.002-1.163 0.179-1.653 0.519s-0.873 0.825-1.101 1.393l-2.801 7.011c-0.037 0.092-0.097 0.173-0.175 0.231s-0.169 0.094-0.264 0.103l-7.268 0.602c-0.585 0.045-1.144 0.271-1.605 0.65s-0.806 0.893-0.988 1.477c-0.183 0.584-0.195 1.212-0.037 1.804s0.481 1.121 0.927 1.52l5.538 4.93c0.074 0.066 0.128 0.152 0.158 0.249s0.033 0.2 0.010 0.299l-1.714 7.384c-0.139 0.597-0.104 1.224 0.1 1.8s0.568 1.075 1.044 1.432c0.477 0.362 1.046 0.568 1.634 0.592s1.171-0.134 1.673-0.455l6.218-3.955c0.079-0.048 0.17-0.073 0.261-0.073s0.182 0.025 0.261 0.073l6.223 3.96c0.502 0.319 1.084 0.477 1.671 0.452s1.155-0.229 1.631-0.589c0.477-0.357 0.84-0.856 1.044-1.432s0.239-1.203 0.1-1.8l-1.641-7.384c-0.023-0.099-0.020-0.202 0.010-0.299s0.084-0.183 0.158-0.249l5.538-4.93c0.448-0.395 0.773-0.922 0.933-1.513s0.148-1.218-0.034-1.801z"></path>
<path fill="#f4ee72" style="fill: var(--color8, #f4ee72)" d="M23.128 30.307l-6.218-3.988c-0.275-0.177-0.591-0.271-0.914-0.271s-0.639 0.094-0.914 0.271l-6.223 3.982c-0.296 0.186-0.637 0.276-0.981 0.26s-0.676-0.138-0.955-0.351c-0.278-0.213-0.491-0.506-0.612-0.845s-0.143-0.706-0.066-1.058l1.693-7.433c0.076-0.328 0.064-0.673-0.034-0.995s-0.28-0.609-0.525-0.829l-5.538-4.968c-0.261-0.237-0.45-0.55-0.543-0.899s-0.085-0.719 0.022-1.064c0.107-0.345 0.309-0.648 0.58-0.873s0.599-0.361 0.944-0.391l7.263-0.608c0.322-0.027 0.63-0.146 0.891-0.346s0.464-0.47 0.588-0.783l2.795-7.055c0.132-0.335 0.357-0.622 0.645-0.824s0.626-0.309 0.972-0.309 0.685 0.108 0.972 0.309c0.288 0.202 0.512 0.488 0.645 0.824l2.801 7.061c0.127 0.307 0.333 0.571 0.593 0.765s0.567 0.308 0.885 0.331l7.263 0.613c0.345 0.028 0.675 0.164 0.947 0.389s0.474 0.529 0.581 0.875c0.107 0.345 0.114 0.716 0.019 1.066s-0.285 0.662-0.549 0.897l-5.533 4.995c-0.246 0.22-0.429 0.506-0.53 0.828s-0.114 0.666-0.040 0.996l1.693 7.433c0.079 0.353 0.056 0.722-0.064 1.061s-0.334 0.634-0.613 0.847c-0.279 0.213-0.613 0.335-0.958 0.35s-0.687-0.076-0.982-0.264z"></path>
<path fill="#f58220" style="fill: var(--color9, #f58220)" d="M23.384 23.394c-2.79-3.489-7.425-7.592-7.425-7.592s-5.183 4.146-7.346 7.362c-1.321 2.011-1.994 4.412-1.918 6.852 0.275 0.3 0.64 0.491 1.034 0.543s0.792-0.039 1.13-0.258l6.223-3.982c0.275-0.177 0.591-0.271 0.914-0.271s0.639 0.094 0.914 0.271l6.218 3.988c0.391 0.252 0.861 0.332 1.307 0.223s0.835-0.397 1.080-0.804c-0.020-2.3-0.77-4.528-2.132-6.332z"></path>
<path fill="#fcd01e" style="fill: var(--color10, #fcd01e)" d="M15.96 0.937c-0.338 0.006-0.667 0.117-0.945 0.317s-0.495 0.483-0.622 0.811l-2.801 7.055c-0.123 0.313-0.327 0.584-0.588 0.783s-0.569 0.319-0.891 0.346l-7.263 0.608c-0.431 0.033-0.836 0.232-1.134 0.56s-0.47 0.761-0.48 1.214c1.317 0.389 2.774 0.712 3.992 1.041 3.626 0.981 10.742 2.131 10.742 2.131l-0.010-14.866z"></path>
<path fill="#f58220" style="fill: var(--color9, #f58220)" d="M25.756 28.308c0.071 0.301 0.067 0.617-0.012 0.916s-0.229 0.572-0.437 0.793c-0.618-2.186-1.544-4.263-2.748-6.162-2.278-3.402-6.557-8.096-6.557-8.096s3.584-2.054 6.792-2.7c3.208-0.646 7.879-1.024 7.879-1.024 0.127 0.356 0.146 0.745 0.052 1.112s-0.295 0.695-0.574 0.937l-5.533 4.968c-0.246 0.22-0.429 0.506-0.528 0.828s-0.112 0.667-0.036 0.996l1.703 7.433z"></path>
<path fill="#fcd01e" style="fill: var(--color10, #fcd01e)" d="M22.559 23.854c-2.153-3.204-6.108-7.564-6.521-8.052 5.617 0.915 7.921 3.686 7.921 3.686l0.172 0.307c-0.132 0.348-0.157 0.731-0.073 1.095l1.698 7.433c0.071 0.302 0.067 0.618-0.013 0.917s-0.232 0.572-0.442 0.792c-0.612-2.193-1.537-4.276-2.743-6.179z"></path>
<path fill="#f58220" style="fill: var(--color9, #f58220)" d="M6.241 28.308c-0.071 0.302-0.067 0.618 0.013 0.917s0.232 0.572 0.442 0.792c0.614-2.187 1.538-4.264 2.743-6.162 2.278-3.402 6.562-8.096 6.562-8.096s-3.579-2.054-6.792-2.7c-3.213-0.646-7.837-1.024-7.837-1.024-0.133 0.352-0.157 0.74-0.068 1.107s0.284 0.697 0.56 0.942l5.538 4.968c0.244 0.221 0.426 0.508 0.525 0.829s0.111 0.666 0.034 0.995l-1.719 7.433z"></path>
<path fill="#fbae1a" style="fill: var(--color11, #fbae1a)" d="M9.439 23.854c2.147-3.204 6.103-7.564 6.521-8.052-5.622 0.915-7.921 3.686-7.921 3.686l-0.172 0.307c0.13 0.349 0.154 0.732 0.068 1.095l-1.693 7.433c-0.071 0.302-0.067 0.618 0.013 0.917s0.232 0.572 0.442 0.792c0.612-2.193 1.537-4.276 2.743-6.179z"></path>
<path fill="#f4ee72" style="fill: var(--color8, #f4ee72)" d="M6.983 29.085c1.117-2.691 2.61-5.192 4.431-7.422 2.921-3.549 4.582-5.297 4.582-5.297 2.414 2.398 4.551 5.084 6.369 8.003 2.482 4.229 2.842 5.335 2.842 5.335-0.824-2.707-1.956-5.3-3.37-7.723-1.523-2.564-3.348-4.916-5.434-7l-1.197 0.389c0 0-7.221 8.068-8.224 13.716z"></path>
<path fill="#fcd01e" style="fill: var(--color10, #fcd01e)" d="M16.419 14.986l-1.196 0.389c0 0-7.236 8.063-8.24 13.71 1.117-2.691 2.61-5.193 4.431-7.422 2.921-3.549 4.582-5.297 4.582-5.297l0.423-1.38z"></path>
<path fill="#fff" style="fill: var(--color12, #fff)" d="M1.743 12.067c0 0 3.067 0.104 7.127 0.548 2.218 0.177 4.386 0.781 6.395 1.78 0 0 0.266-5.576 0.481-8.819s0.214-4.075 0.214-4.075 0.361 8.392 0.444 10.55c0.084 2.158 0.319 2.344 0.319 2.344l-0.763 1.424c0 0-3.349-2.536-14.217-3.752z"></path>
<path fill="#fff" style="fill: var(--color12, #fff)" d="M30.683 12.138c0.002 0.022 0.002 0.044 0 0.066 0.002-0.022 0.002-0.044 0-0.066z"></path>
<path fill="#fff" style="fill: var(--color12, #fff)" d="M30.631 12.034c-0.114-0.325-0.315-0.609-0.579-0.817s-0.58-0.331-0.91-0.356l-7.263-0.614c-0.358-0.029-0.697-0.174-0.972-0.416 0 0-2.555 1.096-4.932 5.916 0 0 3.584-2.054 6.792-2.7s7.675-0.997 7.863-1.013z"></path>
<path fill="#fff" style="fill: var(--color12, #fff)" d="M30.756 12.494c0.002 0.011 0.002 0.022 0 0.033 0.002-0.011 0.002-0.022 0-0.033z"></path>
<path fill="#8e381e" style="fill: var(--color7, #8e381e)" d="M18.347 16.328l5.669 3.999c0.014-0.244 0.075-0.482 0.179-0.7s0.249-0.412 0.427-0.571l0.266-0.241c-0.753-0.564-1.571-1.026-2.435-1.375-1.321-0.543-2.7-0.917-4.107-1.112z"></path>
<path fill="#8e381e" style="fill: var(--color7, #8e381e)" d="M16.79 26.259c-0.158-0.302-0.283-0.622-0.371-0.953-0.136-0.581-0.324-7.345-0.324-7.345s-0.157 6.184-0.272 7.192c-0.011 0.203-0.063 0.402-0.153 0.582s-0.216 0.339-0.369 0.464c0.237-0.107 0.493-0.158 0.751-0.147s0.51 0.081 0.738 0.208z"></path>
<path fill="#8e381e" style="fill: var(--color7, #8e381e)" d="M74.521 12.001c-0.185-0.587-0.533-1.103-0.997-1.483s-1.027-0.607-1.615-0.653l-7.268-0.608c-0.095-0.008-0.187-0.044-0.264-0.103s-0.138-0.139-0.175-0.231l-2.785-7.011c-0.227-0.567-0.609-1.052-1.098-1.392s-1.063-0.521-1.65-0.52c-0.588-0.002-1.163 0.179-1.653 0.519s-0.873 0.825-1.101 1.393l-2.801 7.011c-0.037 0.092-0.097 0.173-0.175 0.231s-0.169 0.094-0.264 0.103l-7.268 0.602c-0.585 0.045-1.144 0.271-1.605 0.65s-0.806 0.893-0.988 1.477c-0.183 0.584-0.195 1.212-0.037 1.804s0.481 1.121 0.927 1.52l5.538 4.93c0.074 0.066 0.128 0.152 0.158 0.249s0.033 0.2 0.010 0.299l-1.714 7.384c-0.139 0.597-0.104 1.224 0.1 1.8s0.568 1.075 1.044 1.432c0.477 0.362 1.046 0.568 1.634 0.592s1.171-0.134 1.673-0.455l6.218-3.955c0.079-0.048 0.17-0.073 0.261-0.073s0.182 0.025 0.261 0.073l6.223 3.96c0.502 0.319 1.084 0.477 1.671 0.452s1.155-0.229 1.631-0.589c0.477-0.357 0.84-0.856 1.044-1.432s0.239-1.203 0.1-1.8l-1.641-7.384c-0.023-0.099-0.020-0.202 0.010-0.299s0.084-0.183 0.157-0.249l5.539-4.93c0.448-0.395 0.773-0.922 0.933-1.513s0.148-1.218-0.034-1.801z"></path>
<path fill="#f4ee72" style="fill: var(--color8, #f4ee72)" d="M65.795 30.307l-6.218-3.988c-0.275-0.177-0.591-0.271-0.914-0.271s-0.639 0.094-0.914 0.271l-6.223 3.982c-0.296 0.186-0.637 0.276-0.981 0.26s-0.676-0.138-0.955-0.351c-0.278-0.213-0.491-0.506-0.612-0.845s-0.143-0.706-0.065-1.058l1.693-7.433c0.076-0.328 0.064-0.673-0.034-0.995s-0.28-0.609-0.525-0.829l-5.538-4.968c-0.261-0.237-0.45-0.55-0.543-0.899s-0.085-0.719 0.022-1.064c0.107-0.345 0.309-0.648 0.58-0.873s0.599-0.361 0.944-0.391l7.263-0.608c0.322-0.027 0.63-0.146 0.891-0.346s0.464-0.47 0.588-0.783l2.795-7.055c0.132-0.335 0.357-0.622 0.645-0.824s0.626-0.309 0.972-0.309 0.685 0.108 0.972 0.309c0.288 0.202 0.512 0.488 0.645 0.824l2.801 7.061c0.127 0.307 0.333 0.571 0.593 0.765s0.567 0.308 0.885 0.331l7.262 0.613c0.345 0.028 0.675 0.164 0.947 0.389s0.474 0.529 0.581 0.875c0.107 0.345 0.114 0.716 0.019 1.066s-0.285 0.662-0.549 0.897l-5.533 4.995c-0.246 0.22-0.429 0.506-0.53 0.828s-0.114 0.666-0.040 0.996l1.693 7.433c0.078 0.353 0.056 0.722-0.065 1.061s-0.334 0.634-0.613 0.847c-0.279 0.213-0.613 0.335-0.957 0.35s-0.687-0.076-0.983-0.264z"></path>
<path fill="#f58220" style="fill: var(--color9, #f58220)" d="M66.051 23.394c-2.79-3.489-7.425-7.592-7.425-7.592s-5.183 4.146-7.346 7.362c-1.321 2.011-1.993 4.412-1.918 6.852 0.275 0.3 0.64 0.491 1.034 0.543s0.792-0.039 1.13-0.258l6.223-3.982c0.275-0.177 0.591-0.271 0.914-0.271s0.639 0.094 0.914 0.271l6.218 3.988c0.391 0.252 0.861 0.332 1.308 0.223s0.835-0.397 1.080-0.804c-0.020-2.3-0.77-4.528-2.132-6.332z"></path>
<path fill="#fcd01e" style="fill: var(--color10, #fcd01e)" d="M58.626 0.937c-0.338 0.006-0.667 0.117-0.945 0.317s-0.495 0.483-0.622 0.811l-2.801 7.055c-0.123 0.313-0.327 0.584-0.588 0.783s-0.569 0.319-0.891 0.346l-7.263 0.608c-0.431 0.033-0.836 0.232-1.134 0.56s-0.47 0.761-0.48 1.214c1.317 0.389 2.774 0.712 3.992 1.041 3.626 0.981 10.742 2.131 10.742 2.131l-0.010-14.866z"></path>
<path fill="#f58220" style="fill: var(--color9, #f58220)" d="M68.423 28.308c0.071 0.301 0.067 0.617-0.012 0.916s-0.229 0.572-0.437 0.793c-0.618-2.186-1.545-4.263-2.748-6.162-2.278-3.402-6.557-8.096-6.557-8.096s3.584-2.054 6.792-2.7c3.208-0.646 7.879-1.024 7.879-1.024 0.127 0.356 0.145 0.745 0.051 1.112s-0.294 0.695-0.574 0.937l-5.533 4.968c-0.246 0.22-0.429 0.506-0.528 0.828s-0.112 0.667-0.036 0.996l1.703 7.433z"></path>
<path fill="#fcd01e" style="fill: var(--color10, #fcd01e)" d="M65.225 23.854c-2.153-3.204-6.108-7.564-6.521-8.052 5.617 0.915 7.921 3.686 7.921 3.686l0.172 0.307c-0.132 0.348-0.157 0.731-0.073 1.095l1.698 7.433c0.071 0.302 0.067 0.618-0.013 0.917s-0.232 0.572-0.442 0.792c-0.612-2.193-1.537-4.276-2.743-6.179z"></path>
<path fill="#f58220" style="fill: var(--color9, #f58220)" d="M48.908 28.308c-0.071 0.302-0.067 0.618 0.013 0.917s0.232 0.572 0.442 0.792c0.614-2.187 1.538-4.264 2.743-6.162 2.278-3.402 6.562-8.096 6.562-8.096s-3.579-2.054-6.792-2.7c-3.213-0.646-7.837-1.024-7.837-1.024-0.133 0.352-0.157 0.74-0.068 1.107s0.284 0.697 0.56 0.942l5.538 4.968c0.244 0.221 0.426 0.508 0.525 0.829s0.111 0.666 0.034 0.995l-1.719 7.433z"></path>
<path fill="#fbae1a" style="fill: var(--color11, #fbae1a)" d="M52.105 23.854c2.147-3.204 6.103-7.564 6.521-8.052-5.622 0.915-7.921 3.686-7.921 3.686l-0.172 0.307c0.13 0.349 0.154 0.732 0.068 1.095l-1.693 7.433c-0.071 0.302-0.067 0.618 0.013 0.917s0.232 0.572 0.442 0.792c0.612-2.193 1.537-4.276 2.743-6.179z"></path>
<path fill="#f4ee72" style="fill: var(--color8, #f4ee72)" d="M49.65 29.085c1.117-2.691 2.61-5.192 4.431-7.422 2.921-3.549 4.582-5.297 4.582-5.297 2.414 2.398 4.551 5.084 6.369 8.003 2.482 4.229 2.842 5.335 2.842 5.335-0.825-2.707-1.956-5.3-3.37-7.723-1.523-2.564-3.348-4.916-5.434-7l-1.197 0.389c0 0-7.221 8.068-8.224 13.716z"></path>
<path fill="#fcd01e" style="fill: var(--color10, #fcd01e)" d="M59.086 14.986l-1.196 0.389c0 0-7.236 8.063-8.24 13.71 1.117-2.691 2.61-5.193 4.431-7.422 2.921-3.549 4.582-5.297 4.582-5.297l0.423-1.38z"></path>
<path fill="#fff" style="fill: var(--color12, #fff)" d="M44.41 12.067c0 0 3.067 0.104 7.127 0.548 2.218 0.177 4.386 0.781 6.395 1.78 0 0 0.266-5.576 0.481-8.819s0.214-4.075 0.214-4.075 0.361 8.392 0.444 10.55c0.084 2.158 0.319 2.344 0.319 2.344l-0.763 1.424c0 0-3.349-2.536-14.217-3.752z"></path>
<path fill="#fff" style="fill: var(--color12, #fff)" d="M73.35 12.138c0.003 0.022 0.003 0.044 0 0.066 0.003-0.022 0.003-0.044 0-0.066z"></path>
<path fill="#fff" style="fill: var(--color12, #fff)" d="M73.298 12.034c-0.114-0.325-0.315-0.609-0.58-0.817s-0.58-0.331-0.909-0.356l-7.263-0.614c-0.358-0.029-0.697-0.174-0.972-0.416 0 0-2.555 1.096-4.932 5.916 0 0 3.584-2.054 6.792-2.7s7.675-0.997 7.864-1.013z"></path>
<path fill="#fff" style="fill: var(--color12, #fff)" d="M73.423 12.494c0.002 0.011 0.002 0.022 0 0.033 0.002-0.011 0.002-0.022 0-0.033z"></path>
<path fill="#8e381e" style="fill: var(--color7, #8e381e)" d="M61.014 16.328l5.669 3.999c0.015-0.244 0.075-0.482 0.18-0.7s0.249-0.412 0.427-0.571l0.266-0.241c-0.753-0.564-1.571-1.026-2.435-1.375-1.321-0.543-2.7-0.917-4.107-1.112z"></path>
<path fill="#8e381e" style="fill: var(--color7, #8e381e)" d="M59.457 26.259c-0.158-0.302-0.283-0.622-0.371-0.953-0.136-0.581-0.324-7.345-0.324-7.345s-0.157 6.184-0.272 7.192c-0.011 0.203-0.063 0.402-0.153 0.582s-0.216 0.339-0.369 0.464c0.237-0.107 0.493-0.158 0.751-0.147s0.51 0.081 0.738 0.208z"></path>
<path fill="#8e381e" style="fill: var(--color7, #8e381e)" d="M117.187 12.001c-0.185-0.587-0.533-1.103-0.997-1.483s-1.027-0.607-1.615-0.653l-7.268-0.608c-0.095-0.008-0.187-0.044-0.264-0.103s-0.138-0.139-0.175-0.231l-2.785-7.011c-0.227-0.567-0.609-1.052-1.098-1.392s-1.063-0.521-1.651-0.52c-0.587-0.002-1.163 0.179-1.653 0.519s-0.873 0.825-1.101 1.393l-2.801 7.011c-0.037 0.092-0.097 0.173-0.175 0.231s-0.169 0.094-0.264 0.103l-7.268 0.602c-0.585 0.045-1.143 0.271-1.605 0.65s-0.806 0.893-0.989 1.477c-0.182 0.584-0.195 1.212-0.037 1.804s0.481 1.121 0.927 1.52l5.539 4.93c0.073 0.066 0.128 0.152 0.157 0.249s0.033 0.2 0.010 0.299l-1.714 7.384c-0.139 0.597-0.104 1.224 0.1 1.8s0.567 1.075 1.044 1.432c0.477 0.362 1.046 0.568 1.634 0.592s1.171-0.134 1.673-0.455l6.218-3.955c0.079-0.048 0.169-0.073 0.261-0.073s0.181 0.025 0.261 0.073l6.223 3.96c0.502 0.319 1.083 0.477 1.671 0.452s1.155-0.229 1.631-0.589c0.477-0.357 0.84-0.856 1.044-1.432s0.239-1.203 0.1-1.8l-1.641-7.384c-0.023-0.099-0.020-0.202 0.010-0.299s0.084-0.183 0.157-0.249l5.539-4.93c0.448-0.395 0.773-0.922 0.933-1.513s0.148-1.218-0.034-1.801z"></path>
<path fill="#f4ee72" style="fill: var(--color8, #f4ee72)" d="M108.461 30.307l-6.217-3.988c-0.275-0.177-0.592-0.271-0.915-0.271s-0.639 0.094-0.914 0.271l-6.223 3.982c-0.295 0.186-0.636 0.276-0.981 0.26s-0.676-0.138-0.955-0.351c-0.278-0.213-0.491-0.506-0.611-0.845s-0.143-0.706-0.065-1.058l1.693-7.433c0.076-0.328 0.064-0.673-0.035-0.995s-0.28-0.609-0.525-0.829l-5.538-4.968c-0.261-0.237-0.451-0.55-0.543-0.899s-0.085-0.719 0.023-1.064c0.107-0.345 0.309-0.648 0.58-0.873s0.599-0.361 0.944-0.391l7.263-0.608c0.321-0.027 0.63-0.146 0.891-0.346s0.465-0.47 0.587-0.783l2.795-7.055c0.133-0.335 0.357-0.622 0.645-0.824s0.627-0.309 0.973-0.309 0.685 0.108 0.973 0.309c0.288 0.202 0.512 0.488 0.645 0.824l2.801 7.061c0.127 0.307 0.332 0.571 0.593 0.765s0.567 0.308 0.886 0.331l7.262 0.613c0.345 0.028 0.675 0.164 0.947 0.389s0.474 0.529 0.581 0.875c0.107 0.345 0.114 0.716 0.019 1.066s-0.285 0.662-0.549 0.897l-5.533 4.995c-0.246 0.22-0.429 0.506-0.53 0.828s-0.114 0.666-0.040 0.996l1.693 7.433c0.078 0.353 0.056 0.722-0.065 1.061s-0.334 0.634-0.613 0.847c-0.279 0.213-0.613 0.335-0.957 0.35s-0.687-0.076-0.983-0.264z"></path>
<path fill="#f58220" style="fill: var(--color9, #f58220)" d="M108.717 23.394c-2.79-3.489-7.424-7.592-7.424-7.592s-5.183 4.146-7.347 7.362c-1.321 2.011-1.993 4.412-1.917 6.852 0.275 0.3 0.64 0.491 1.033 0.543s0.793-0.039 1.13-0.258l6.223-3.982c0.275-0.177 0.591-0.271 0.915-0.271s0.639 0.094 0.914 0.271l6.217 3.988c0.391 0.252 0.861 0.332 1.308 0.223s0.835-0.397 1.080-0.804c-0.020-2.3-0.77-4.528-2.132-6.332z"></path>
<path fill="#fcd01e" style="fill: var(--color10, #fcd01e)" d="M101.293 0.937c-0.338 0.006-0.667 0.117-0.945 0.317s-0.495 0.483-0.622 0.811l-2.801 7.055c-0.123 0.313-0.327 0.584-0.587 0.783s-0.569 0.319-0.891 0.346l-7.263 0.608c-0.431 0.033-0.835 0.232-1.134 0.56s-0.469 0.761-0.48 1.214c1.317 0.389 2.774 0.712 3.991 1.041 3.627 0.981 10.743 2.131 10.743 2.131l-0.011-14.866z"></path>
<path fill="#f58220" style="fill: var(--color9, #f58220)" d="M111.090 28.308c0.071 0.301 0.067 0.617-0.012 0.916s-0.229 0.572-0.437 0.793c-0.618-2.186-1.545-4.263-2.749-6.162-2.278-3.402-6.557-8.096-6.557-8.096s3.585-2.054 6.793-2.7c3.208-0.646 7.879-1.024 7.879-1.024 0.127 0.356 0.145 0.745 0.051 1.112s-0.294 0.695-0.574 0.937l-5.533 4.968c-0.246 0.22-0.429 0.506-0.528 0.828s-0.112 0.667-0.036 0.996l1.703 7.433z"></path>
<path fill="#fcd01e" style="fill: var(--color10, #fcd01e)" d="M107.892 23.854c-2.153-3.204-6.108-7.564-6.521-8.052 5.617 0.915 7.921 3.686 7.921 3.686l0.173 0.307c-0.132 0.348-0.157 0.731-0.073 1.095l1.698 7.433c0.071 0.302 0.067 0.618-0.013 0.917s-0.232 0.572-0.442 0.792c-0.612-2.193-1.537-4.276-2.743-6.179z"></path>
<path fill="#f58220" style="fill: var(--color9, #f58220)" d="M91.575 28.308c-0.071 0.302-0.067 0.618 0.013 0.917s0.232 0.572 0.442 0.792c0.613-2.187 1.538-4.264 2.743-6.162 2.278-3.402 6.563-8.096 6.563-8.096s-3.579-2.054-6.792-2.7c-3.213-0.646-7.837-1.024-7.837-1.024-0.133 0.352-0.157 0.74-0.069 1.107s0.284 0.697 0.559 0.942l5.539 4.968c0.244 0.221 0.426 0.508 0.525 0.829s0.111 0.666 0.034 0.995l-1.719 7.433z"></path>
<path fill="#fbae1a" style="fill: var(--color11, #fbae1a)" d="M94.772 23.854c2.147-3.204 6.103-7.564 6.521-8.052-5.622 0.915-7.921 3.686-7.921 3.686l-0.173 0.307c0.131 0.349 0.154 0.732 0.068 1.095l-1.693 7.433c-0.071 0.302-0.067 0.618 0.013 0.917s0.232 0.572 0.442 0.792c0.612-2.193 1.537-4.276 2.743-6.179z"></path>
<path fill="#f4ee72" style="fill: var(--color8, #f4ee72)" d="M92.317 29.085c1.117-2.691 2.61-5.192 4.431-7.422 2.921-3.549 4.582-5.297 4.582-5.297 2.414 2.398 4.551 5.084 6.369 8.003 2.481 4.229 2.842 5.335 2.842 5.335-0.825-2.707-1.956-5.3-3.37-7.723-1.523-2.564-3.348-4.916-5.434-7l-1.196 0.389c0 0-7.221 8.068-8.224 13.716z"></path>
<path fill="#fcd01e" style="fill: var(--color10, #fcd01e)" d="M101.753 14.986l-1.197 0.389c0 0-7.237 8.063-8.239 13.71 1.117-2.691 2.61-5.193 4.431-7.422 2.921-3.549 4.582-5.297 4.582-5.297l0.423-1.38z"></path>
<path fill="#fff" style="fill: var(--color12, #fff)" d="M87.077 12.067c0 0 3.067 0.104 7.127 0.548 2.217 0.177 4.385 0.781 6.395 1.78 0 0 0.267-5.576 0.481-8.819s0.215-4.075 0.215-4.075 0.361 8.392 0.444 10.55c0.083 2.158 0.319 2.344 0.319 2.344l-0.763 1.424c0 0-3.349-2.536-14.217-3.752z"></path>
<path fill="#fff" style="fill: var(--color12, #fff)" d="M116.017 12.138c0.003 0.022 0.003 0.044 0 0.066 0.003-0.022 0.003-0.044 0-0.066z"></path>
<path fill="#fff" style="fill: var(--color12, #fff)" d="M115.965 12.034c-0.114-0.325-0.315-0.609-0.58-0.817s-0.58-0.331-0.909-0.356l-7.263-0.614c-0.357-0.029-0.697-0.174-0.972-0.416 0 0-2.555 1.096-4.932 5.916 0 0 3.584-2.054 6.792-2.7s7.675-0.997 7.864-1.013z"></path>
<path fill="#fff" style="fill: var(--color12, #fff)" d="M116.090 12.494c0.002 0.011 0.002 0.022 0 0.033 0.002-0.011 0.002-0.022 0-0.033z"></path>
<path fill="#8e381e" style="fill: var(--color7, #8e381e)" d="M103.681 16.328l5.669 3.999c0.015-0.244 0.075-0.482 0.18-0.7s0.249-0.412 0.427-0.571l0.266-0.241c-0.753-0.564-1.571-1.026-2.435-1.375-1.321-0.543-2.7-0.917-4.107-1.112z"></path>
<path fill="#8e381e" style="fill: var(--color7, #8e381e)" d="M102.123 26.259c-0.158-0.302-0.283-0.622-0.371-0.953-0.136-0.581-0.324-7.345-0.324-7.345s-0.157 6.184-0.272 7.192c-0.011 0.203-0.063 0.402-0.153 0.582s-0.216 0.339-0.369 0.464c0.237-0.107 0.493-0.158 0.751-0.147s0.51 0.081 0.738 0.208z"></path>
<path fill="#8e381e" style="fill: var(--color7, #8e381e)" d="M159.854 12.001c-0.185-0.587-0.533-1.103-0.997-1.483s-1.027-0.607-1.615-0.653l-7.268-0.608c-0.095-0.008-0.187-0.044-0.264-0.103s-0.138-0.139-0.175-0.231l-2.785-7.011c-0.227-0.567-0.609-1.052-1.098-1.392s-1.063-0.521-1.651-0.52c-0.587-0.002-1.163 0.179-1.653 0.519s-0.873 0.825-1.101 1.393l-2.801 7.011c-0.037 0.092-0.097 0.173-0.175 0.231s-0.169 0.094-0.264 0.103l-7.268 0.602c-0.585 0.045-1.143 0.271-1.605 0.65s-0.806 0.893-0.989 1.477c-0.182 0.584-0.195 1.212-0.037 1.804s0.481 1.121 0.927 1.52l5.539 4.93c0.073 0.066 0.128 0.152 0.157 0.249s0.033 0.2 0.010 0.299l-1.714 7.384c-0.139 0.597-0.104 1.224 0.1 1.8s0.567 1.075 1.044 1.432c0.477 0.362 1.046 0.568 1.634 0.592s1.171-0.134 1.673-0.455l6.218-3.955c0.079-0.048 0.169-0.073 0.261-0.073s0.181 0.025 0.261 0.073l6.223 3.96c0.502 0.319 1.083 0.477 1.671 0.452s1.155-0.229 1.631-0.589c0.477-0.357 0.84-0.856 1.044-1.432s0.239-1.203 0.1-1.8l-1.641-7.384c-0.023-0.099-0.020-0.202 0.010-0.299s0.084-0.183 0.157-0.249l5.539-4.93c0.448-0.395 0.773-0.922 0.933-1.513s0.148-1.218-0.034-1.801z"></path>
<path fill="#f4ee72" style="fill: var(--color8, #f4ee72)" d="M151.128 30.307l-6.217-3.988c-0.275-0.177-0.592-0.271-0.915-0.271s-0.639 0.094-0.914 0.271l-6.223 3.982c-0.295 0.186-0.636 0.276-0.981 0.26s-0.676-0.138-0.955-0.351c-0.278-0.213-0.491-0.506-0.611-0.845s-0.143-0.706-0.065-1.058l1.693-7.433c0.076-0.328 0.064-0.673-0.035-0.995s-0.28-0.609-0.525-0.829l-5.538-4.968c-0.261-0.237-0.451-0.55-0.543-0.899s-0.085-0.719 0.023-1.064c0.107-0.345 0.309-0.648 0.58-0.873s0.599-0.361 0.944-0.391l7.263-0.608c0.321-0.027 0.63-0.146 0.891-0.346s0.465-0.47 0.587-0.783l2.795-7.055c0.133-0.335 0.357-0.622 0.645-0.824s0.627-0.309 0.973-0.309 0.685 0.108 0.973 0.309c0.288 0.202 0.512 0.488 0.645 0.824l2.801 7.061c0.127 0.307 0.332 0.571 0.593 0.765s0.567 0.308 0.886 0.331l7.262 0.613c0.345 0.028 0.675 0.164 0.947 0.389s0.474 0.529 0.581 0.875c0.107 0.345 0.114 0.716 0.019 1.066s-0.285 0.662-0.549 0.897l-5.533 4.995c-0.246 0.22-0.429 0.506-0.53 0.828s-0.114 0.666-0.040 0.996l1.693 7.433c0.078 0.353 0.056 0.722-0.065 1.061s-0.334 0.634-0.613 0.847c-0.279 0.213-0.613 0.335-0.957 0.35s-0.687-0.076-0.983-0.264z"></path>
<path fill="#f58220" style="fill: var(--color9, #f58220)" d="M151.384 23.394c-2.79-3.489-7.424-7.592-7.424-7.592s-5.183 4.146-7.347 7.362c-1.321 2.011-1.993 4.412-1.917 6.852 0.275 0.3 0.64 0.491 1.033 0.543s0.793-0.039 1.13-0.258l6.223-3.982c0.275-0.177 0.591-0.271 0.915-0.271s0.639 0.094 0.914 0.271l6.217 3.988c0.391 0.252 0.861 0.332 1.308 0.223s0.835-0.397 1.080-0.804c-0.020-2.3-0.77-4.528-2.132-6.332z"></path>
<path fill="#fcd01e" style="fill: var(--color10, #fcd01e)" d="M143.959 0.937c-0.338 0.006-0.667 0.117-0.945 0.317s-0.495 0.483-0.622 0.811l-2.801 7.055c-0.123 0.313-0.327 0.584-0.587 0.783s-0.569 0.319-0.891 0.346l-7.263 0.608c-0.431 0.033-0.835 0.232-1.134 0.56s-0.469 0.761-0.48 1.214c1.317 0.389 2.774 0.712 3.991 1.041 3.627 0.981 10.743 2.131 10.743 2.131l-0.011-14.866z"></path>
<path fill="#f58220" style="fill: var(--color9, #f58220)" d="M153.757 28.308c0.071 0.301 0.067 0.617-0.012 0.916s-0.229 0.572-0.437 0.793c-0.618-2.186-1.545-4.263-2.749-6.162-2.278-3.402-6.557-8.096-6.557-8.096s3.585-2.054 6.793-2.7c3.208-0.646 7.879-1.024 7.879-1.024 0.127 0.356 0.145 0.745 0.051 1.112s-0.294 0.695-0.574 0.937l-5.533 4.968c-0.246 0.22-0.429 0.506-0.528 0.828s-0.112 0.667-0.036 0.996l1.703 7.433z"></path>
<path fill="#fcd01e" style="fill: var(--color10, #fcd01e)" d="M150.559 23.854c-2.153-3.204-6.108-7.564-6.521-8.052 5.617 0.915 7.921 3.686 7.921 3.686l0.173 0.307c-0.132 0.348-0.157 0.731-0.073 1.095l1.698 7.433c0.071 0.302 0.067 0.618-0.013 0.917s-0.232 0.572-0.442 0.792c-0.612-2.193-1.537-4.276-2.743-6.179z"></path>
<path fill="#f58220" style="fill: var(--color9, #f58220)" d="M134.241 28.308c-0.071 0.302-0.067 0.618 0.013 0.917s0.232 0.572 0.442 0.792c0.613-2.187 1.538-4.264 2.743-6.162 2.278-3.402 6.563-8.096 6.563-8.096s-3.579-2.054-6.792-2.7c-3.213-0.646-7.837-1.024-7.837-1.024-0.133 0.352-0.157 0.74-0.069 1.107s0.284 0.697 0.559 0.942l5.539 4.968c0.244 0.221 0.426 0.508 0.525 0.829s0.111 0.666 0.034 0.995l-1.719 7.433z"></path>
<path fill="#fbae1a" style="fill: var(--color11, #fbae1a)" d="M137.439 23.854c2.147-3.204 6.103-7.564 6.521-8.052-5.622 0.915-7.921 3.686-7.921 3.686l-0.173 0.307c0.131 0.349 0.154 0.732 0.068 1.095l-1.693 7.433c-0.071 0.302-0.067 0.618 0.013 0.917s0.232 0.572 0.442 0.792c0.612-2.193 1.537-4.276 2.743-6.179z"></path>
<path fill="#f4ee72" style="fill: var(--color8, #f4ee72)" d="M134.983 29.085c1.117-2.691 2.61-5.192 4.431-7.422 2.921-3.549 4.582-5.297 4.582-5.297 2.414 2.398 4.551 5.084 6.369 8.003 2.481 4.229 2.842 5.335 2.842 5.335-0.825-2.707-1.956-5.3-3.37-7.723-1.523-2.564-3.348-4.916-5.434-7l-1.196 0.389c0 0-7.221 8.068-8.224 13.716z"></path>
<path fill="#fcd01e" style="fill: var(--color10, #fcd01e)" d="M144.419 14.986l-1.197 0.389c0 0-7.237 8.063-8.239 13.71 1.117-2.691 2.61-5.193 4.431-7.422 2.921-3.549 4.582-5.297 4.582-5.297l0.423-1.38z"></path>
<path fill="#fff" style="fill: var(--color12, #fff)" d="M129.743 12.067c0 0 3.067 0.104 7.127 0.548 2.217 0.177 4.385 0.781 6.395 1.78 0 0 0.267-5.576 0.481-8.819s0.215-4.075 0.215-4.075 0.361 8.392 0.444 10.55c0.083 2.158 0.319 2.344 0.319 2.344l-0.763 1.424c0 0-3.349-2.536-14.217-3.752z"></path>
<path fill="#fff" style="fill: var(--color12, #fff)" d="M158.683 12.138c0.003 0.022 0.003 0.044 0 0.066 0.003-0.022 0.003-0.044 0-0.066z"></path>
<path fill="#fff" style="fill: var(--color12, #fff)" d="M158.631 12.034c-0.114-0.325-0.315-0.609-0.58-0.817s-0.58-0.331-0.909-0.356l-7.263-0.614c-0.357-0.029-0.697-0.174-0.972-0.416 0 0-2.555 1.096-4.932 5.916 0 0 3.584-2.054 6.792-2.7s7.675-0.997 7.864-1.013z"></path>
<path fill="#fff" style="fill: var(--color12, #fff)" d="M158.757 12.494c0.002 0.011 0.002 0.022 0 0.033 0.002-0.011 0.002-0.022 0-0.033z"></path>
<path fill="#8e381e" style="fill: var(--color7, #8e381e)" d="M146.347 16.328l5.669 3.999c0.015-0.244 0.075-0.482 0.18-0.7s0.249-0.412 0.427-0.571l0.266-0.241c-0.753-0.564-1.571-1.026-2.435-1.375-1.321-0.543-2.7-0.917-4.107-1.112z"></path>
<path fill="#8e381e" style="fill: var(--color7, #8e381e)" d="M144.79 26.259c-0.158-0.302-0.283-0.622-0.371-0.953-0.136-0.581-0.324-7.345-0.324-7.345s-0.157 6.184-0.272 7.192c-0.011 0.203-0.063 0.402-0.153 0.582s-0.216 0.339-0.369 0.464c0.237-0.107 0.493-0.158 0.751-0.147s0.51 0.081 0.738 0.208z"></path>
<path fill="#000" style="fill: var(--color4, #000)" d="M202.521 12.001c-0.185-0.587-0.533-1.103-0.997-1.483s-1.027-0.607-1.615-0.653l-7.268-0.608c-0.095-0.008-0.187-0.044-0.264-0.103s-0.138-0.139-0.175-0.231l-2.785-7.011c-0.227-0.567-0.609-1.052-1.098-1.392s-1.063-0.521-1.651-0.52c-0.587-0.002-1.163 0.179-1.653 0.519s-0.873 0.825-1.101 1.393l-2.801 7.011c-0.037 0.092-0.097 0.173-0.175 0.231s-0.169 0.094-0.264 0.103l-7.268 0.602c-0.585 0.045-1.143 0.271-1.605 0.65s-0.806 0.893-0.989 1.477c-0.182 0.584-0.195 1.212-0.037 1.804s0.481 1.121 0.927 1.52l5.539 4.93c0.073 0.066 0.128 0.152 0.157 0.249s0.033 0.2 0.010 0.299l-1.714 7.384c-0.139 0.597-0.104 1.224 0.1 1.8s0.567 1.075 1.044 1.432c0.477 0.362 1.046 0.568 1.634 0.592s1.171-0.134 1.673-0.455l6.218-3.955c0.079-0.048 0.169-0.073 0.261-0.073s0.181 0.025 0.261 0.073l6.223 3.96c0.502 0.319 1.083 0.477 1.671 0.452s1.155-0.229 1.631-0.589c0.477-0.357 0.84-0.856 1.044-1.432s0.239-1.203 0.1-1.8l-1.641-7.384c-0.023-0.099-0.020-0.202 0.010-0.299s0.084-0.183 0.157-0.249l5.539-4.93c0.448-0.395 0.773-0.922 0.933-1.513s0.148-1.218-0.034-1.801z"></path>
<path fill="#000" style="fill: var(--color4, #000)" d="M193.795 30.307l-6.217-3.988c-0.275-0.177-0.592-0.271-0.915-0.271s-0.639 0.094-0.914 0.271l-6.223 3.982c-0.295 0.186-0.636 0.276-0.981 0.26s-0.676-0.138-0.955-0.351c-0.278-0.213-0.491-0.506-0.611-0.845s-0.143-0.706-0.065-1.058l1.693-7.433c0.076-0.328 0.064-0.673-0.035-0.995s-0.28-0.609-0.525-0.829l-5.538-4.968c-0.261-0.237-0.451-0.55-0.543-0.899s-0.085-0.719 0.023-1.064c0.107-0.345 0.309-0.648 0.58-0.873s0.599-0.361 0.944-0.391l7.263-0.608c0.321-0.027 0.63-0.146 0.891-0.346s0.465-0.47 0.587-0.783l2.795-7.055c0.133-0.335 0.357-0.622 0.645-0.824s0.627-0.309 0.973-0.309 0.685 0.108 0.973 0.309c0.288 0.202 0.512 0.488 0.645 0.824l2.801 7.061c0.127 0.307 0.332 0.571 0.593 0.765s0.567 0.308 0.886 0.331l7.262 0.613c0.345 0.028 0.675 0.164 0.947 0.389s0.474 0.529 0.581 0.875c0.107 0.345 0.114 0.716 0.019 1.066s-0.285 0.662-0.549 0.897l-5.533 4.995c-0.246 0.22-0.429 0.506-0.53 0.828s-0.114 0.666-0.040 0.996l1.693 7.433c0.078 0.353 0.056 0.722-0.065 1.061s-0.334 0.634-0.613 0.847c-0.279 0.213-0.613 0.335-0.957 0.35s-0.687-0.076-0.983-0.264z"></path>
<path fill="#000" style="fill: var(--color4, #000)" d="M194.051 23.394c-2.79-3.489-7.424-7.592-7.424-7.592s-5.183 4.146-7.347 7.362c-1.321 2.011-1.993 4.412-1.917 6.852 0.275 0.3 0.64 0.491 1.033 0.543s0.793-0.039 1.13-0.258l6.223-3.982c0.275-0.177 0.591-0.271 0.915-0.271s0.639 0.094 0.914 0.271l6.217 3.988c0.391 0.252 0.861 0.332 1.308 0.223s0.835-0.397 1.080-0.804c-0.020-2.3-0.77-4.528-2.132-6.332z"></path>
<path fill="#000" style="fill: var(--color4, #000)" d="M186.626 0.937c-0.338 0.006-0.667 0.117-0.945 0.317s-0.495 0.483-0.622 0.811l-2.801 7.055c-0.123 0.313-0.327 0.584-0.587 0.783s-0.569 0.319-0.891 0.346l-7.263 0.608c-0.431 0.033-0.835 0.232-1.134 0.56s-0.469 0.761-0.48 1.214c1.317 0.389 2.774 0.712 3.991 1.041 3.627 0.981 10.743 2.131 10.743 2.131l-0.011-14.866z"></path>
<path fill="#000" style="fill: var(--color4, #000)" d="M196.423 28.308c0.071 0.301 0.067 0.617-0.012 0.916s-0.229 0.572-0.437 0.793c-0.618-2.186-1.545-4.263-2.749-6.162-2.278-3.402-6.557-8.096-6.557-8.096s3.585-2.054 6.793-2.7c3.208-0.646 7.879-1.024 7.879-1.024 0.127 0.356 0.145 0.745 0.051 1.112s-0.294 0.695-0.574 0.937l-5.533 4.968c-0.246 0.22-0.429 0.506-0.528 0.828s-0.112 0.667-0.036 0.996l1.703 7.433z"></path>
<path fill="#000" style="fill: var(--color4, #000)" d="M193.225 23.854c-2.153-3.204-6.108-7.564-6.521-8.052 5.617 0.915 7.921 3.686 7.921 3.686l0.173 0.307c-0.132 0.348-0.157 0.731-0.073 1.095l1.698 7.433c0.071 0.302 0.067 0.618-0.013 0.917s-0.232 0.572-0.442 0.792c-0.612-2.193-1.537-4.276-2.743-6.179z"></path>
<path fill="#000" style="fill: var(--color4, #000)" d="M176.908 28.308c-0.071 0.302-0.067 0.618 0.013 0.917s0.232 0.572 0.442 0.792c0.613-2.187 1.538-4.264 2.743-6.162 2.278-3.402 6.563-8.096 6.563-8.096s-3.579-2.054-6.792-2.7c-3.213-0.646-7.837-1.024-7.837-1.024-0.133 0.352-0.157 0.74-0.069 1.107s0.284 0.697 0.559 0.942l5.539 4.968c0.244 0.221 0.426 0.508 0.525 0.829s0.111 0.666 0.034 0.995l-1.719 7.433z"></path>
<path fill="#000" style="fill: var(--color4, #000)" d="M180.105 23.854c2.147-3.204 6.103-7.564 6.521-8.052-5.622 0.915-7.921 3.686-7.921 3.686l-0.173 0.307c0.131 0.349 0.154 0.732 0.068 1.095l-1.693 7.433c-0.071 0.302-0.067 0.618 0.013 0.917s0.232 0.572 0.442 0.792c0.612-2.193 1.537-4.276 2.743-6.179z"></path>
<path fill="#000" style="fill: var(--color4, #000)" d="M177.65 29.085c1.117-2.691 2.61-5.192 4.431-7.422 2.921-3.549 4.582-5.297 4.582-5.297 2.414 2.398 4.551 5.084 6.369 8.003 2.481 4.229 2.842 5.335 2.842 5.335-0.825-2.707-1.956-5.3-3.37-7.723-1.523-2.564-3.348-4.916-5.434-7l-1.196 0.389c0 0-7.221 8.068-8.224 13.716z"></path>
<path fill="#000" style="fill: var(--color4, #000)" d="M187.086 14.986l-1.197 0.389c0 0-7.237 8.063-8.239 13.71 1.117-2.691 2.61-5.193 4.431-7.422 2.921-3.549 4.582-5.297 4.582-5.297l0.423-1.38z"></path>
<path fill="#000" style="fill: var(--color4, #000)" d="M172.41 12.067c0 0 3.067 0.104 7.127 0.548 2.217 0.177 4.385 0.781 6.395 1.78 0 0 0.267-5.576 0.481-8.819s0.215-4.075 0.215-4.075 0.361 8.392 0.444 10.55c0.083 2.158 0.319 2.344 0.319 2.344l-0.763 1.424c0 0-3.349-2.536-14.217-3.752z"></path>
<path fill="#000" style="fill: var(--color4, #000)" d="M201.35 12.138c0.003 0.022 0.003 0.044 0 0.066 0.003-0.022 0.003-0.044 0-0.066z"></path>
<path fill="#000" style="fill: var(--color4, #000)" d="M201.298 12.034c-0.114-0.325-0.315-0.609-0.58-0.817s-0.58-0.331-0.909-0.356l-7.263-0.614c-0.357-0.029-0.697-0.174-0.972-0.416 0 0-2.555 1.096-4.932 5.916 0 0 3.584-2.054 6.792-2.7s7.675-0.997 7.864-1.013z"></path>
<path fill="#000" style="fill: var(--color4, #000)" d="M201.423 12.494c0.002 0.011 0.002 0.022 0 0.033 0.002-0.011 0.002-0.022 0-0.033z"></path>
<path fill="#000" style="fill: var(--color4, #000)" d="M189.014 16.328l5.669 3.999c0.015-0.244 0.075-0.482 0.18-0.7s0.249-0.412 0.427-0.571l0.266-0.241c-0.753-0.564-1.571-1.026-2.435-1.375-1.321-0.543-2.7-0.917-4.107-1.112z"></path>
<path fill="#000" style="fill: var(--color4, #000)" d="M187.457 26.259c-0.158-0.302-0.283-0.622-0.371-0.953-0.136-0.581-0.324-7.345-0.324-7.345s-0.157 6.184-0.272 7.192c-0.011 0.203-0.063 0.402-0.153 0.582s-0.216 0.339-0.369 0.464c0.237-0.107 0.493-0.158 0.751-0.147s0.51 0.081 0.738 0.208z"></path>
</symbol>
<symbol id="icon-energy" viewBox="0 0 33 32">
<path fill="#d16e1c" style="fill: var(--color13, #d16e1c)" d="M15.164 0h16.306c0.093 0 0.184 0.020 0.263 0.056s0.144 0.087 0.186 0.149c0.043 0.061 0.062 0.13 0.055 0.199s-0.038 0.135-0.091 0.191l-10.354 10.815c-0.053 0.056-0.084 0.122-0.090 0.191s0.013 0.137 0.056 0.198c0.043 0.061 0.107 0.112 0.186 0.148s0.17 0.055 0.262 0.056h9.886c0.098 0.001 0.194 0.022 0.276 0.062s0.147 0.097 0.186 0.164c0.039 0.067 0.052 0.141 0.036 0.212s-0.059 0.139-0.125 0.193l-27.317 19.102 10.661-13.537c0.035-0.058 0.051-0.121 0.044-0.184s-0.034-0.124-0.080-0.178c-0.046-0.053-0.11-0.097-0.186-0.127s-0.16-0.046-0.245-0.045l-8.606 0.084c-0.082 0-0.164-0.014-0.237-0.042s-0.136-0.069-0.184-0.119c-0.047-0.050-0.077-0.108-0.088-0.169s-0.001-0.122 0.028-0.18l8.697-16.997c0.037-0.071 0.102-0.133 0.186-0.176s0.185-0.067 0.288-0.067z"></path>
<path fill="#000" style="fill: var(--color4, #000)" d="M26.34 13.549h-9.887c-0.093-0.001-0.183-0.020-0.262-0.056s-0.143-0.087-0.185-0.148c-0.042-0.061-0.062-0.13-0.055-0.198s0.037-0.135 0.090-0.191l10.352-10.815c0.053-0.056 0.085-0.123 0.091-0.191s-0.013-0.137-0.055-0.199c-0.043-0.061-0.107-0.113-0.186-0.149s-0.17-0.055-0.263-0.056h-16.304c-0.103 0-0.203 0.023-0.288 0.067s-0.15 0.105-0.186 0.176l-8.697 16.997c-0.029 0.057-0.038 0.119-0.028 0.18s0.041 0.119 0.088 0.169c0.047 0.050 0.11 0.091 0.184 0.119s0.155 0.042 0.237 0.042l8.604-0.084c0.086-0.001 0.17 0.015 0.245 0.045s0.139 0.074 0.186 0.127c0.047 0.053 0.074 0.115 0.080 0.178s-0.009 0.127-0.045 0.185l-6.937 11.113c-0.515 0.826 0.934 1.546 1.766 0.877l21.828-17.553c0.067-0.054 0.112-0.121 0.129-0.194s0.004-0.147-0.036-0.214-0.105-0.125-0.188-0.165c-0.083-0.040-0.18-0.061-0.279-0.061z"></path>
<path fill="#000" style="fill: var(--color4, #000)" opacity="0.16000000000000003" d="M8.259 29.022l0.542-7.265-4.27 6.838 0.575 2.963 3.154-2.537z"></path>
<path fill="#000" style="fill: var(--color4, #000)" opacity="0.16000000000000003" d="M2.047 15.77l0.68 3.51 4.907-0.048-3.491-7.559-2.096 4.098z"></path>
<path fill="#000" style="fill: var(--color4, #000)" opacity="0.4" d="M21.396 13.549h-4.944c-0.093-0.001-0.183-0.020-0.262-0.056s-0.143-0.087-0.185-0.148c-0.042-0.061-0.062-0.13-0.055-0.198s0.037-0.135 0.090-0.191l0.666-0.696-3.483-10.713h-3.548c-0.201 0 5.958 21.546 5.958 21.546l1.659-1.335 4.103-8.208z"></path>
<path fill="#fce13c" style="fill: var(--color14, #fce13c)" d="M9.486 1.573l5.522-1.554 16.512-0.018c0.092 0.004 0.181 0.028 0.255 0.068s0.13 0.097 0.162 0.161l-5.481 1.553-16.97-0.21z"></path>
<path fill="#000" style="fill: var(--color4, #000)" d="M16.186 13.493l5.494-1.544c0.115 0.042 0.242 0.061 0.37 0.054h9.816c0.076 0.001 0.15 0.017 0.217 0.044s0.123 0.066 0.165 0.114l-5.664 1.431c-0.071-0.027-0.15-0.041-0.23-0.042h-9.915c-0.089-0.001-0.177-0.020-0.252-0.056z"></path>
<path fill="#fffffd" style="fill: var(--color15, #fffffd)" d="M26.34 13.549c-0.824 0.045-1.652 0.069-2.472 0.084s-1.652 0.023-2.471 0.025c-0.819 0.002-1.652-0.007-2.471-0.024s-1.653-0.040-2.472-0.085c0.825-0.044 1.652-0.068 2.472-0.084s1.652-0.022 2.471-0.024c0.819-0.002 1.653 0.007 2.471 0.024s1.649 0.043 2.472 0.084z"></path>
<path fill="#fffffd" style="fill: var(--color15, #fffffd)" d="M3.379 13.167c-0.47 1.037-0.958 2.070-1.464 3.098-0.254 0.515-0.508 1.028-0.763 1.541l-0.381 0.769-0.098 0.189-0.024 0.048c-0.009 0.016-0.010 0.026-0.017 0.038-0.008 0.024-0.011 0.048-0.011 0.073 0.002 0.049 0.022 0.097 0.058 0.138s0.086 0.074 0.145 0.096c0.029 0.011 0.060 0.019 0.093 0.023 0.016 0.003 0.032 0.005 0.048 0.005h0.337l0.553-0.005 1.106-0.008c0.737 0 1.474-0.006 2.21 0 1.474 0 2.949 0.014 4.424 0.041-1.473 0.057-2.946 0.099-4.42 0.127-0.737 0.018-1.474 0.026-2.211 0.040l-1.659 0.021h-0.276c-0.022 0-0.046 0-0.078 0-0.030-0-0.060-0.003-0.089-0.008-0.058-0.007-0.115-0.021-0.168-0.041-0.107-0.039-0.197-0.1-0.261-0.174s-0.099-0.161-0.102-0.249c-0.001-0.044 0.006-0.088 0.020-0.131 0.009-0.020 0.019-0.044 0.027-0.059l0.024-0.048 0.099-0.189 0.398-0.766c0.268-0.509 0.533-1.020 0.807-1.528 0.537-1.019 1.094-2.032 1.67-3.040z"></path>
<path fill="#fffffd" style="fill: var(--color15, #fffffd)" d="M25.995 1.777c-1.362 0.023-2.723 0.031-4.083 0.026-1.36 0-2.72-0.017-4.080-0.034s-2.72-0.045-4.079-0.081c-1.359-0.036-2.719-0.081-4.078-0.143 1.356-0.023 2.716-0.031 4.082-0.026 1.36 0 2.72 0.017 4.080 0.034s2.72 0.045 4.080 0.081c1.36 0.036 2.719 0.077 4.078 0.142z"></path>
<path fill="#fcffac" style="fill: var(--color16, #fcffac)" opacity="0.6" d="M25.13 3.461l1.264-1.321c0.055-0.049 0.090-0.109 0.1-0.172s-0.004-0.127-0.042-0.185l-16.779-0.238c-0.103 0-0.203 0.023-0.288 0.067s-0.15 0.105-0.186 0.176l-4.848 9.474c3.726-4.304 12.019-8.080 20.78-7.801z"></path>
<path fill="#fcffac" style="fill: var(--color16, #fcffac)" opacity="0.6" d="M10.058 19.746l-6.937 11.113c-0.515 0.826 0.934 1.546 1.766 0.877l1.846-1.484c-1.342-0.746-0.234-3.524 3.325-10.506z"></path>
<path fill="#fcffac" style="fill: var(--color16, #fcffac)" opacity="0.6" d="M11.71 0.949c3.137-0.534 8.205-0.897 19.858-0.944h-0.042l-16.512 0.018-3.304 0.926z"></path>
</symbol>
<symbol id="icon-book" viewBox="0 0 33 32">
<path fill="#8e2011" style="fill: var(--color17, #8e2011)" d="M13.988 31.934c0 0 13.020-9.815 18.16-16.737 0.186-0.251 0.185-0.926 0.185-0.926l-15.405-9.577-12.315 9.99-3.092-1.745-0.698-0.347c-1.207 2.817 0.181 6.918 0.315 7.037l12.51 12.307c0.052 0.043 0.111 0.065 0.17 0.065s0.118-0.023 0.17-0.066z"></path>
<path fill="#bc5c0d" style="fill: var(--color18, #bc5c0d)" d="M15.709 29.793l-7.28-3.534v0.539l5.221 5.137c0.052 0.042 0.11 0.065 0.169 0.065s0.117-0.022 0.169-0.065c0 0 0.652-0.49 1.721-1.33v-0.812z"></path>
<path fill="#bc5c0d" style="fill: var(--color18, #bc5c0d)" d="M31.185 16.419c0.349-0.416 0.667-0.823 0.959-1.222 0.186-0.251 0.185-0.926 0.185-0.926l-1.148-0.714 0.003 2.863z"></path>
<path fill="#b73d1c" style="fill: var(--color19, #b73d1c)" d="M13.988 31.292c0 0 12.087-8.698 18.18-16.62 0.242-0.314 0.222-0.655-0.079-0.832l-15.162-9.788-12.315 9.988-3.092-1.743-0.698 0.295c-1.207 2.817 0.262 6.596 0.393 6.716l12.433 11.985c0.052 0.044 0.11 0.066 0.17 0.066s0.118-0.023 0.17-0.066z"></path>
<path fill="#ed9a15" style="fill: var(--color20, #ed9a15)" d="M32.168 14.672c0.242-0.314 0.222-0.655-0.078-0.832l-1.526-0.985-3.807-2.020c0 0 2.485 2.134 4.661 3.421 0.489 0.289-0.5 1.296-0.233 1.647 0-0.005 0.671-0.823 0.983-1.23z"></path>
<path fill="#ed9a15" style="fill: var(--color20, #ed9a15)" d="M13.684 30.336c-3.227-2.496-4.657-4.278-5.253-4.073l5.221 5.033c0.052 0.043 0.11 0.066 0.169 0.066s0.118-0.023 0.169-0.066c0 0 0.442-0.319 0.799-0.587 0.475-0.356 0.921-0.695 0.921-0.695-0.16-0.76-1.669 0.596-2.026 0.322z"></path>
<path fill="#e09a85" style="fill: var(--color21, #e09a85)" d="M1.182 12.885c0 0-0.593 2.887 0.447 5.789l12.19 11.47 1.585-4.339-1.623-3.647-12.598-9.273z"></path>
<path fill="#af7464" style="fill: var(--color22, #af7464)" d="M13.744 27.673l-12.113-9.816 12.346 11.018c0.080-0.246-0.233-1.202-0.233-1.202z"></path>
<path fill="#ffd3c5" style="fill: var(--color23, #ffd3c5)" d="M31.597 14.007c0 0-0.308-0.006-0.291-0.048 0.015-0.054 0.023-0.111 0.023-0.17s-0.008-0.116-0.023-0.17l0.234-0.273c0.050-0.259 0.087-0.523 0.112-0.79 0-0.151-0.135-0.515-0.135-0.515s0.14-0.457 0.14-0.628c-0.020-0.088-0.044-0.174-0.072-0.257-0.032-0.129 0.069-0.19 0.063-0.257-0.008-0.091-0.228-0.174-0.228-0.174s0.332-0.551 0.333-0.657c0-0.149-0.188-0.587-0.188-0.587l0.026-0.573 0.026-1.15-17.834 14.402c0 0-0.119 1.527-0.064 2.029 0.051 0.252 0.116 0.497 0.194 0.733l-0.267 0.374 0.24 0.398-0.174 1.118c0 0 0.234 0.392 0.223 0.552-0.007 0.102-0.189 0.307-0.189 0.307s0.296 0.965 0.223 1.278c-0.033 0.143-0.323 0.378-0.323 0.378l0.24 0.377-0.065 0.443c0 0 11.785-7.983 17.778-16.142z"></path>
<path fill="#e09a85" style="fill: var(--color21, #e09a85)" d="M13.744 27.673c0 0 0.249 0.834 0.233 1.205 1.786-1.311 12.037-8.961 17.653-16.093 0.011-0.076 0.018-0.152 0.022-0.229-11.93 11.836-17.907 15.116-17.907 15.116z"></path>
<path fill="#e09a85" style="fill: var(--color21, #e09a85)" d="M31.564 9.483l0.026-0.572 0.024-1.069-0.054-0.036-17.78 14.356c0 0-0.12 1.527-0.064 2.029l0.005 0.039c3.082-2.016 12.369-8.307 17.959-14.442-0.054-0.154-0.117-0.304-0.117-0.304z"></path>
<path fill="#af7464" style="fill: var(--color22, #af7464)" d="M2.694 19.68l-1.099-1.029c0 0-0.611-2.082-0.58-2.887s0.099-2.431 0.099-2.431l12.59 10.421 0.020 0.477c0 0-10.636-8.843-11.631-9.52-0.98-0.661-0.775 0.144-0.162 0.598 1.029 0.762 3.106 2.747 3.106 2.747s-2.858-2.057-3.214-2.257c-0.356-0.199-0.727 0.504 0.132 1.074 2.108 1.4 5.787 4.873 5.787 4.873s-4.611-3.781-5.426-4.386c-0.816-0.605-0.872 0.459 0.37 1.353 0 0-1.15-0.198 0.010 0.966z"></path>
<path fill="#af7464" style="fill: var(--color22, #af7464)" d="M13.644 25.298l0.241 0.398-0.030 0.189-6.044-5.020 5.833 4.433z"></path>
<path fill="#e09a85" style="fill: var(--color21, #e09a85)" d="M13.645 25.298l0.24 0.398-0.026 0.189 6.018-4.858c-3.342 2.457-6.232 4.271-6.232 4.271z"></path>
<path fill="#e09a85" style="fill: var(--color21, #e09a85)" d="M30.158 10.897l0.204 0.274c0.837-0.987 1.126 0.91 1.070 2.3l0.107-0.129c0.050-0.258 0.087-0.521 0.112-0.786 0-0.151-0.135-0.515-0.135-0.515s0.14-0.457 0.14-0.628c-0.020-0.088-0.044-0.174-0.072-0.257-0.032-0.129 0.069-0.19 0.063-0.257-0.008-0.091-0.228-0.174-0.228-0.174s0.332-0.551 0.333-0.657c-0.027-0.166-0.073-0.323-0.138-0.464l-0.307 0.106-1.148 1.187z"></path>
<path fill="#e09a85" style="fill: var(--color21, #e09a85)" d="M18.532 26.055c1.115-0.937 2.222-1.886 3.323-2.847l0.823-0.726c0.273-0.244 0.549-0.484 0.819-0.735l0.817-0.74 0.809-0.756c0.272-0.246 0.536-0.515 0.805-0.764l0.401-0.386c0.133-0.129 0.262-0.264 0.397-0.394 0.262-0.264 0.531-0.522 0.793-0.79s0.523-0.543 0.785-0.813c1.034-1.101 2.045-2.242 3.005-3.485-0.872 1.37-1.852 2.595-2.863 3.751s-2.083 2.213-3.162 3.239c-1.079 1.027-2.189 1.974-3.314 2.886s-2.268 1.779-3.438 2.559z"></path>
<path fill="#e09a85" style="fill: var(--color21, #e09a85)" d="M31.418 10.727l-1.503 1.514c-0.504 0.499-1.010 0.994-1.519 1.485s-1.022 0.97-1.535 1.45-1.033 0.946-1.552 1.415c-0.519 0.47-1.047 0.922-1.57 1.374s-1.054 0.901-1.588 1.325c-1.066 0.868-2.149 1.694-3.255 2.444 0.531-0.436 1.064-0.868 1.59-1.319s1.053-0.894 1.577-1.346c0.524-0.452 1.047-0.907 1.57-1.37s1.047-0.919 1.56-1.386 1.038-0.929 1.556-1.396l1.553-1.404c1.034-0.933 2.065-1.883 3.115-2.788z"></path>
<path fill="#a56a5d" style="fill: var(--color24, #a56a5d)" d="M13.744 27.673c0 0 2.612-1.099 11.060-8.635l-11.060 8.635z"></path>
<path fill="#91554c" style="fill: var(--color25, #91554c)" d="M6.869 22.194c0.559 0.421 1.113 0.854 1.663 1.298 0.55 0.441 1.097 0.894 1.642 1.348s1.088 0.919 1.627 1.391c0.539 0.472 1.075 0.949 1.605 1.442-0.559-0.421-1.114-0.854-1.663-1.298-0.551-0.441-1.097-0.894-1.643-1.35s-1.087-0.919-1.626-1.391c-0.539-0.472-1.070-0.949-1.605-1.441z"></path>
<path fill="#91554c" style="fill: var(--color25, #91554c)" d="M7.597 24.032c0.538 0.437 1.071 0.887 1.6 1.348 0.529 0.458 1.054 0.928 1.577 1.398s1.047 0.952 1.56 1.44c0.514 0.488 1.030 0.982 1.538 1.49-0.538-0.439-1.071-0.889-1.6-1.348s-1.054-0.928-1.577-1.4-1.047-0.952-1.56-1.44c-0.514-0.488-1.034-0.974-1.538-1.488z"></path>
<path fill="#91554c" style="fill: var(--color25, #91554c)" d="M1.407 15.206c0.407 0.275 0.812 0.564 1.214 0.865 0.401 0.297 0.798 0.606 1.194 0.917s0.785 0.632 1.178 0.958c0.393 0.327 0.776 0.663 1.158 1.011-0.407-0.277-0.812-0.565-1.215-0.865-0.401-0.298-0.798-0.607-1.193-0.917s-0.785-0.632-1.178-0.958c-0.393-0.327-0.776-0.663-1.158-1.011z"></path>
<path fill="#91554c" style="fill: var(--color25, #91554c)" d="M1.379 16.67c0.048-0.008 0.097 0.002 0.141 0.028 0.047 0.019 0.092 0.042 0.138 0.064 0.087 0.050 0.174 0.104 0.267 0.16 0.174 0.112 0.349 0.237 0.518 0.364s0.339 0.257 0.504 0.403c0.165 0.145 0.329 0.284 0.489 0.437-0.087-0.057-0.174-0.118-0.262-0.179l-0.257-0.187c-0.174-0.129-0.34-0.257-0.51-0.386l-0.508-0.386c-0.087-0.063-0.17-0.129-0.256-0.184-0.044-0.030-0.087-0.060-0.13-0.086-0.022-0.015-0.044-0.026-0.067-0.039s-0.044-0.021-0.066-0.010z"></path>
<path fill="#af1919" style="fill: var(--color26, #af1919)" d="M6.008 21.785c-1.77 1.32-4.338 4.76-4.338 4.76s0.174-1.58 0.256-2.187c0.021-0.162 0.030-0.19-0.065-0.151-0.398 0.169-1.512 0.365-1.512 0.365s1.853-3.243 3.688-4.417l1.972 1.415v0.214z"></path>
<path fill="#000" style="fill: var(--color4, #000)" d="M6.008 21.57c-1.77 1.32-4.338 4.974-4.338 4.974s0.174-1.793 0.256-2.407c0.021-0.161 0.030-0.19-0.065-0.149-0.398 0.169-1.512 0.579-1.512 0.579s1.853-3.457 3.688-4.631l1.972 1.635z"></path>
<path fill="#eaa542" style="fill: var(--color27, #eaa542)" d="M5.13 20.842c-1.326 1.303-2.778 3.259-3.279 3.95-0.017 0.161-0.036 0.332-0.053 0.503 0.468-0.65 2.135-2.916 3.572-4.254l-0.24-0.198z"></path>
<path fill="#eaa542" style="fill: var(--color27, #eaa542)" d="M4.395 20.232c-1.396 1.339-2.966 3.454-3.434 4.107l0.409-0.156c0.734-0.983 2.078-2.702 3.246-3.768l-0.221-0.183z"></path>
<path fill="#ddd" style="fill: var(--color28, #ddd)" d="M2.707 21.131c0.311 0.178 0.632 0.317 0.959 0.417 0.712 0.229 1.444 0.283 2.167 0.16l0.174-0.138-1.972-1.634c-0.474 0.319-0.92 0.72-1.329 1.195z"></path>
<path fill="#a32511" style="fill: var(--color29, #a32511)" d="M0.825 12.591c0.001 0.172 0.032 0.341 0.092 0.49s0.145 0.271 0.247 0.354l12.412 10.271c0.062 0.052 0.133 0.079 0.204 0.079s0.142-0.027 0.204-0.079c0 0 12.11-8.037 18.030-15.294 0.29-0.355 0.222-1.23 0.222-1.23l-13.287-6.386-18.124 11.795z"></path>
<path fill="#c6640c" style="fill: var(--color30, #c6640c)" d="M31.138 9.445c0.305-0.343 0.595-0.686 0.872-1.029 0.29-0.355 0.222-1.23 0.222-1.23l-1.071-0.515h-0.027l0.003 2.774z"></path>
<path fill="#c6640c" style="fill: var(--color30, #c6640c)" d="M15.734 21.845l-7.608-3.254v0.627l5.447 4.493c0.062 0.052 0.133 0.080 0.205 0.080s0.142-0.027 0.205-0.080c0.313-0.217 1.195-0.813 1.744-1.207l0.007-0.659z"></path>
<path fill="#000" style="fill: var(--color4, #000)" d="M0.825 12.591l12.751 10.472c0.062 0.052 0.133 0.079 0.204 0.079s0.142-0.027 0.204-0.079c0 0 13.005-8.792 18.051-15.298 0.283-0.365 0.279-0.982-0.081-1.158l-12.149-6.453c-0.311-0.145-0.648-0.122-0.949 0.063-9.109 4.921-14.946 9.906-17.052 11.737l-0.139-0.114c-0.556 0.485-0.84 0.751-0.84 0.751z"></path>
<path fill="#000" style="fill: var(--color4, #000)" d="M31.73 6.708l-12.149-6.445c-0.312-0.145-0.648-0.123-0.95 0.062-0.131 0.055-0.264 0.092-0.399 0.111-0.019 0.014-0.034 0.035-0.043 0.062s-0.013 0.058-0.010 0.088l12.22 6.512c0.36 0.179 0.174 0.796-0.109 1.158l1.522-0.386c0.283-0.367 0.276-0.983-0.081-1.162z"></path>
<path fill="#dbdbdb" style="fill: var(--color31, #dbdbdb)" d="M4.447 15.566l9.129 7.5c0.062 0.052 0.133 0.079 0.204 0.079s0.142-0.027 0.204-0.079c0 0 9.967-8.241 14.597-11.964-11.695 8.514-20.893 6.38-24.134 4.464z"></path>
<path fill="#000" style="fill: var(--color4, #000)" d="M31.953 6.601l-12.262-6.507c-0.312-0.145-0.648-0.122-0.95 0.063l-0.51 0.278 12.148 6.445c0.36 0.179 0.365 0.795 0.081 1.158-3.767 4.858-12.176 10.915-16.105 13.695-0.13 0.084-0.271 0.122-0.412 0.112s-0.28-0.069-0.403-0.171l-11.875-9.834c-0.556 0.482-0.84 0.751-0.84 0.751l12.751 10.472c0.062 0.052 0.133 0.079 0.204 0.079s0.142-0.027 0.204-0.079c0 0 3.212-2.145 6.985-5.096 4.161-3.255 8.356-6.73 11.066-10.202 0.284-0.368 0.279-0.985-0.081-1.164z"></path>
<path fill="#000" style="fill: var(--color4, #000)" d="M31.953 6.601l-5.346-2.83c-0.638 0.287 2.57 1.93 4.71 3.332 0.464 0.302-0.454 1.087-0.182 1.753l0.543-0.643c0.122-0.149 0.24-0.297 0.354-0.444 0.285-0.373 0.281-0.989-0.079-1.168z"></path>
<path fill="#000" style="fill: var(--color4, #000)" d="M8.125 18.588l5.451 4.476c0.062 0.052 0.133 0.079 0.204 0.079s0.142-0.027 0.204-0.079c0 0 0.349-0.229 0.459-0.307 0.324-0.226 1.291-0.911 1.291-0.911-0.159-0.755-1.744 0.408-2.117 0.169-3.542-2.291-4.817-3.926-5.492-3.426z"></path>
<path fill="#eaa542" style="fill: var(--color27, #eaa542)" d="M1.713 18.758c0.010 0.039-0.184-0.094-0.25-0.217-0.543-1.010-0.959-3.368-0.482-5.351 0.011-0.045 0.222 0.223 0.217 0.274-0.145 1.836 0.038 3.443 0.515 5.294z"></path>
<path fill="#d8953d" style="fill: var(--color32, #d8953d)" d="M1.674 18.75c0.025 0.015 0.042 0.019 0.038 0.008-0.477-1.851-0.66-3.458-0.515-5.294 0-0.051-0.206-0.319-0.217-0.274-0.067 0.285-0.118 0.577-0.152 0.875 0.034 1.616 0.33 3.149 0.846 4.685z"></path>
<path fill="#dbdbdb" style="fill: var(--color31, #dbdbdb)" d="M22.893 15.628c-1.514-0.354-2.604-2.039-2.914-2.542-3.918-6.339-7.157-7.719-9.151-8.081-1.032 0.677-1.832 1.321-2.714 1.943 1.666-0.136 4.998 0.709 9.639 8.689 0.761 1.287 1.783 2.178 2.914 2.542l0.017 0.006c0.857-0.66 1.751-1.362 2.652-2.094-0.045-0.122-0.108-0.227-0.185-0.307s-0.165-0.134-0.258-0.156z"></path>
<path fill="#dbdbdb" style="fill: var(--color31, #dbdbdb)" d="M20.685 18.185v0.669l-0.174 0.129 0.501 0.129 0.342 0.178c0.056 0.14-0.2 0.575-0.201 0.674 0.019 0.174 0.046 0.346 0.080 0.515 0 0 0.22 0.082 0.228 0.174 0.006 0.068-0.095 0.129-0.063 0.257 0.029 0.083 0.053 0.169 0.073 0.257-0.018 0.189-0.052 0.374-0.101 0.551 0 0-0.268 0.378-0.269 0.53 0 0.076 0.502 0.324 0.448 0.607l-0.357 0.928 0.587 0.296c-0.349 0.597-0.028 1.064-0.028 1.064l-0.349 0.295 0.008 0.491 1.525-1.315 0.021-8.202-2.271 1.774z"></path>
<path fill="#912f1c" style="fill: var(--color33, #912f1c)" d="M30.566 27.739l-1.759-1.913c-0.193-0.248-0.411-0.45-0.645-0.598-0.85-0.536-2.987-1.956-3.421-2.914-0.544-1.2 0.654-7.086-0.698-7.404-1.513-0.354-2.604-2.039-2.914-2.542-3.964-6.415-7.233-7.755-9.221-8.093-0.495-0.084-2.093 1.128-3.107 1.954l-0.182-0.139-0.698 0.341c0 0 0.028 0.359 0.194 0.515 0.896-0.129 5.116-1.369 10.49 7.873 0.559 0.962 1.582 2.020 2.966 2.473 1.337 0.439 0 5.686 0.764 7.462 0.365 0.847 2.228 2.129 3.213 2.775 0.468 0.306 0.966 0.498 1.476 0.569l3.296 0.459c0.215 0.030 0.246-0.817 0.246-0.817z"></path>
<path fill="#000" style="fill: var(--color4, #000)" d="M11.909 3.735c1.988 0.338 5.257 1.679 9.221 8.093 0.311 0.503 1.401 2.187 2.914 2.542 1.355 0.318 0.156 6.204 0.698 7.404 0.436 0.958 2.572 2.377 3.421 2.914 0.235 0.149 0.453 0.35 0.645 0.598l1.683 2.164c0.035 0.046 0.059 0.108 0.069 0.176s0.004 0.139-0.015 0.202c-0.020 0.063-0.052 0.116-0.093 0.15s-0.089 0.047-0.135 0.039l-3.288-0.459c-0.512-0.068-1.013-0.259-1.483-0.566-0.986-0.643-2.655-1.829-3.033-2.663-0.543-1.202 0.638-6.966-0.698-7.404-1.13-0.365-2.151-1.255-2.912-2.541-5.375-9.242-9.744-8.284-10.99-7.948 0.003-0.005 3.25-2.826 3.996-2.7z"></path>
<path fill="#000" style="fill: var(--color4, #000)" d="M29.365 27.39c-0.041 0-0.078 0-0.106 0l-2.202-0.307c-0.472-0.065-0.935-0.242-1.369-0.526-1.57-1.029-2.651-1.961-2.891-2.488-0.156-0.345-0.093-1.651-0.043-2.702 0.103-2.137 0.22-4.558-0.863-4.913-1.060-0.34-2.018-1.175-2.732-2.381-3.506-6.029-6.706-8.491-10.535-8.234l0.087-0.071 0.053-0.044c1.861-0.111 3.455 0.386 5.034 1.544 1.77 1.304 3.542 3.513 5.418 6.73 0.702 1.189 1.646 2.011 2.691 2.345 1.144 0.374 1.026 2.844 0.921 5.024-0.045 0.924-0.113 2.316 0.031 2.633 0.232 0.515 1.3 1.428 2.859 2.444 0.426 0.277 0.88 0.451 1.344 0.515l2.201 0.306c0.262 0.023 0.378-0.045 0.392-0.094 0.006-0.022-0.008-0.057-0.038-0.096l-1.081-1.35c-0.161-0.206-0.342-0.373-0.538-0.497-1.373-0.867-3.105-2.114-3.563-3.125-0.273-0.603-0.278-1.658-0.193-3.394 0.063-1.277 0.18-3.654-0.262-3.758-1.491-0.349-2.617-1.862-3.155-2.733-3.227-5.222-6.725-8.119-9.787-8.156l0.087-0.050 0.095-0.051c3.053 0.102 6.454 3.003 9.662 8.187 0.532 0.859 1.642 2.354 3.111 2.702 0.472 0.111 0.42 1.973 0.327 3.871-0.085 1.708-0.085 2.745 0.177 3.324 0.471 1.041 2.414 2.379 3.53 3.088 0.203 0.127 0.391 0.301 0.557 0.515l1.081 1.362c0.073 0.094 0.072 0.17 0.058 0.217-0.040 0.134-0.222 0.162-0.36 0.162z"></path>
<path fill="#99321a" style="fill: var(--color34, #99321a)" d="M27.575 25.853c-0.011 0.185-0.193 0.313-0.406 0.286s-0.375-0.198-0.364-0.386c0.011-0.188 0.193-0.313 0.406-0.286s0.375 0.201 0.364 0.386z"></path>
<path fill="#662c20" style="fill: var(--color35, #662c20)" d="M27.465 26.064c-0.086-0.128-0.201-0.203-0.323-0.21-0.101-0.016-0.202 0.010-0.293 0.075 0.085 0.128 0.201 0.203 0.323 0.21 0.1 0.016 0.202-0.009 0.293-0.075z"></path>
<path fill="#99321a" style="fill: var(--color34, #99321a)" d="M25.873 24.686c-0.028 0.18-0.219 0.274-0.427 0.207s-0.354-0.268-0.326-0.449c0.028-0.181 0.219-0.274 0.427-0.207s0.354 0.268 0.326 0.449z"></path>
<path fill="#662c20" style="fill: var(--color35, #662c20)" d="M25.742 24.874c-0.073-0.143-0.181-0.239-0.301-0.268-0.098-0.035-0.201-0.029-0.297 0.018 0.073 0.144 0.181 0.24 0.301 0.269 0.098 0.035 0.201 0.029 0.297-0.019z"></path>
<path fill="#99321a" style="fill: var(--color34, #99321a)" d="M24.364 23.191c0.049-0.172-0.071-0.409-0.267-0.53s-0.394-0.079-0.443 0.093 0.071 0.409 0.267 0.53c0.196 0.121 0.394 0.079 0.443-0.093z"></path>
<path fill="#662c20" style="fill: var(--color35, #662c20)" d="M24.21 23.347c-0.053-0.162-0.147-0.287-0.262-0.347-0.092-0.062-0.194-0.084-0.294-0.064 0.053 0.162 0.147 0.287 0.262 0.347 0.092 0.062 0.194 0.084 0.294 0.064z"></path>
<path fill="#e2e2e2" style="fill: var(--color36, #e2e2e2)" d="M24.668 21.534c-0.238-1.181 0.25-3.452-0.026-6.081-0.297 0.789-0.946 1.93-2.282 2.331 0.307 1.415-0.061 4.186 0.013 5.704 0.436-0.91 1.193-2.002 2.295-1.954z"></path>
<path fill="#ffb3a6" style="fill: var(--color37, #ffb3a6)" opacity="0.2" d="M21.222 11.973c-0.036-0.055-0.066-0.103-0.087-0.144-3.964-6.415-7.233-7.755-9.221-8.093-0.746-0.129-3.993 2.702-3.993 2.702 1.149-0.31 4.963-1.158 9.774 6.004 1.183-0.002 2.363-0.158 3.527-0.468z"></path>
</symbol>
<symbol id="icon-download" viewBox="0 0 33 32">
<path fill="#1565c0" style="fill: var(--color38, #1565c0)" d="M16.333 24.733l-7.333-8.733h14.667l-7.333 8.733zM13.667 2.667h5.333v2.667h-5.333v-2.667zM13.667 6.667h5.333v2.667h-5.333v-2.667z"></path>
<path fill="#1565c0" style="fill: var(--color38, #1565c0)" d="M13.667 10.667h5.333v7.333h-5.333v-7.333zM4.333 26.667h24v2.667h-24v-2.667z"></path>
</symbol>
<symbol id="icon-stars_all" viewBox="0 0 203 32">
<path fill="#8e381e" style="fill: var(--color7, #8e381e)" d="M31.854 12.001c-0.185-0.587-0.532-1.103-0.997-1.483s-1.027-0.607-1.615-0.653l-7.268-0.608c-0.095-0.008-0.187-0.044-0.264-0.103s-0.138-0.139-0.175-0.231l-2.785-7.011c-0.227-0.567-0.609-1.052-1.098-1.392s-1.063-0.521-1.65-0.52c-0.588-0.002-1.163 0.179-1.653 0.519s-0.873 0.825-1.101 1.393l-2.801 7.011c-0.037 0.092-0.097 0.173-0.175 0.231s-0.169 0.094-0.264 0.103l-7.268 0.602c-0.585 0.045-1.144 0.271-1.605 0.65s-0.806 0.893-0.988 1.477c-0.183 0.584-0.195 1.212-0.037 1.804s0.481 1.121 0.927 1.52l5.538 4.93c0.074 0.066 0.128 0.152 0.158 0.249s0.033 0.2 0.010 0.299l-1.714 7.384c-0.139 0.597-0.104 1.224 0.1 1.8s0.568 1.075 1.044 1.432c0.477 0.362 1.046 0.568 1.634 0.592s1.171-0.134 1.673-0.455l6.218-3.955c0.079-0.048 0.17-0.073 0.261-0.073s0.182 0.025 0.261 0.073l6.223 3.96c0.502 0.319 1.084 0.477 1.671 0.452s1.155-0.229 1.631-0.589c0.477-0.357 0.84-0.856 1.044-1.432s0.239-1.203 0.1-1.8l-1.641-7.384c-0.023-0.099-0.020-0.202 0.010-0.299s0.084-0.183 0.158-0.249l5.538-4.93c0.448-0.395 0.773-0.922 0.933-1.513s0.148-1.218-0.034-1.801z"></path>
<path fill="#f4ee72" style="fill: var(--color8, #f4ee72)" d="M23.128 30.307l-6.218-3.988c-0.275-0.177-0.591-0.271-0.914-0.271s-0.639 0.094-0.914 0.271l-6.223 3.982c-0.296 0.186-0.637 0.276-0.981 0.26s-0.676-0.138-0.955-0.351c-0.278-0.213-0.491-0.506-0.612-0.845s-0.143-0.706-0.066-1.058l1.693-7.433c0.076-0.329 0.064-0.673-0.034-0.995s-0.28-0.609-0.525-0.829l-5.538-4.968c-0.261-0.237-0.45-0.55-0.543-0.899s-0.085-0.719 0.022-1.064 0.309-0.648 0.58-0.873c0.271-0.225 0.599-0.361 0.944-0.391l7.263-0.608c0.322-0.027 0.63-0.146 0.891-0.346s0.464-0.47 0.588-0.783l2.795-7.055c0.132-0.335 0.357-0.622 0.645-0.824s0.626-0.309 0.972-0.309 0.685 0.108 0.972 0.309c0.288 0.202 0.512 0.488 0.645 0.824l2.801 7.061c0.127 0.307 0.333 0.571 0.593 0.765s0.567 0.308 0.885 0.331l7.263 0.614c0.345 0.028 0.675 0.164 0.947 0.389s0.474 0.529 0.581 0.875c0.107 0.345 0.114 0.716 0.019 1.066s-0.285 0.662-0.549 0.897l-5.533 4.995c-0.246 0.22-0.429 0.506-0.53 0.828s-0.114 0.666-0.040 0.996l1.693 7.433c0.079 0.353 0.056 0.722-0.064 1.061s-0.334 0.634-0.613 0.847c-0.279 0.213-0.613 0.335-0.958 0.35s-0.687-0.076-0.982-0.264z"></path>
<path fill="#f58220" style="fill: var(--color9, #f58220)" d="M23.384 23.394c-2.79-3.489-7.425-7.592-7.425-7.592s-5.183 4.146-7.346 7.362c-1.321 2.011-1.993 4.412-1.917 6.852 0.275 0.3 0.64 0.491 1.034 0.543s0.792-0.039 1.13-0.258l6.223-3.982c0.275-0.177 0.592-0.271 0.914-0.271s0.639 0.094 0.914 0.271l6.218 3.988c0.391 0.252 0.861 0.332 1.307 0.223s0.835-0.397 1.080-0.804c-0.020-2.3-0.77-4.528-2.132-6.332z"></path>
<path fill="#fcd01e" style="fill: var(--color10, #fcd01e)" d="M15.959 0.937c-0.338 0.006-0.667 0.117-0.946 0.317s-0.495 0.483-0.622 0.811l-2.801 7.055c-0.123 0.313-0.327 0.584-0.588 0.783s-0.569 0.319-0.891 0.346l-7.263 0.608c-0.431 0.033-0.836 0.232-1.134 0.56s-0.47 0.761-0.48 1.214c1.317 0.389 2.774 0.712 3.992 1.041 3.626 0.98 10.742 2.131 10.742 2.131l-0.010-14.866z"></path>
<path fill="#f58220" style="fill: var(--color9, #f58220)" d="M25.756 28.308c0.071 0.301 0.067 0.617-0.012 0.916s-0.229 0.572-0.437 0.793c-0.618-2.186-1.544-4.263-2.748-6.162-2.278-3.402-6.557-8.096-6.557-8.096s3.584-2.054 6.792-2.7c3.208-0.646 7.879-1.024 7.879-1.024 0.127 0.356 0.146 0.745 0.052 1.112s-0.295 0.695-0.574 0.937l-5.533 4.968c-0.246 0.22-0.429 0.506-0.528 0.828s-0.112 0.667-0.036 0.996l1.703 7.433z"></path>
<path fill="#fcd01e" style="fill: var(--color10, #fcd01e)" d="M22.558 23.854c-2.153-3.204-6.108-7.564-6.521-8.052 5.617 0.915 7.921 3.686 7.921 3.686l0.172 0.307c-0.132 0.348-0.157 0.731-0.073 1.095l1.698 7.433c0.071 0.302 0.067 0.618-0.013 0.917s-0.232 0.572-0.442 0.792c-0.612-2.193-1.537-4.276-2.743-6.179z"></path>
<path fill="#f58220" style="fill: var(--color9, #f58220)" d="M6.241 28.308c-0.071 0.302-0.067 0.618 0.013 0.917s0.232 0.572 0.442 0.792c0.614-2.187 1.538-4.264 2.743-6.162 2.278-3.402 6.562-8.096 6.562-8.096s-3.579-2.054-6.792-2.7c-3.213-0.646-7.837-1.024-7.837-1.024-0.133 0.352-0.156 0.74-0.068 1.107s0.284 0.697 0.56 0.942l5.538 4.968c0.244 0.221 0.426 0.508 0.525 0.829s0.111 0.666 0.034 0.995l-1.719 7.433z"></path>
<path fill="#fbae1a" style="fill: var(--color11, #fbae1a)" d="M9.439 23.854c2.147-3.204 6.103-7.564 6.521-8.052-5.622 0.915-7.921 3.686-7.921 3.686l-0.172 0.307c0.13 0.349 0.154 0.732 0.068 1.095l-1.693 7.433c-0.071 0.302-0.067 0.618 0.013 0.917s0.232 0.572 0.442 0.792c0.612-2.193 1.537-4.276 2.743-6.179z"></path>
<path fill="#f4ee72" style="fill: var(--color8, #f4ee72)" d="M6.983 29.085c1.117-2.691 2.61-5.192 4.431-7.422 2.921-3.549 4.582-5.297 4.582-5.297 2.414 2.398 4.551 5.084 6.369 8.003 2.482 4.229 2.842 5.335 2.842 5.335-0.824-2.707-1.956-5.3-3.37-7.723-1.523-2.564-3.348-4.916-5.434-7l-1.197 0.389c0 0-7.221 8.068-8.224 13.716z"></path>
<path fill="#fcd01e" style="fill: var(--color10, #fcd01e)" d="M16.419 14.986l-1.196 0.389c0 0-7.236 8.063-8.24 13.71 1.117-2.691 2.61-5.193 4.431-7.422 2.921-3.549 4.582-5.297 4.582-5.297l0.423-1.38z"></path>
<path fill="#fff" style="fill: var(--color12, #fff)" d="M1.743 12.067c0 0 3.067 0.104 7.127 0.548 2.218 0.177 4.386 0.781 6.395 1.78 0 0 0.266-5.576 0.481-8.819s0.214-4.075 0.214-4.075 0.361 8.392 0.444 10.55c0.084 2.158 0.319 2.344 0.319 2.344l-0.763 1.424c0 0-3.349-2.536-14.217-3.752z"></path>
<path fill="#fff" style="fill: var(--color12, #fff)" d="M30.684 12.138c0.002 0.022 0.002 0.044 0 0.066 0.002-0.022 0.002-0.044 0-0.066z"></path>
<path fill="#fff" style="fill: var(--color12, #fff)" d="M30.631 12.034c-0.114-0.325-0.315-0.609-0.579-0.817s-0.58-0.331-0.91-0.356l-7.263-0.613c-0.358-0.029-0.697-0.174-0.972-0.416 0 0-2.555 1.095-4.932 5.916 0 0 3.584-2.054 6.792-2.7s7.675-0.997 7.863-1.013z"></path>
<path fill="#fff" style="fill: var(--color12, #fff)" d="M30.757 12.494c0.002 0.011 0.002 0.022 0 0.033 0.002-0.011 0.002-0.022 0-0.033z"></path>
<path fill="#8e381e" style="fill: var(--color7, #8e381e)" d="M18.347 16.328l5.669 3.999c0.014-0.244 0.075-0.482 0.179-0.7s0.249-0.412 0.427-0.571l0.266-0.241c-0.753-0.564-1.571-1.026-2.435-1.375-1.321-0.543-2.7-0.917-4.107-1.112z"></path>
<path fill="#8e381e" style="fill: var(--color7, #8e381e)" d="M16.79 26.259c-0.158-0.302-0.283-0.622-0.371-0.953-0.136-0.581-0.324-7.345-0.324-7.345s-0.157 6.184-0.272 7.192c-0.011 0.203-0.063 0.402-0.153 0.582s-0.216 0.339-0.369 0.464c0.237-0.107 0.493-0.158 0.751-0.147s0.51 0.081 0.738 0.207z"></path>
<path fill="#8e381e" style="fill: var(--color7, #8e381e)" d="M74.521 12.001c-0.185-0.587-0.533-1.103-0.997-1.483s-1.027-0.607-1.615-0.653l-7.268-0.608c-0.095-0.008-0.187-0.044-0.264-0.103s-0.138-0.139-0.175-0.231l-2.785-7.011c-0.227-0.567-0.609-1.052-1.098-1.392s-1.063-0.521-1.65-0.52c-0.588-0.002-1.163 0.179-1.653 0.519s-0.873 0.825-1.101 1.393l-2.801 7.011c-0.037 0.092-0.097 0.173-0.175 0.231s-0.169 0.094-0.264 0.103l-7.268 0.602c-0.585 0.045-1.144 0.271-1.605 0.65s-0.806 0.893-0.988 1.477c-0.183 0.584-0.195 1.212-0.037 1.804s0.481 1.121 0.927 1.52l5.538 4.93c0.074 0.066 0.128 0.152 0.158 0.249s0.033 0.2 0.010 0.299l-1.714 7.384c-0.139 0.597-0.104 1.224 0.1 1.8s0.568 1.075 1.044 1.432c0.477 0.362 1.046 0.568 1.634 0.592s1.171-0.134 1.673-0.455l6.218-3.955c0.079-0.048 0.17-0.073 0.261-0.073s0.182 0.025 0.261 0.073l6.223 3.96c0.502 0.319 1.084 0.477 1.671 0.452s1.155-0.229 1.631-0.589c0.477-0.357 0.84-0.856 1.044-1.432s0.239-1.203 0.1-1.8l-1.641-7.384c-0.023-0.099-0.020-0.202 0.010-0.299s0.084-0.183 0.157-0.249l5.539-4.93c0.448-0.395 0.773-0.922 0.933-1.513s0.148-1.218-0.034-1.801z"></path>
<path fill="#f4ee72" style="fill: var(--color8, #f4ee72)" d="M65.795 30.307l-6.218-3.988c-0.275-0.177-0.591-0.271-0.914-0.271s-0.639 0.094-0.914 0.271l-6.223 3.982c-0.296 0.186-0.637 0.276-0.981 0.26s-0.676-0.138-0.955-0.351c-0.278-0.213-0.491-0.506-0.612-0.845s-0.143-0.706-0.065-1.058l1.693-7.433c0.076-0.329 0.064-0.673-0.034-0.995s-0.28-0.609-0.525-0.829l-5.538-4.968c-0.261-0.237-0.45-0.55-0.543-0.899s-0.085-0.719 0.022-1.064 0.309-0.648 0.58-0.873c0.271-0.225 0.599-0.361 0.944-0.391l7.263-0.608c0.322-0.027 0.63-0.146 0.891-0.346s0.464-0.47 0.588-0.783l2.795-7.055c0.132-0.335 0.357-0.622 0.645-0.824s0.626-0.309 0.972-0.309 0.685 0.108 0.972 0.309c0.288 0.202 0.512 0.488 0.645 0.824l2.801 7.061c0.127 0.307 0.333 0.571 0.593 0.765s0.567 0.308 0.885 0.331l7.262 0.614c0.345 0.028 0.675 0.164 0.947 0.389s0.474 0.529 0.581 0.875c0.107 0.345 0.114 0.716 0.019 1.066s-0.285 0.662-0.549 0.897l-5.533 4.995c-0.246 0.22-0.429 0.506-0.53 0.828s-0.114 0.666-0.040 0.996l1.693 7.433c0.078 0.353 0.056 0.722-0.065 1.061s-0.334 0.634-0.613 0.847c-0.279 0.213-0.613 0.335-0.957 0.35s-0.687-0.076-0.983-0.264z"></path>
<path fill="#f58220" style="fill: var(--color9, #f58220)" d="M66.051 23.394c-2.79-3.489-7.425-7.592-7.425-7.592s-5.183 4.146-7.346 7.362c-1.321 2.011-1.993 4.412-1.917 6.852 0.275 0.3 0.64 0.491 1.034 0.543s0.792-0.039 1.13-0.258l6.223-3.982c0.275-0.177 0.592-0.271 0.914-0.271s0.639 0.094 0.914 0.271l6.218 3.988c0.391 0.252 0.861 0.332 1.307 0.223s0.835-0.397 1.081-0.804c-0.020-2.3-0.77-4.528-2.132-6.332z"></path>
<path fill="#fcd01e" style="fill: var(--color10, #fcd01e)" d="M58.626 0.937c-0.338 0.006-0.667 0.117-0.946 0.317s-0.495 0.483-0.622 0.811l-2.801 7.055c-0.123 0.313-0.327 0.584-0.588 0.783s-0.569 0.319-0.891 0.346l-7.263 0.608c-0.431 0.033-0.836 0.232-1.134 0.56s-0.47 0.761-0.48 1.214c1.317 0.389 2.774 0.712 3.992 1.041 3.626 0.98 10.742 2.131 10.742 2.131l-0.010-14.866z"></path>
<path fill="#f58220" style="fill: var(--color9, #f58220)" d="M68.423 28.308c0.071 0.301 0.067 0.617-0.012 0.916s-0.229 0.572-0.437 0.793c-0.618-2.186-1.545-4.263-2.748-6.162-2.278-3.402-6.557-8.096-6.557-8.096s3.584-2.054 6.792-2.7c3.208-0.646 7.879-1.024 7.879-1.024 0.127 0.356 0.145 0.745 0.051 1.112s-0.294 0.695-0.574 0.937l-5.533 4.968c-0.246 0.22-0.429 0.506-0.528 0.828s-0.112 0.667-0.036 0.996l1.703 7.433z"></path>
<path fill="#fcd01e" style="fill: var(--color10, #fcd01e)" d="M65.225 23.854c-2.153-3.204-6.108-7.564-6.521-8.052 5.617 0.915 7.921 3.686 7.921 3.686l0.173 0.307c-0.132 0.348-0.158 0.731-0.073 1.095l1.698 7.433c0.071 0.302 0.067 0.618-0.013 0.917s-0.232 0.572-0.442 0.792c-0.612-2.193-1.537-4.276-2.743-6.179z"></path>
<path fill="#f58220" style="fill: var(--color9, #f58220)" d="M48.908 28.308c-0.071 0.302-0.067 0.618 0.013 0.917s0.232 0.572 0.442 0.792c0.614-2.187 1.538-4.264 2.743-6.162 2.278-3.402 6.562-8.096 6.562-8.096s-3.579-2.054-6.792-2.7c-3.213-0.646-7.837-1.024-7.837-1.024-0.133 0.352-0.156 0.74-0.068 1.107s0.284 0.697 0.56 0.942l5.538 4.968c0.244 0.221 0.426 0.508 0.525 0.829s0.111 0.666 0.034 0.995l-1.719 7.433z"></path>
<path fill="#fbae1a" style="fill: var(--color11, #fbae1a)" d="M52.105 23.854c2.147-3.204 6.103-7.564 6.521-8.052-5.622 0.915-7.921 3.686-7.921 3.686l-0.172 0.307c0.13 0.349 0.154 0.732 0.068 1.095l-1.693 7.433c-0.071 0.302-0.067 0.618 0.013 0.917s0.232 0.572 0.442 0.792c0.612-2.193 1.537-4.276 2.743-6.179z"></path>
<path fill="#f4ee72" style="fill: var(--color8, #f4ee72)" d="M49.65 29.085c1.117-2.691 2.61-5.192 4.431-7.422 2.921-3.549 4.582-5.297 4.582-5.297 2.414 2.398 4.551 5.084 6.369 8.003 2.482 4.229 2.842 5.335 2.842 5.335-0.825-2.707-1.956-5.3-3.37-7.723-1.523-2.564-3.348-4.916-5.434-7l-1.197 0.389c0 0-7.221 8.068-8.224 13.716z"></path>
<path fill="#fcd01e" style="fill: var(--color10, #fcd01e)" d="M59.086 14.986l-1.196 0.389c0 0-7.236 8.063-8.24 13.71 1.117-2.691 2.61-5.193 4.431-7.422 2.921-3.549 4.582-5.297 4.582-5.297l0.423-1.38z"></path>
<path fill="#fff" style="fill: var(--color12, #fff)" d="M44.41 12.067c0 0 3.067 0.104 7.127 0.548 2.218 0.177 4.386 0.781 6.395 1.78 0 0 0.266-5.576 0.481-8.819s0.214-4.075 0.214-4.075 0.361 8.392 0.444 10.55c0.084 2.158 0.319 2.344 0.319 2.344l-0.763 1.424c0 0-3.349-2.536-14.217-3.752z"></path>
<path fill="#fff" style="fill: var(--color12, #fff)" d="M73.35 12.138c0.003 0.022 0.003 0.044 0 0.066 0.003-0.022 0.003-0.044 0-0.066z"></path>
<path fill="#fff" style="fill: var(--color12, #fff)" d="M73.298 12.034c-0.114-0.325-0.315-0.609-0.58-0.817s-0.58-0.331-0.909-0.356l-7.263-0.613c-0.358-0.029-0.697-0.174-0.972-0.416 0 0-2.555 1.095-4.932 5.916 0 0 3.584-2.054 6.792-2.7s7.675-0.997 7.864-1.013z"></path>
<path fill="#fff" style="fill: var(--color12, #fff)" d="M73.423 12.494c0.002 0.011 0.002 0.022 0 0.033 0.002-0.011 0.002-0.022 0-0.033z"></path>
<path fill="#8e381e" style="fill: var(--color7, #8e381e)" d="M61.014 16.328l5.669 3.999c0.015-0.244 0.075-0.482 0.18-0.7s0.249-0.412 0.427-0.571l0.266-0.241c-0.753-0.564-1.571-1.026-2.435-1.375-1.321-0.543-2.7-0.917-4.107-1.112z"></path>
<path fill="#8e381e" style="fill: var(--color7, #8e381e)" d="M59.457 26.259c-0.158-0.302-0.283-0.622-0.371-0.953-0.136-0.581-0.324-7.345-0.324-7.345s-0.157 6.184-0.272 7.192c-0.011 0.203-0.063 0.402-0.153 0.582s-0.216 0.339-0.369 0.464c0.237-0.107 0.493-0.158 0.751-0.147s0.51 0.081 0.738 0.207z"></path>
<path fill="#8e381e" style="fill: var(--color7, #8e381e)" d="M117.187 12.001c-0.185-0.587-0.533-1.103-0.997-1.483s-1.027-0.607-1.615-0.653l-7.268-0.608c-0.095-0.008-0.187-0.044-0.264-0.103s-0.138-0.139-0.175-0.231l-2.785-7.011c-0.227-0.567-0.609-1.052-1.098-1.392s-1.063-0.521-1.651-0.52c-0.587-0.002-1.163 0.179-1.653 0.519s-0.873 0.825-1.101 1.393l-2.801 7.011c-0.037 0.092-0.097 0.173-0.175 0.231s-0.169 0.094-0.264 0.103l-7.268 0.602c-0.585 0.045-1.143 0.271-1.605 0.65s-0.806 0.893-0.989 1.477c-0.182 0.584-0.195 1.212-0.037 1.804s0.481 1.121 0.927 1.52l5.539 4.93c0.073 0.066 0.128 0.152 0.157 0.249s0.033 0.2 0.010 0.299l-1.714 7.384c-0.139 0.597-0.104 1.224 0.1 1.8s0.567 1.075 1.044 1.432c0.477 0.362 1.046 0.568 1.634 0.592s1.171-0.134 1.673-0.455l6.218-3.955c0.079-0.048 0.169-0.073 0.261-0.073s0.181 0.025 0.261 0.073l6.223 3.96c0.502 0.319 1.083 0.477 1.671 0.452s1.155-0.229 1.631-0.589c0.477-0.357 0.84-0.856 1.044-1.432s0.239-1.203 0.1-1.8l-1.641-7.384c-0.023-0.099-0.020-0.202 0.010-0.299s0.084-0.183 0.157-0.249l5.539-4.93c0.448-0.395 0.773-0.922 0.933-1.513s0.148-1.218-0.034-1.801z"></path>
<path fill="#f4ee72" style="fill: var(--color8, #f4ee72)" d="M108.461 30.307l-6.217-3.988c-0.275-0.177-0.592-0.271-0.915-0.271s-0.639 0.094-0.914 0.271l-6.223 3.982c-0.295 0.186-0.636 0.276-0.981 0.26s-0.676-0.138-0.955-0.351c-0.278-0.213-0.491-0.506-0.611-0.845s-0.143-0.706-0.065-1.058l1.693-7.433c0.076-0.329 0.064-0.673-0.035-0.995s-0.28-0.609-0.525-0.829l-5.538-4.968c-0.261-0.237-0.451-0.55-0.543-0.899s-0.085-0.719 0.023-1.064c0.107-0.345 0.309-0.648 0.58-0.873s0.599-0.361 0.944-0.391l7.263-0.608c0.321-0.027 0.63-0.146 0.891-0.346s0.465-0.47 0.587-0.783l2.795-7.055c0.133-0.335 0.357-0.622 0.645-0.824s0.627-0.309 0.973-0.309 0.685 0.108 0.973 0.309c0.288 0.202 0.512 0.488 0.645 0.824l2.801 7.061c0.127 0.307 0.332 0.571 0.593 0.765s0.567 0.308 0.886 0.331l7.262 0.614c0.345 0.028 0.675 0.164 0.947 0.389s0.474 0.529 0.581 0.875c0.107 0.345 0.114 0.716 0.019 1.066s-0.285 0.662-0.549 0.897l-5.533 4.995c-0.246 0.22-0.429 0.506-0.53 0.828s-0.114 0.666-0.040 0.996l1.693 7.433c0.078 0.353 0.056 0.722-0.065 1.061s-0.334 0.634-0.613 0.847c-0.279 0.213-0.613 0.335-0.957 0.35s-0.687-0.076-0.983-0.264z"></path>
<path fill="#f58220" style="fill: var(--color9, #f58220)" d="M108.717 23.394c-2.79-3.489-7.425-7.592-7.425-7.592s-5.183 4.146-7.346 7.362c-1.321 2.011-1.993 4.412-1.917 6.852 0.275 0.3 0.64 0.491 1.033 0.543s0.793-0.039 1.129-0.258l6.223-3.982c0.275-0.177 0.591-0.271 0.914-0.271s0.639 0.094 0.915 0.271l6.217 3.988c0.391 0.252 0.861 0.332 1.307 0.223s0.835-0.397 1.081-0.804c-0.020-2.3-0.77-4.528-2.132-6.332z"></path>
<path fill="#fcd01e" style="fill: var(--color10, #fcd01e)" d="M101.293 0.937c-0.338 0.006-0.667 0.117-0.945 0.317s-0.495 0.483-0.622 0.811l-2.801 7.055c-0.123 0.313-0.327 0.584-0.587 0.783s-0.569 0.319-0.891 0.346l-7.263 0.608c-0.431 0.033-0.835 0.232-1.134 0.56s-0.47 0.761-0.48 1.214c1.317 0.389 2.774 0.712 3.991 1.041 3.626 0.98 10.743 2.131 10.743 2.131l-0.011-14.866z"></path>
<path fill="#f58220" style="fill: var(--color9, #f58220)" d="M111.090 28.308c0.071 0.301 0.067 0.617-0.012 0.916s-0.229 0.572-0.437 0.793c-0.618-2.186-1.545-4.263-2.749-6.162-2.278-3.402-6.557-8.096-6.557-8.096s3.585-2.054 6.793-2.7c3.208-0.646 7.879-1.024 7.879-1.024 0.127 0.356 0.145 0.745 0.051 1.112s-0.294 0.695-0.574 0.937l-5.533 4.968c-0.246 0.22-0.429 0.506-0.528 0.828s-0.112 0.667-0.036 0.996l1.703 7.433z"></path>
<path fill="#fcd01e" style="fill: var(--color10, #fcd01e)" d="M107.892 23.854c-2.153-3.204-6.108-7.564-6.521-8.052 5.617 0.915 7.921 3.686 7.921 3.686l0.173 0.307c-0.132 0.348-0.157 0.731-0.073 1.095l1.698 7.433c0.071 0.302 0.067 0.618-0.013 0.917s-0.232 0.572-0.442 0.792c-0.612-2.193-1.537-4.276-2.743-6.179z"></path>
<path fill="#f58220" style="fill: var(--color9, #f58220)" d="M91.575 28.308c-0.071 0.302-0.067 0.618 0.013 0.917s0.232 0.572 0.442 0.792c0.614-2.187 1.539-4.264 2.743-6.162 2.278-3.402 6.562-8.096 6.562-8.096s-3.579-2.054-6.792-2.7c-3.213-0.646-7.837-1.024-7.837-1.024-0.133 0.352-0.157 0.74-0.069 1.107s0.284 0.697 0.56 0.942l5.538 4.968c0.245 0.221 0.426 0.508 0.525 0.829s0.111 0.666 0.035 0.995l-1.719 7.433z"></path>
<path fill="#fbae1a" style="fill: var(--color11, #fbae1a)" d="M94.772 23.854c2.147-3.204 6.103-7.564 6.521-8.052-5.622 0.915-7.921 3.686-7.921 3.686l-0.173 0.307c0.131 0.349 0.154 0.732 0.068 1.095l-1.693 7.433c-0.071 0.302-0.067 0.618 0.013 0.917s0.232 0.572 0.442 0.792c0.612-2.193 1.537-4.276 2.743-6.179z"></path>
<path fill="#f4ee72" style="fill: var(--color8, #f4ee72)" d="M92.317 29.085c1.117-2.691 2.61-5.192 4.431-7.422 2.921-3.549 4.582-5.297 4.582-5.297 2.414 2.398 4.551 5.084 6.369 8.003 2.481 4.229 2.842 5.335 2.842 5.335-0.825-2.707-1.956-5.3-3.37-7.723-1.523-2.564-3.348-4.916-5.434-7l-1.196 0.389c0 0-7.221 8.068-8.224 13.716z"></path>
<path fill="#fcd01e" style="fill: var(--color10, #fcd01e)" d="M101.753 14.986l-1.197 0.389c0 0-7.237 8.063-8.239 13.71 1.117-2.691 2.61-5.193 4.431-7.422 2.921-3.549 4.582-5.297 4.582-5.297l0.423-1.38z"></path>
<path fill="#fff" style="fill: var(--color12, #fff)" d="M87.076 12.067c0 0 3.067 0.104 7.127 0.548 2.218 0.177 4.386 0.781 6.395 1.78 0 0 0.267-5.576 0.481-8.819s0.215-4.075 0.215-4.075 0.36 8.392 0.444 10.55c0.083 2.158 0.319 2.344 0.319 2.344l-0.763 1.424c0 0-3.349-2.536-14.217-3.752z"></path>
<path fill="#fff" style="fill: var(--color12, #fff)" d="M116.017 12.138c0.003 0.022 0.003 0.044 0 0.066 0.003-0.022 0.003-0.044 0-0.066z"></path>
<path fill="#fff" style="fill: var(--color12, #fff)" d="M115.965 12.034c-0.114-0.325-0.315-0.609-0.58-0.817s-0.58-0.331-0.909-0.356l-7.263-0.613c-0.357-0.029-0.697-0.174-0.972-0.416 0 0-2.555 1.095-4.932 5.916 0 0 3.584-2.054 6.792-2.7s7.675-0.997 7.864-1.013z"></path>
<path fill="#fff" style="fill: var(--color12, #fff)" d="M116.090 12.494c0.002 0.011 0.002 0.022 0 0.033 0.002-0.011 0.002-0.022 0-0.033z"></path>
<path fill="#8e381e" style="fill: var(--color7, #8e381e)" d="M103.681 16.328l5.669 3.999c0.015-0.244 0.075-0.482 0.18-0.7s0.249-0.412 0.427-0.571l0.266-0.241c-0.753-0.564-1.571-1.026-2.435-1.375-1.321-0.543-2.7-0.917-4.107-1.112z"></path>
<path fill="#8e381e" style="fill: var(--color7, #8e381e)" d="M102.123 26.259c-0.158-0.302-0.283-0.622-0.371-0.953-0.136-0.581-0.324-7.345-0.324-7.345s-0.157 6.184-0.272 7.192c-0.011 0.203-0.063 0.402-0.153 0.582s-0.216 0.339-0.369 0.464c0.237-0.107 0.493-0.158 0.751-0.147s0.51 0.081 0.738 0.207z"></path>
<path fill="#8e381e" style="fill: var(--color7, #8e381e)" d="M159.854 12.001c-0.185-0.587-0.533-1.103-0.997-1.483s-1.027-0.607-1.615-0.653l-7.268-0.608c-0.095-0.008-0.187-0.044-0.264-0.103s-0.138-0.139-0.175-0.231l-2.785-7.011c-0.227-0.567-0.609-1.052-1.098-1.392s-1.063-0.521-1.651-0.52c-0.587-0.002-1.163 0.179-1.653 0.519s-0.873 0.825-1.101 1.393l-2.801 7.011c-0.037 0.092-0.097 0.173-0.175 0.231s-0.169 0.094-0.264 0.103l-7.268 0.602c-0.585 0.045-1.143 0.271-1.605 0.65s-0.806 0.893-0.989 1.477c-0.182 0.584-0.195 1.212-0.037 1.804s0.481 1.121 0.927 1.52l5.539 4.93c0.073 0.066 0.128 0.152 0.157 0.249s0.033 0.2 0.010 0.299l-1.714 7.384c-0.139 0.597-0.104 1.224 0.1 1.8s0.567 1.075 1.044 1.432c0.477 0.362 1.046 0.568 1.634 0.592s1.171-0.134 1.673-0.455l6.218-3.955c0.079-0.048 0.169-0.073 0.261-0.073s0.181 0.025 0.261 0.073l6.223 3.96c0.502 0.319 1.083 0.477 1.671 0.452s1.155-0.229 1.631-0.589c0.477-0.357 0.84-0.856 1.044-1.432s0.239-1.203 0.1-1.8l-1.641-7.384c-0.023-0.099-0.020-0.202 0.010-0.299s0.084-0.183 0.157-0.249l5.539-4.93c0.448-0.395 0.773-0.922 0.933-1.513s0.148-1.218-0.034-1.801z"></path>
<path fill="#f4ee72" style="fill: var(--color8, #f4ee72)" d="M151.128 30.307l-6.217-3.988c-0.275-0.177-0.592-0.271-0.915-0.271s-0.639 0.094-0.914 0.271l-6.223 3.982c-0.295 0.186-0.636 0.276-0.981 0.26s-0.676-0.138-0.955-0.351c-0.278-0.213-0.491-0.506-0.611-0.845s-0.143-0.706-0.065-1.058l1.693-7.433c0.076-0.329 0.064-0.673-0.035-0.995s-0.28-0.609-0.525-0.829l-5.538-4.968c-0.261-0.237-0.451-0.55-0.543-0.899s-0.085-0.719 0.023-1.064c0.107-0.345 0.309-0.648 0.58-0.873s0.599-0.361 0.944-0.391l7.263-0.608c0.321-0.027 0.63-0.146 0.891-0.346s0.465-0.47 0.587-0.783l2.795-7.055c0.133-0.335 0.357-0.622 0.645-0.824s0.627-0.309 0.973-0.309 0.685 0.108 0.973 0.309c0.288 0.202 0.512 0.488 0.645 0.824l2.801 7.061c0.127 0.307 0.332 0.571 0.593 0.765s0.567 0.308 0.886 0.331l7.262 0.614c0.345 0.028 0.675 0.164 0.947 0.389s0.474 0.529 0.581 0.875c0.107 0.345 0.114 0.716 0.019 1.066s-0.285 0.662-0.549 0.897l-5.533 4.995c-0.246 0.22-0.429 0.506-0.53 0.828s-0.114 0.666-0.040 0.996l1.693 7.433c0.078 0.353 0.056 0.722-0.065 1.061s-0.334 0.634-0.613 0.847c-0.279 0.213-0.613 0.335-0.957 0.35s-0.687-0.076-0.983-0.264z"></path>
<path fill="#f58220" style="fill: var(--color9, #f58220)" d="M151.384 23.394c-2.79-3.489-7.425-7.592-7.425-7.592s-5.183 4.146-7.346 7.362c-1.321 2.011-1.993 4.412-1.917 6.852 0.275 0.3 0.64 0.491 1.033 0.543s0.793-0.039 1.129-0.258l6.223-3.982c0.275-0.177 0.591-0.271 0.914-0.271s0.639 0.094 0.915 0.271l6.217 3.988c0.391 0.252 0.861 0.332 1.307 0.223s0.835-0.397 1.081-0.804c-0.020-2.3-0.77-4.528-2.132-6.332z"></path>
<path fill="#fcd01e" style="fill: var(--color10, #fcd01e)" d="M143.959 0.937c-0.338 0.006-0.667 0.117-0.945 0.317s-0.495 0.483-0.622 0.811l-2.801 7.055c-0.123 0.313-0.327 0.584-0.587 0.783s-0.569 0.319-0.891 0.346l-7.263 0.608c-0.431 0.033-0.835 0.232-1.134 0.56s-0.47 0.761-0.48 1.214c1.317 0.389 2.774 0.712 3.991 1.041 3.626 0.98 10.743 2.131 10.743 2.131l-0.011-14.866z"></path>
<path fill="#f58220" style="fill: var(--color9, #f58220)" d="M153.757 28.308c0.071 0.301 0.067 0.617-0.012 0.916s-0.229 0.572-0.437 0.793c-0.618-2.186-1.545-4.263-2.749-6.162-2.278-3.402-6.557-8.096-6.557-8.096s3.585-2.054 6.793-2.7c3.208-0.646 7.879-1.024 7.879-1.024 0.127 0.356 0.145 0.745 0.051 1.112s-0.294 0.695-0.574 0.937l-5.533 4.968c-0.246 0.22-0.429 0.506-0.528 0.828s-0.112 0.667-0.036 0.996l1.703 7.433z"></path>
<path fill="#fcd01e" style="fill: var(--color10, #fcd01e)" d="M150.559 23.854c-2.153-3.204-6.108-7.564-6.521-8.052 5.617 0.915 7.921 3.686 7.921 3.686l0.173 0.307c-0.132 0.348-0.157 0.731-0.073 1.095l1.698 7.433c0.071 0.302 0.067 0.618-0.013 0.917s-0.232 0.572-0.442 0.792c-0.612-2.193-1.537-4.276-2.743-6.179z"></path>
<path fill="#f58220" style="fill: var(--color9, #f58220)" d="M134.241 28.308c-0.071 0.302-0.067 0.618 0.013 0.917s0.232 0.572 0.442 0.792c0.614-2.187 1.539-4.264 2.743-6.162 2.278-3.402 6.562-8.096 6.562-8.096s-3.579-2.054-6.792-2.7c-3.213-0.646-7.837-1.024-7.837-1.024-0.133 0.352-0.157 0.74-0.069 1.107s0.284 0.697 0.56 0.942l5.538 4.968c0.245 0.221 0.426 0.508 0.525 0.829s0.111 0.666 0.035 0.995l-1.719 7.433z"></path>
<path fill="#fbae1a" style="fill: var(--color11, #fbae1a)" d="M137.439 23.854c2.147-3.204 6.103-7.564 6.521-8.052-5.622 0.915-7.921 3.686-7.921 3.686l-0.173 0.307c0.131 0.349 0.154 0.732 0.068 1.095l-1.693 7.433c-0.071 0.302-0.067 0.618 0.013 0.917s0.232 0.572 0.442 0.792c0.612-2.193 1.537-4.276 2.743-6.179z"></path>
<path fill="#f4ee72" style="fill: var(--color8, #f4ee72)" d="M134.983 29.085c1.117-2.691 2.61-5.192 4.431-7.422 2.921-3.549 4.582-5.297 4.582-5.297 2.414 2.398 4.551 5.084 6.369 8.003 2.481 4.229 2.842 5.335 2.842 5.335-0.825-2.707-1.956-5.3-3.37-7.723-1.523-2.564-3.348-4.916-5.434-7l-1.196 0.389c0 0-7.221 8.068-8.224 13.716z"></path>
<path fill="#fcd01e" style="fill: var(--color10, #fcd01e)" d="M144.419 14.986l-1.197 0.389c0 0-7.237 8.063-8.239 13.71 1.117-2.691 2.61-5.193 4.431-7.422 2.921-3.549 4.582-5.297 4.582-5.297l0.423-1.38z"></path>
<path fill="#fff" style="fill: var(--color12, #fff)" d="M129.743 12.067c0 0 3.067 0.104 7.127 0.548 2.218 0.177 4.386 0.781 6.395 1.78 0 0 0.267-5.576 0.481-8.819s0.215-4.075 0.215-4.075 0.36 8.392 0.444 10.55c0.083 2.158 0.319 2.344 0.319 2.344l-0.763 1.424c0 0-3.349-2.536-14.217-3.752z"></path>
<path fill="#fff" style="fill: var(--color12, #fff)" d="M158.683 12.138c0.003 0.022 0.003 0.044 0 0.066 0.003-0.022 0.003-0.044 0-0.066z"></path>
<path fill="#fff" style="fill: var(--color12, #fff)" d="M158.631 12.034c-0.114-0.325-0.315-0.609-0.58-0.817s-0.58-0.331-0.909-0.356l-7.263-0.613c-0.357-0.029-0.697-0.174-0.972-0.416 0 0-2.555 1.095-4.932 5.916 0 0 3.584-2.054 6.792-2.7s7.675-0.997 7.864-1.013z"></path>
<path fill="#fff" style="fill: var(--color12, #fff)" d="M158.757 12.494c0.002 0.011 0.002 0.022 0 0.033 0.002-0.011 0.002-0.022 0-0.033z"></path>
<path fill="#8e381e" style="fill: var(--color7, #8e381e)" d="M146.347 16.328l5.669 3.999c0.015-0.244 0.075-0.482 0.18-0.7s0.249-0.412 0.427-0.571l0.266-0.241c-0.753-0.564-1.571-1.026-2.435-1.375-1.321-0.543-2.7-0.917-4.107-1.112z"></path>
<path fill="#8e381e" style="fill: var(--color7, #8e381e)" d="M144.79 26.259c-0.158-0.302-0.283-0.622-0.371-0.953-0.136-0.581-0.324-7.345-0.324-7.345s-0.157 6.184-0.272 7.192c-0.011 0.203-0.063 0.402-0.153 0.582s-0.216 0.339-0.369 0.464c0.237-0.107 0.493-0.158 0.751-0.147s0.51 0.081 0.738 0.207z"></path>
<path fill="#8e381e" style="fill: var(--color7, #8e381e)" d="M202.521 12.001c-0.185-0.587-0.533-1.103-0.997-1.483s-1.027-0.607-1.615-0.653l-7.268-0.608c-0.095-0.008-0.187-0.044-0.264-0.103s-0.138-0.139-0.175-0.231l-2.785-7.011c-0.227-0.567-0.609-1.052-1.098-1.392s-1.063-0.521-1.651-0.52c-0.587-0.002-1.163 0.179-1.653 0.519s-0.873 0.825-1.101 1.393l-2.801 7.011c-0.037 0.092-0.097 0.173-0.175 0.231s-0.169 0.094-0.264 0.103l-7.268 0.602c-0.585 0.045-1.143 0.271-1.605 0.65s-0.806 0.893-0.989 1.477c-0.182 0.584-0.195 1.212-0.037 1.804s0.481 1.121 0.927 1.52l5.539 4.93c0.073 0.066 0.128 0.152 0.157 0.249s0.033 0.2 0.010 0.299l-1.714 7.384c-0.139 0.597-0.104 1.224 0.1 1.8s0.567 1.075 1.044 1.432c0.477 0.362 1.046 0.568 1.634 0.592s1.171-0.134 1.673-0.455l6.218-3.955c0.079-0.048 0.169-0.073 0.261-0.073s0.181 0.025 0.261 0.073l6.223 3.96c0.502 0.319 1.083 0.477 1.671 0.452s1.155-0.229 1.631-0.589c0.477-0.357 0.84-0.856 1.044-1.432s0.239-1.203 0.1-1.8l-1.641-7.384c-0.023-0.099-0.020-0.202 0.010-0.299s0.084-0.183 0.157-0.249l5.539-4.93c0.448-0.395 0.773-0.922 0.933-1.513s0.148-1.218-0.034-1.801z"></path>
<path fill="#f4ee72" style="fill: var(--color8, #f4ee72)" d="M193.795 30.307l-6.217-3.988c-0.275-0.177-0.592-0.271-0.915-0.271s-0.639 0.094-0.914 0.271l-6.223 3.982c-0.295 0.186-0.636 0.276-0.981 0.26s-0.676-0.138-0.955-0.351c-0.278-0.213-0.491-0.506-0.611-0.845s-0.143-0.706-0.065-1.058l1.693-7.433c0.076-0.329 0.064-0.673-0.035-0.995s-0.28-0.609-0.525-0.829l-5.538-4.968c-0.261-0.237-0.451-0.55-0.543-0.899s-0.085-0.719 0.023-1.064c0.107-0.345 0.309-0.648 0.58-0.873s0.599-0.361 0.944-0.391l7.263-0.608c0.321-0.027 0.63-0.146 0.891-0.346s0.465-0.47 0.587-0.783l2.795-7.055c0.133-0.335 0.357-0.622 0.645-0.824s0.627-0.309 0.973-0.309 0.685 0.108 0.973 0.309c0.288 0.202 0.512 0.488 0.645 0.824l2.801 7.061c0.127 0.307 0.332 0.571 0.593 0.765s0.567 0.308 0.886 0.331l7.262 0.614c0.345 0.028 0.675 0.164 0.947 0.389s0.474 0.529 0.581 0.875c0.107 0.345 0.114 0.716 0.019 1.066s-0.285 0.662-0.549 0.897l-5.533 4.995c-0.246 0.22-0.429 0.506-0.53 0.828s-0.114 0.666-0.040 0.996l1.693 7.433c0.078 0.353 0.056 0.722-0.065 1.061s-0.334 0.634-0.613 0.847c-0.279 0.213-0.613 0.335-0.957 0.35s-0.687-0.076-0.983-0.264z"></path>
<path fill="#f58220" style="fill: var(--color9, #f58220)" d="M194.051 23.394c-2.79-3.489-7.425-7.592-7.425-7.592s-5.183 4.146-7.346 7.362c-1.321 2.011-1.993 4.412-1.917 6.852 0.275 0.3 0.64 0.491 1.033 0.543s0.793-0.039 1.129-0.258l6.223-3.982c0.275-0.177 0.591-0.271 0.914-0.271s0.639 0.094 0.915 0.271l6.217 3.988c0.391 0.252 0.861 0.332 1.307 0.223s0.835-0.397 1.081-0.804c-0.020-2.3-0.77-4.528-2.132-6.332z"></path>
<path fill="#fcd01e" style="fill: var(--color10, #fcd01e)" d="M186.626 0.937c-0.338 0.006-0.667 0.117-0.945 0.317s-0.495 0.483-0.622 0.811l-2.801 7.055c-0.123 0.313-0.327 0.584-0.587 0.783s-0.569 0.319-0.891 0.346l-7.263 0.608c-0.431 0.033-0.835 0.232-1.134 0.56s-0.47 0.761-0.48 1.214c1.317 0.389 2.774 0.712 3.991 1.041 3.626 0.98 10.743 2.131 10.743 2.131l-0.011-14.866z"></path>
<path fill="#f58220" style="fill: var(--color9, #f58220)" d="M196.423 28.308c0.071 0.301 0.067 0.617-0.012 0.916s-0.229 0.572-0.437 0.793c-0.618-2.186-1.545-4.263-2.749-6.162-2.278-3.402-6.557-8.096-6.557-8.096s3.585-2.054 6.793-2.7c3.208-0.646 7.879-1.024 7.879-1.024 0.127 0.356 0.145 0.745 0.051 1.112s-0.294 0.695-0.574 0.937l-5.533 4.968c-0.246 0.22-0.429 0.506-0.528 0.828s-0.112 0.667-0.036 0.996l1.703 7.433z"></path>
<path fill="#fcd01e" style="fill: var(--color10, #fcd01e)" d="M193.225 23.854c-2.153-3.204-6.108-7.564-6.521-8.052 5.617 0.915 7.921 3.686 7.921 3.686l0.173 0.307c-0.132 0.348-0.157 0.731-0.073 1.095l1.698 7.433c0.071 0.302 0.067 0.618-0.013 0.917s-0.232 0.572-0.442 0.792c-0.612-2.193-1.537-4.276-2.743-6.179z"></path>
<path fill="#f58220" style="fill: var(--color9, #f58220)" d="M176.908 28.308c-0.071 0.302-0.067 0.618 0.013 0.917s0.232 0.572 0.442 0.792c0.614-2.187 1.539-4.264 2.743-6.162 2.278-3.402 6.562-8.096 6.562-8.096s-3.579-2.054-6.792-2.7c-3.213-0.646-7.837-1.024-7.837-1.024-0.133 0.352-0.157 0.74-0.069 1.107s0.284 0.697 0.56 0.942l5.538 4.968c0.245 0.221 0.426 0.508 0.525 0.829s0.111 0.666 0.035 0.995l-1.719 7.433z"></path>
<path fill="#fbae1a" style="fill: var(--color11, #fbae1a)" d="M180.105 23.854c2.147-3.204 6.103-7.564 6.521-8.052-5.622 0.915-7.921 3.686-7.921 3.686l-0.173 0.307c0.131 0.349 0.154 0.732 0.068 1.095l-1.693 7.433c-0.071 0.302-0.067 0.618 0.013 0.917s0.232 0.572 0.442 0.792c0.612-2.193 1.537-4.276 2.743-6.179z"></path>
<path fill="#f4ee72" style="fill: var(--color8, #f4ee72)" d="M177.65 29.085c1.117-2.691 2.61-5.192 4.431-7.422 2.921-3.549 4.582-5.297 4.582-5.297 2.414 2.398 4.551 5.084 6.369 8.003 2.481 4.229 2.842 5.335 2.842 5.335-0.825-2.707-1.956-5.3-3.37-7.723-1.523-2.564-3.348-4.916-5.434-7l-1.196 0.389c0 0-7.221 8.068-8.224 13.716z"></path>
<path fill="#fcd01e" style="fill: var(--color10, #fcd01e)" d="M187.086 14.986l-1.197 0.389c0 0-7.237 8.063-8.239 13.71 1.117-2.691 2.61-5.193 4.431-7.422 2.921-3.549 4.582-5.297 4.582-5.297l0.423-1.38z"></path>
<path fill="#fff" style="fill: var(--color12, #fff)" d="M172.409 12.067c0 0 3.067 0.104 7.127 0.548 2.218 0.177 4.386 0.781 6.395 1.78 0 0 0.267-5.576 0.481-8.819s0.215-4.075 0.215-4.075 0.36 8.392 0.444 10.55c0.083 2.158 0.319 2.344 0.319 2.344l-0.763 1.424c0 0-3.349-2.536-14.217-3.752z"></path>
<path fill="#fff" style="fill: var(--color12, #fff)" d="M201.35 12.138c0.003 0.022 0.003 0.044 0 0.066 0.003-0.022 0.003-0.044 0-0.066z"></path>
<path fill="#fff" style="fill: var(--color12, #fff)" d="M201.298 12.034c-0.114-0.325-0.315-0.609-0.58-0.817s-0.58-0.331-0.909-0.356l-7.263-0.613c-0.357-0.029-0.697-0.174-0.972-0.416 0 0-2.555 1.095-4.932 5.916 0 0 3.584-2.054 6.792-2.7s7.675-0.997 7.864-1.013z"></path>
<path fill="#fff" style="fill: var(--color12, #fff)" d="M201.423 12.494c0.002 0.011 0.002 0.022 0 0.033 0.002-0.011 0.002-0.022 0-0.033z"></path>
<path fill="#8e381e" style="fill: var(--color7, #8e381e)" d="M189.014 16.328l5.669 3.999c0.015-0.244 0.075-0.482 0.18-0.7s0.249-0.412 0.427-0.571l0.266-0.241c-0.753-0.564-1.571-1.026-2.435-1.375-1.321-0.543-2.7-0.917-4.107-1.112z"></path>
<path fill="#8e381e" style="fill: var(--color7, #8e381e)" d="M187.457 26.259c-0.158-0.302-0.283-0.622-0.371-0.953-0.136-0.581-0.324-7.345-0.324-7.345s-0.157 6.184-0.272 7.192c-0.011 0.203-0.063 0.402-0.153 0.582s-0.216 0.339-0.369 0.464c0.237-0.107 0.493-0.158 0.751-0.147s0.51 0.081 0.738 0.207z"></path>
</symbol>
<symbol id="icon-google_play" viewBox="0 0 104 32">
<path fill="#f5f5f5" style="fill: var(--color39, #f5f5f5)" d="M1.753 0.219h100.384c0.847 0 1.534 0.687 1.534 1.534v28.493c0 0.847-0.687 1.534-1.534 1.534h-100.384c-0.847 0-1.534-0.687-1.534-1.534v-28.493c0-0.847 0.687-1.534 1.534-1.534z"></path>
<path fill="#080808" style="fill: var(--color40, #080808)" d="M52.435 17.401c-1.81 0-3.285 1.431-3.285 3.402 0 1.959 1.475 3.402 3.285 3.402s3.286-1.443 3.286-3.402c-0.001-1.971-1.476-3.402-3.286-3.402zM52.435 22.866c-0.992 0-1.847-0.85-1.847-2.062 0-1.225 0.856-2.062 1.847-2.062s1.847 0.838 1.847 2.062c0 1.211-0.855 2.062-1.847 2.062zM45.267 17.401c-1.81 0-3.285 1.431-3.285 3.402 0 1.959 1.475 3.402 3.285 3.402s3.286-1.443 3.286-3.402c0-1.971-1.475-3.402-3.286-3.402zM45.267 22.866c-0.992 0-1.847-0.85-1.847-2.062 0-1.225 0.856-2.062 1.847-2.062s1.847 0.838 1.847 2.062c0 1.211-0.855 2.062-1.847 2.062zM36.742 18.446v1.443h3.323c-0.099 0.812-0.359 1.405-0.756 1.817-0.483 0.502-1.24 1.057-2.566 1.057-2.045 0-3.645-1.714-3.645-3.841s1.599-3.841 3.645-3.841c1.104 0 1.909 0.451 2.504 1.031l0.98-1.018c-0.831-0.825-1.934-1.456-3.484-1.456-2.802 0-5.158 2.371-5.158 5.284s2.356 5.284 5.158 5.284c1.512 0 2.653-0.516 3.545-1.482 0.917-0.954 1.203-2.294 1.203-3.377 0-0.334-0.025-0.644-0.075-0.902l-4.674 0.001zM71.609 19.567c-0.273-0.76-1.104-2.166-2.802-2.166-1.686 0-3.087 1.379-3.087 3.402 0 1.907 1.389 3.402 3.248 3.402 1.5 0 2.368-0.954 2.728-1.508l-1.116-0.774c-0.372 0.567-0.881 0.941-1.612 0.941s-1.252-0.348-1.587-1.031l4.377-1.882-0.149-0.386zM67.146 20.701c-0.037-1.315 0.98-1.985 1.711-1.985 0.57 0 1.053 0.297 1.215 0.722l-2.926 1.263zM63.588 24h1.437v-10.001h-1.437v10.001zM61.231 18.162h-0.049c-0.323-0.4-0.943-0.761-1.723-0.761-1.637 0-3.136 1.495-3.136 3.416 0 1.907 1.5 3.39 3.136 3.39 0.781 0 1.401-0.361 1.723-0.773h0.049v0.49c0 1.302-0.669 1.998-1.748 1.998-0.88 0-1.426-0.657-1.649-1.211l-1.252 0.542c0.359 0.902 1.314 2.010 2.901 2.010 1.686 0 3.112-1.031 3.112-3.545v-6.109h-1.364v0.554h-0.001zM59.583 22.866c-0.992 0-1.822-0.864-1.822-2.050 0-1.199 0.83-2.075 1.822-2.075 0.979 0 1.748 0.876 1.748 2.075 0 1.186-0.769 2.050-1.748 2.050zM78.346 13.999h-3.441v10.001h1.435v-3.789h2.005c1.592 0 3.157-1.198 3.157-3.106s-1.564-3.106-3.156-3.106zM78.382 18.819h-2.042v-3.428h2.042c1.074 0 1.683 0.924 1.683 1.714 0 0.774-0.61 1.714-1.683 1.714zM87.257 17.383c-1.039 0-2.116 0.476-2.562 1.531l1.274 0.553c0.273-0.553 0.781-0.734 1.312-0.734 0.743 0 1.497 0.463 1.51 1.286v0.103c-0.26-0.154-0.817-0.386-1.497-0.386-1.374 0-2.773 0.785-2.773 2.251 0 1.338 1.127 2.2 2.389 2.2 0.965 0 1.497-0.45 1.831-0.978h0.049v0.772h1.387v-3.834c0.001-1.774-1.275-2.765-2.921-2.765zM87.083 22.864c-0.469 0-1.126-0.245-1.126-0.85 0-0.772 0.818-1.068 1.523-1.068 0.63 0 0.928 0.142 1.311 0.334-0.112 0.927-0.879 1.583-1.708 1.583zM95.228 17.602l-1.646 4.336h-0.050l-1.708-4.336h-1.547l2.562 6.060-1.461 3.371h1.498l3.948-9.431h-1.597zM82.294 24h1.435v-10.001h-1.435v10.001z"></path>
<path fill="#080808" style="fill: var(--color40, #080808)" d="M36.491 8.194c0 0.67-0.191 1.204-0.573 1.602-0.434 0.474-1 0.71-1.696 0.71-0.666 0-1.234-0.24-1.699-0.72s-0.7-1.076-0.7-1.786c0-0.711 0.233-1.306 0.7-1.786s1.033-0.721 1.699-0.721c0.331 0 0.647 0.067 0.947 0.201s0.542 0.313 0.722 0.536l-0.406 0.422c-0.306-0.38-0.726-0.57-1.264-0.57-0.486 0-0.907 0.178-1.261 0.533s-0.532 0.817-0.532 1.384c0 0.567 0.177 1.029 0.532 1.384s0.775 0.533 1.261 0.533c0.516 0 0.946-0.178 1.29-0.536 0.223-0.233 0.352-0.557 0.387-0.972h-1.677v-0.577h2.237c0.023 0.126 0.033 0.246 0.033 0.362z"></path>
<path fill="#080808" style="fill: var(--color40, #080808)" d="M40.039 6.19h-2.102v1.522h1.896v0.577h-1.896v1.522h2.102v0.59h-2.696v-4.8h2.696v0.59z"></path>
<path fill="#080808" style="fill: var(--color40, #080808)" d="M42.54 10.4h-0.593v-4.21h-1.29v-0.59h3.173v0.59h-1.29v4.21z"></path>
<path fill="#080808" style="fill: var(--color40, #080808)" d="M46.126 10.4v-4.8h0.594v4.8h-0.594z"></path>
<path fill="#080808" style="fill: var(--color40, #080808)" d="M49.351 10.4h-0.594v-4.21h-1.29v-0.59h3.173v0.59h-1.29v4.21z"></path>
<path fill="#080808" style="fill: var(--color40, #080808)" d="M56.647 9.78c-0.454 0.485-1.018 0.727-1.693 0.727s-1.239-0.242-1.692-0.727c-0.454-0.485-0.68-1.078-0.68-1.78s0.226-1.295 0.68-1.78c0.453-0.485 1.017-0.728 1.692-0.728 0.671 0 1.234 0.244 1.69 0.731s0.683 1.079 0.683 1.777c0 0.702-0.227 1.295-0.68 1.78zM53.699 9.378c0.341 0.36 0.76 0.539 1.254 0.539s0.914-0.18 1.255-0.539c0.341-0.36 0.513-0.819 0.513-1.378s-0.172-1.018-0.513-1.378c-0.341-0.36-0.76-0.539-1.255-0.539s-0.913 0.18-1.254 0.539c-0.341 0.36-0.512 0.819-0.512 1.378s0.171 1.018 0.512 1.378z"></path>
<path fill="#080808" style="fill: var(--color40, #080808)" d="M58.159 10.4v-4.8h0.722l2.244 3.734h0.025l-0.025-0.925v-2.809h0.593v4.8h-0.619l-2.348-3.915h-0.025l0.025 0.925v2.99h-0.592z"></path>
<path fill="#000" style="fill: var(--color4, #000)" d="M8.004 6.030c-0.223 0.246-0.355 0.629-0.355 1.124v17.693c0 0.496 0.132 0.878 0.355 1.124l0.057 0.058 9.502-9.911v-0.234l-9.502-9.912-0.057 0.058z"></path>
<path fill="#000" style="fill: var(--color4, #000)" d="M20.73 19.422l-3.167-3.305v-0.234l3.168-3.304 0.071 0.042 3.753 2.224c1.071 0.635 1.071 1.674 0 2.31l-3.825 2.266z"></path>
<path fill="#000" style="fill: var(--color4, #000)" d="M20.802 19.38l-3.24-3.379-9.558 9.97c0.353 0.39 0.937 0.438 1.594 0.050l11.204-6.641z"></path>
<path fill="#000" style="fill: var(--color4, #000)" d="M20.802 12.622l-11.204-6.64c-0.657-0.39-1.241-0.341-1.594 0.050l9.559 9.97 3.239-3.38z"></path>
</symbol>
<symbol id="icon-logo" viewBox="0 0 62 32">
<path d="M0 0h62.221v32h-62.221v-32z"></path>
</symbol>
</defs>
</svg>
