<svg aria-hidden="true" style="position: absolute; width: 0; height: 0; overflow: hidden;" version="1.1" xmlns="http://www.w3.org/2000/svg" xmlns:xlink="http://www.w3.org/1999/xlink">
<defs>
<symbol id="icon-arrow-down" viewBox="0 0 25 32">
<path d="M18.783 22.397l6.261-9.23-12.522 7.622-12.522-7.622 12.522 18.461 6.261-9.23z"></path>
<path d="M11.938 18.719v-4.184l-5.127-2.968v4.183l5.127 2.968z"></path>
<path d="M11.938 13.383v-4.183l-5.127-2.968v4.184l5.127 2.968z"></path>
<path d="M11.938 8.044v-4.184l-5.127-2.968v4.184l5.127 2.968z"></path>
<path d="M13.104 18.719v-4.184l5.127-2.968v4.183l-5.127 2.968z"></path>
<path d="M13.104 13.383v-4.183l5.127-2.968v4.184l-5.127 2.968z"></path>
<path d="M13.104 8.044v-4.184l5.127-2.968v4.184l-5.127 2.968z"></path>
</symbol>
<symbol id="icon-arrow-left" viewBox="0 0 39 32">
<path d="M12.14 23.63l11.287 7.656-9.32-15.311 9.32-15.311-22.573 15.311 11.286 7.656z"></path>
<path d="M16.636 15.26h5.116l3.629-6.269h-5.115l-3.629 6.269z"></path>
<path d="M23.162 15.26h5.115l3.629-6.269h-5.115l-3.629 6.269z"></path>
<path d="M29.69 15.26h5.115l3.629-6.269h-5.115l-3.629 6.269z"></path>
<path d="M16.636 16.687h5.116l3.629 6.268h-5.115l-3.629-6.268z"></path>
<path d="M23.162 16.687h5.115l3.629 6.268h-5.115l-3.629-6.268z"></path>
<path d="M29.69 16.687h5.115l3.629 6.268h-5.115l-3.629-6.268z"></path>
</symbol>
<symbol id="icon-burger" viewBox="0 0 45 32">
<path d="M2.767 31.333h38.894c1.337 0 2.431-1.15 2.431-2.556s-1.094-2.555-2.431-2.555h-38.894c-1.337 0-2.431 1.15-2.431 2.555s1.094 2.556 2.431 2.556zM2.767 18.556h38.894c1.337 0 2.431-1.15 2.431-2.556s-1.094-2.556-2.431-2.556h-38.894c-1.337 0-2.431 1.15-2.431 2.556s1.094 2.556 2.431 2.556zM0.336 3.222c0 1.406 1.094 2.556 2.431 2.556h38.894c1.337 0 2.431-1.15 2.431-2.556s-1.094-2.556-2.431-2.556h-38.894c-1.337 0-2.431 1.15-2.431 2.556z"></path>
</symbol>
<symbol id="icon-close" viewBox="0 0 32 32">
<path d="M4.175 30.861c-0.912 0.912-2.391 0.912-3.303 0s-0.912-2.391 0-3.303l11.559-11.559-11.559-11.559c-0.912-0.912-0.912-2.391 0-3.303s2.391-0.912 3.303 0l11.559 11.559 11.559-11.559c0.912-0.912 2.391-0.912 3.303 0s0.912 2.391 0 3.303l-11.559 11.559 11.559 11.559c0.912 0.912 0.912 2.391 0 3.303s-2.391 0.912-3.303 0l-11.559-11.559-11.559 11.559z"></path>
</symbol>
<symbol id="icon-arrow-right" viewBox="0 0 39 32">
<path d="M27.255 8.37l-11.287-7.656 9.32 15.311-9.32 15.311 22.573-15.311-11.286-7.656z"></path>
<path d="M22.759 16.74h-5.116l-3.629 6.269h5.115l3.629-6.269z"></path>
<path d="M16.233 16.74h-5.115l-3.629 6.269h5.115l3.629-6.269z"></path>
<path d="M9.705 16.74h-5.115l-3.629 6.269h5.115l3.629-6.269z"></path>
<path d="M22.759 15.313h-5.116l-3.629-6.268h5.115l3.629 6.268z"></path>
<path d="M16.233 15.313h-5.115l-3.629-6.268h5.115l3.629 6.268z"></path>
<path d="M9.705 15.313h-5.115l-3.629-6.268h5.115l3.629 6.268z"></path>
</symbol>
</defs>
</svg>
