<svg aria-hidden="true" version="1.1" xmlns="http://www.w3.org/2000/svg" xmlns:xlink="http://www.w3.org/1999/xlink">
<defs>
<symbol id="icon-menu" viewBox="0 0 27 32">
<path d="M2.8 7.493c-0.313 0.163-0.433 0.361-0.433 0.717 0 0.271 0.105 0.472 0.334 0.642l0.128 0.096 10.379 0.011c10.272 0.012 10.38 0.011 10.555-0.078 0.281-0.144 0.389-0.334 0.389-0.684 0-0.357-0.117-0.556-0.405-0.688-0.18-0.081-0.541-0.084-10.499-0.085-9.264-0.001-10.326 0.006-10.448 0.070zM2.778 12.983c-0.283 0.148-0.411 0.352-0.411 0.662 0 0.359 0.169 0.626 0.468 0.739 0.13 0.049 15.77 0.206 17.634 0.177l0.914-0.015 0.163-0.124c0.49-0.375 0.33-1.197-0.261-1.346-0.114-0.029-2.683-0.065-6.852-0.096-3.669-0.027-7.746-0.062-9.061-0.076l-2.39-0.027-0.204 0.106zM2.823 17.625c-0.289 0.116-0.456 0.386-0.456 0.737 0 0.312 0.129 0.517 0.41 0.656l0.205 0.101 18.273 0.152 0.204-0.119c0.231-0.13 0.384-0.373 0.384-0.652 0-0.034-0.002-0.067-0.006-0.099l0 0.004c-0.034-0.252-0.108-0.373-0.329-0.541-0.149-0.114-0.208-0.128-0.581-0.14-0.453-0.016-16.733-0.151-17.512-0.147-0.263 0.002-0.529 0.023-0.592 0.048zM2.823 23.088c-0.284 0.113-0.456 0.385-0.456 0.723 0 0.284 0.084 0.457 0.304 0.624l0.168 0.128 10.338 0.012c11.518 0.013 10.594 0.039 10.851-0.297 0.107-0.14 0.125-0.207 0.125-0.467 0-0.258-0.018-0.326-0.123-0.464-0.259-0.339 0.738-0.311-10.766-0.308-6.749 0.002-10.367 0.019-10.441 0.048z"></path>
</symbol>
<symbol id="icon-close" viewBox="0 0 31 32">
<path stroke-linejoin="round" stroke-linecap="round" stroke-miterlimit="4" stroke-width="1.561" d="M24.716 4.293h-18.212c-1.437 0-2.601 1.165-2.601 2.601v0 18.212c0 1.437 1.165 2.601 2.601 2.601v0h18.212c1.437 0 2.601-1.165 2.601-2.601v0-18.212c0-1.437-1.165-2.601-2.601-2.601v0zM11.707 12.098l7.805 7.805M19.512 12.098l-7.805 7.805"></path>
</symbol>
<symbol id="google" viewBox="0 0 198 40">
<path fill="#ddfcd9" style="fill: var(--color1, #ddfcd9)" d="M63.125 11.075c-5.48 0-9.94 4.19-9.94 9.977 0 5.75 4.46 9.975 9.94 9.975 5.483 0 9.94-4.217 9.94-9.975s-4.453-9.975-9.94-9.975zM63.125 27.1c-2.99 0-5.6-2.508-5.6-6.048 0-3.6 2.578-6.050 5.6-6.050s5.6 2.45 5.6 6.050c-0.025 3.54-2.608 6.050-5.6 6.050zM89.75 13.322h-0.145c-0.965-1.18-2.843-2.245-5.22-2.245-4.95 0-9.525 4.4-9.525 10.008 0 5.575 4.545 9.945 9.525 9.945 2.375 0 4.25-1.060 5.22-2.273h0.145v1.448c0 3.805-2.025 5.842-5.278 5.842-2.667 0-4.287-1.917-4.985-3.54l-3.78 1.593c1.085 2.655 3.985 5.9 8.793 5.9 5.1 0 9.41-3.010 9.41-10.388v-17.915h-4.133l-0.030 1.623zM84.765 27.105c-2.993 0-5.513-2.54-5.513-6.020-0.002-3.515 2.523-6.085 5.513-6.085 2.963 0 5.275 2.565 5.275 6.080 0 3.512-2.315 6.020-5.275 6.020zM41.43 11.075c-5.483 0-9.94 4.188-9.94 9.975 0 5.75 4.453 9.975 9.94 9.975 5.485 0 9.94-4.217 9.94-9.975s-4.455-9.975-9.94-9.975zM41.43 27.1c-2.99 0-5.6-2.51-5.6-6.050 0-3.6 2.578-6.050 5.6-6.050 2.99 0 5.6 2.45 5.6 6.050-0.027 3.54-2.61 6.050-5.6 6.050zM15.6 14.117v4.22h10.055c-0.293 2.39-1.085 4.133-2.285 5.345-1.467 1.475-3.752 3.1-7.77 3.1-6.188 0-11.025-5.017-11.025-11.268s4.837-11.265 11.025-11.265c3.342 0 5.775 1.328 7.62 3.010l2.963-2.983c-2.525-2.395-5.863-4.277-10.557-4.277-8.47 0-15.625 6.965-15.625 15.495 0 8.525 7.125 15.492 15.628 15.492 4.575 0 8.035-1.505 10.73-4.315 2.788-2.802 3.638-6.727 3.638-9.887 0-0.023 0-0.050 0-0.077 0-0.912-0.087-1.803-0.252-2.666l0.014 0.088-14.157-0.012zM121.15 17.475c-0.82-2.245-3.343-6.345-8.473-6.345-5.1 0-9.353 4.043-9.353 9.975 0 5.578 4.19 9.975 9.823 9.975 4.542 0 7.185-2.803 8.267-4.425l-3.372-2.275c-1.115 1.68-2.665 2.745-4.868 2.745-2.2 0-3.78-1.030-4.81-3.010l13.25-5.517-0.465-1.125zM107.662 20.78c-0.117-3.865 2.963-5.813 5.192-5.813 1.728 0 3.195 0.855 3.665 2.123l-8.858 3.69zM96.875 30.46h4.34v-29.305h-4.34v29.305zM141.558 1.155h-10.405v29.305h4.338v-11.098h6.075c4.808 0 9.558-3.512 9.558-9.12 0-5.578-4.75-9.090-9.56-9.090l-0.005 0.002zM141.678 15.232h-6.188v-10.032h6.188c3.255 0 5.1 2.715 5.1 5.015s-1.847 5.018-5.1 5.018zM153.523 30.46h4.337v-29.305h-4.335v29.305zM168.535 11.040c-3.137 0-6.422 1.39-7.772 4.482l3.87 1.623c0.822-1.623 2.347-2.158 3.958-2.158 2.257 0 4.545 1.357 4.575 3.778v0.295c-1.312-0.707-2.871-1.122-4.527-1.122-0.006 0-0.013 0-0.019 0h0.001c-4.162 0-8.382 2.303-8.382 6.613 0 3.925 3.4 6.433 7.24 6.433 2.928 0 4.542-1.328 5.54-2.862h0.143v2.275h4.193v-11.27c0.027-5.195-3.843-8.117-8.825-8.117l0.005 0.030zM168.005 27.1c-1.438 0-3.4-0.707-3.4-2.477 0-2.275 2.463-3.13 4.602-3.13 1.905 0 2.815 0.412 3.957 0.975-0.065 0.511-0.191 0.976-0.371 1.411l0.013-0.036c-0.376 0.903-0.965 1.653-1.707 2.21l-0.013 0.010c-0.357 0.266-0.765 0.496-1.201 0.672l-0.037 0.013c-0.402 0.164-0.868 0.28-1.355 0.326l-0.020 0.002c-0.139 0.015-0.303 0.024-0.468 0.025h-0.002zM192.662 11.662l-4.982 12.723h-0.145l-5.157-12.723h-4.692l7.74 17.768-4.43 9.915h4.545l11.96-27.652h-4.84l0.003-0.030z"></path>
</symbol>
<symbol id="goo-logo" viewBox="0 0 36 40">
<path fill="#000" style="fill: var(--color1, #000)" d="M0.084 0.576v38.904h20.265v-38.904h-20.265z"></path>
<path fill="#000" style="fill: var(--color1, #000)" d="M20.347 13.385v13.285h16.487v-13.285h-16.487z"></path>
<path fill="#000" style="fill: var(--color1, #000)" d="M0.818 20.029v20.2h26.149v-20.2h-26.151z"></path>
<path fill="#000" style="fill: var(--color1, #000)" d="M0.818-0.127v20.178h26.149v-20.176h-26.151z"></path>
<path fill="#000" style="fill: var(--color1, #000)" opacity="0.2" d="M26.805 26.444l-22.736 12.787c-1.284 0.725-2.405 0.68-3.138 0.024l-0.115 0.113 0.115 0.113c0.733 0.658 1.878 0.704 3.138-0.022l22.898-12.878-0.162-0.136z"></path>
<path fill="#000" style="fill: var(--color1, #000)" opacity="0.118" d="M0.816 39.14c-0.458-0.476-0.733-1.224-0.733-2.176v0.227c0 0.953 0.275 1.7 0.733 2.176l0.115-0.113-0.115-0.115zM34.615 22.045l-7.809 4.4 0.138 0.135 7.671-4.307c1.098-0.613 1.649-1.427 1.649-2.244-0.091 0.747-0.642 1.451-1.649 2.018z"></path>
<path fill="#fff" style="fill: var(--color2, #fff)" opacity="0.247" d="M4.067 0.825l30.545 17.185c0.985 0.567 1.558 1.269 1.651 2.018 0-0.818-0.551-1.633-1.649-2.245l-30.545-17.184c-2.202-1.225-3.987-0.205-3.987 2.265v0.227c0-2.471 1.785-3.491 3.984-2.267z"></path>
</symbol>
</defs>
</svg>
