<svg aria-hidden="true" style="position: absolute; width: 0; height: 0; overflow: hidden;" version="1.1" xmlns="http://www.w3.org/2000/svg" xmlns:xlink="http://www.w3.org/1999/xlink">
<defs>
<symbol id="icon-arrow-down" viewBox="0 0 25 32">
<path d="M18.783 22.397l6.261-9.23-12.522 7.622-12.522-7.622 12.522 18.461 6.261-9.23z"></path>
<path d="M11.938 18.719v-4.184l-5.127-2.968v4.183l5.127 2.968z"></path>
<path d="M11.938 13.383v-4.183l-5.127-2.968v4.184l5.127 2.968z"></path>
<path d="M11.938 8.044v-4.184l-5.127-2.968v4.184l5.127 2.968z"></path>
<path d="M13.104 18.719v-4.184l5.127-2.968v4.183l-5.127 2.968z"></path>
<path d="M13.104 13.383v-4.183l5.127-2.968v4.184l-5.127 2.968z"></path>
<path d="M13.104 8.044v-4.184l5.127-2.968v4.184l-5.127 2.968z"></path>
</symbol>
<symbol id="icon-arrow-left" viewBox="0 0 39 32">
<path d="M12.14 23.63l11.287 7.656-9.32-15.311 9.32-15.311-22.573 15.311 11.286 7.656z"></path>
<path d="M16.636 15.26h5.116l3.629-6.269h-5.115l-3.629 6.269z"></path>
<path d="M23.162 15.26h5.115l3.629-6.269h-5.115l-3.629 6.269z"></path>
<path d="M29.69 15.26h5.115l3.629-6.269h-5.115l-3.629 6.269z"></path>
<path d="M16.636 16.687h5.116l3.629 6.268h-5.115l-3.629-6.268z"></path>
<path d="M23.162 16.687h5.115l3.629 6.268h-5.115l-3.629-6.268z"></path>
<path d="M29.69 16.687h5.115l3.629 6.268h-5.115l-3.629-6.268z"></path>
</symbol>
<symbol id="icon-burger" viewBox="0 0 45 32">
<path d="M2.767 31.333h38.894c1.337 0 2.431-1.15 2.431-2.556s-1.094-2.555-2.431-2.555h-38.894c-1.337 0-2.431 1.15-2.431 2.555s1.094 2.556 2.431 2.556zM2.767 18.556h38.894c1.337 0 2.431-1.15 2.431-2.556s-1.094-2.556-2.431-2.556h-38.894c-1.337 0-2.431 1.15-2.431 2.556s1.094 2.556 2.431 2.556zM0.336 3.222c0 1.406 1.094 2.556 2.431 2.556h38.894c1.337 0 2.431-1.15 2.431-2.556s-1.094-2.556-2.431-2.556h-38.894c-1.337 0-2.431 1.15-2.431 2.556z"></path>
</symbol>
<symbol id="icon-close" viewBox="0 0 32 32">
<path d="M4.175 30.861c-0.912 0.912-2.391 0.912-3.303 0s-0.912-2.391 0-3.303l11.559-11.559-11.559-11.559c-0.912-0.912-0.912-2.391 0-3.303s2.391-0.912 3.303 0l11.559 11.559 11.559-11.559c0.912-0.912 2.391-0.912 3.303 0s0.912 2.391 0 3.303l-11.559 11.559 11.559 11.559c0.912 0.912 0.912 2.391 0 3.303s-2.391 0.912-3.303 0l-11.559-11.559-11.559 11.559z"></path>
</symbol>
<symbol id="icon-arrow-right" viewBox="0 0 39 32">
<path d="M27.255 8.37l-11.287-7.656 9.32 15.311-9.32 15.311 22.573-15.311-11.286-7.656z"></path>
<path d="M22.759 16.74h-5.116l-3.629 6.269h5.115l3.629-6.269z"></path>
<path d="M16.233 16.74h-5.115l-3.629 6.269h5.115l3.629-6.269z"></path>
<path d="M9.705 16.74h-5.115l-3.629 6.269h5.115l3.629-6.269z"></path>
<path d="M22.759 15.313h-5.116l-3.629-6.268h5.115l3.629 6.268z"></path>
<path d="M16.233 15.313h-5.115l-3.629-6.268h5.115l3.629 6.268z"></path>
<path d="M9.705 15.313h-5.115l-3.629-6.268h5.115l3.629 6.268z"></path>
</symbol>
<symbol id="icon-google-play" viewBox="0 0 511.999 511.999">
<path d="M382.369 175.623A775951.446 775951.446 0 0 1 79.355 6.028C69.372-.565 57.886-1.429 47.962 1.93l254.05 254.05 80.357-80.357z" style="fill:#32bbff"/>
<path d="M47.962 1.93c-1.86.63-3.67 1.39-5.401 2.308C31.602 10.166 23.549 21.573 23.549 36v439.96c0 14.427 8.052 25.834 19.012 31.761a36.954 36.954 0 0 0 5.395 2.314L302.012 255.98 47.962 1.93z" style="fill:#32bbff"/>
<path d="M302.012 255.98 47.956 510.035c9.927 3.384 21.413 2.586 31.399-4.103 143.598-80.41 237.986-133.196 298.152-166.746l4.938-2.772-80.433-80.434z" style="fill:#32bbff"/>
<path d="M23.549 255.98v219.98c0 14.427 8.052 25.834 19.012 31.761a36.954 36.954 0 0 0 5.395 2.314L302.012 255.98H23.549z" style="fill:#2c9fd9"/>
<path d="M79.355 6.028C67.5-1.8 53.52-1.577 42.561 4.239l255.595 255.596 84.212-84.212A786009.366 786009.366 0 0 1 79.355 6.028z" style="fill:#29cc5e"/>
<path d="M298.158 252.126 42.561 507.721c10.96 5.815 24.939 6.151 36.794-1.789 143.598-80.41 237.986-133.196 298.152-166.746l4.938-2.772-84.287-84.288z" style="fill:#d93f21"/>
<path d="M488.45 255.98c0-12.19-6.151-24.492-18.342-31.314 0 0-22.799-12.721-92.682-51.809l-83.123 83.123 83.204 83.205c69.116-38.807 92.6-51.892 92.6-51.892 12.192-6.821 18.343-19.123 18.343-31.313z" style="fill:#ffd500"/>
<path d="M470.108 287.294c12.191-6.822 18.342-19.124 18.342-31.314H294.303l83.204 83.205c69.117-38.806 92.601-51.891 92.601-51.891z" style="fill:#fa0"/>
</symbol>

</defs>
</svg>
