<svg width="14" height="4" viewBox="0 0 14 4" fill="none" xmlns="http://www.w3.org/2000/svg">
<path d="M1.464 3.072C1.20533 3.072 0.970667 3.02 0.76 2.916C0.552 2.80933 0.386667 2.652 0.264 2.444C0.141333 2.236 0.08 1.98133 0.08 1.68C0.08 1.45067 0.117333 1.24933 0.192 1.076C0.266667 0.902667 0.368 0.757333 0.496 0.64C0.626667 0.522667 0.776 0.434667 0.944 0.376C1.11467 0.317333 1.29467 0.288 1.484 0.288C1.636 0.288 1.776 0.305333 1.904 0.34C2.032 0.374667 2.152 0.422667 2.264 0.484L2.28 0.976H2.24L2.04 0.656C2.01333 0.605333 1.984 0.56 1.952 0.52C1.92 0.477333 1.88 0.445333 1.832 0.424C1.792 0.405333 1.752 0.392 1.712 0.384C1.67467 0.373333 1.62667 0.368 1.568 0.368C1.41333 0.368 1.272 0.409333 1.144 0.492C1.01867 0.574667 0.917333 0.712 0.84 0.904C0.765333 1.09333 0.728 1.35333 0.728 1.684C0.728 2.012 0.764 2.272 0.836 2.464C0.908 2.65333 1.00533 2.78933 1.128 2.872C1.25333 2.952 1.39333 2.992 1.548 2.992C1.63333 2.992 1.70133 2.98667 1.752 2.976C1.80267 2.96267 1.85333 2.944 1.904 2.92C1.95467 2.89867 1.99333 2.868 2.02 2.828C2.04667 2.78533 2.07067 2.74 2.092 2.692L2.268 2.3H2.308L2.296 2.872C2.184 2.93067 2.05867 2.97867 1.92 3.016C1.78133 3.05333 1.62933 3.072 1.464 3.072ZM3.50216 3.06C3.29949 3.06 3.12349 3.01867 2.97416 2.936C2.82482 2.85067 2.70882 2.73067 2.62616 2.576C2.54616 2.42133 2.50616 2.24 2.50616 2.032C2.50616 1.824 2.54882 1.644 2.63416 1.492C2.72216 1.34 2.84082 1.22267 2.99016 1.14C3.14216 1.05733 3.31282 1.016 3.50216 1.016C3.69149 1.016 3.86082 1.05733 4.01016 1.14C4.15949 1.22 4.27682 1.336 4.36216 1.488C4.45016 1.64 4.49416 1.82133 4.49416 2.032C4.49416 2.24267 4.45282 2.42533 4.37016 2.58C4.29016 2.732 4.17549 2.85067 4.02616 2.936C3.87949 3.01867 3.70482 3.06 3.50216 3.06ZM3.50216 2.98C3.59549 2.98 3.67016 2.95333 3.72616 2.9C3.78216 2.84667 3.82216 2.752 3.84616 2.616C3.87282 2.48 3.88616 2.288 3.88616 2.04C3.88616 1.78933 3.87282 1.596 3.84616 1.46C3.82216 1.324 3.78216 1.22933 3.72616 1.176C3.67016 1.12267 3.59549 1.096 3.50216 1.096C3.40882 1.096 3.33282 1.12267 3.27416 1.176C3.21816 1.22933 3.17682 1.324 3.15016 1.46C3.12616 1.596 3.11416 1.78933 3.11416 2.04C3.11416 2.288 3.12616 2.48 3.15016 2.616C3.17682 2.752 3.21816 2.84667 3.27416 2.9C3.33282 2.95333 3.40882 2.98 3.50216 2.98ZM5.70528 3.06C5.50261 3.06 5.32661 3.01867 5.17728 2.936C5.02795 2.85067 4.91195 2.73067 4.82928 2.576C4.74928 2.42133 4.70928 2.24 4.70928 2.032C4.70928 1.824 4.75195 1.644 4.83728 1.492C4.92528 1.34 5.04395 1.22267 5.19328 1.14C5.34528 1.05733 5.51595 1.016 5.70528 1.016C5.89461 1.016 6.06395 1.05733 6.21328 1.14C6.36261 1.22 6.47995 1.336 6.56528 1.488C6.65328 1.64 6.69728 1.82133 6.69728 2.032C6.69728 2.24267 6.65595 2.42533 6.57328 2.58C6.49328 2.732 6.37861 2.85067 6.22928 2.936C6.08261 3.01867 5.90795 3.06 5.70528 3.06ZM5.70528 2.98C5.79861 2.98 5.87328 2.95333 5.92928 2.9C5.98528 2.84667 6.02528 2.752 6.04928 2.616C6.07595 2.48 6.08928 2.288 6.08928 2.04C6.08928 1.78933 6.07595 1.596 6.04928 1.46C6.02528 1.324 5.98528 1.22933 5.92928 1.176C5.87328 1.12267 5.79861 1.096 5.70528 1.096C5.61195 1.096 5.53595 1.12267 5.47728 1.176C5.42128 1.22933 5.37995 1.324 5.35328 1.46C5.32928 1.596 5.31728 1.78933 5.31728 2.04C5.31728 2.288 5.32928 2.48 5.35328 2.616C5.37995 2.752 5.42128 2.84667 5.47728 2.9C5.53595 2.95333 5.61195 2.98 5.70528 2.98ZM6.86534 3V2.96L6.92534 2.94C7.01601 2.91067 7.06134 2.84533 7.06134 2.744V0.604C7.06134 0.550667 7.05068 0.510667 7.02934 0.484C7.00801 0.457333 6.97068 0.436 6.91734 0.42L6.86534 0.408V0.368L7.59734 0.196L7.64534 0.232L7.63334 0.792V2.744C7.63334 2.85067 7.67734 2.91733 7.76534 2.944L7.82134 2.96V3H6.86534ZM8.34934 3L7.63734 2L8.37734 1.316C8.41201 1.284 8.43201 1.25067 8.43734 1.216C8.44534 1.17867 8.42268 1.152 8.36934 1.136L8.30134 1.116V1.076H8.89734V1.116L8.77734 1.148C8.71868 1.16667 8.67068 1.18933 8.63334 1.216C8.59868 1.24 8.55601 1.27467 8.50534 1.32L8.05734 1.74L8.77334 2.736C8.81601 2.79467 8.85601 2.84 8.89334 2.872C8.93068 2.904 8.97868 2.93067 9.03734 2.952L9.05334 2.96V3H8.34934ZM12.8028 1.016C12.9761 1.016 13.1241 1.052 13.2468 1.124C13.3694 1.19333 13.4628 1.28933 13.5268 1.412C13.5934 1.532 13.6268 1.66933 13.6268 1.824C13.6268 1.85333 13.6254 1.884 13.6228 1.916C13.6201 1.94533 13.6148 1.972 13.6068 1.996H12.4148C12.4174 2.284 12.4681 2.492 12.5668 2.62C12.6681 2.74533 12.8174 2.808 13.0148 2.808C13.1481 2.808 13.2561 2.78667 13.3388 2.744C13.4214 2.70133 13.4988 2.63867 13.5708 2.556L13.6108 2.592C13.5281 2.73867 13.4174 2.85333 13.2788 2.936C13.1428 3.01867 12.9788 3.06 12.7868 3.06C12.5974 3.06 12.4294 3.02 12.2828 2.94C12.1361 2.85733 12.0214 2.74 11.9388 2.588C11.8561 2.436 11.8148 2.25467 11.8148 2.044C11.8148 1.82533 11.8628 1.64 11.9588 1.488C12.0548 1.33333 12.1774 1.216 12.3268 1.136C12.4788 1.056 12.6374 1.016 12.8028 1.016ZM12.7908 1.096C12.7134 1.096 12.6468 1.12 12.5908 1.168C12.5374 1.21333 12.4948 1.296 12.4628 1.416C12.4334 1.53333 12.4174 1.7 12.4148 1.916H13.0988C13.1254 1.62533 13.1148 1.416 13.0668 1.288C13.0188 1.16 12.9268 1.096 12.7908 1.096Z" fill="url(#paint0_linear_170_1085)"/>
<path d="M1.464 3.072C1.20533 3.072 0.970667 3.02 0.76 2.916C0.552 2.80933 0.386667 2.652 0.264 2.444C0.141333 2.236 0.08 1.98133 0.08 1.68C0.08 1.45067 0.117333 1.24933 0.192 1.076C0.266667 0.902667 0.368 0.757333 0.496 0.64C0.626667 0.522667 0.776 0.434667 0.944 0.376C1.11467 0.317333 1.29467 0.288 1.484 0.288C1.636 0.288 1.776 0.305333 1.904 0.34C2.032 0.374667 2.152 0.422667 2.264 0.484L2.28 0.976H2.24L2.04 0.656C2.01333 0.605333 1.984 0.56 1.952 0.52C1.92 0.477333 1.88 0.445333 1.832 0.424C1.792 0.405333 1.752 0.392 1.712 0.384C1.67467 0.373333 1.62667 0.368 1.568 0.368C1.41333 0.368 1.272 0.409333 1.144 0.492C1.01867 0.574667 0.917333 0.712 0.84 0.904C0.765333 1.09333 0.728 1.35333 0.728 1.684C0.728 2.012 0.764 2.272 0.836 2.464C0.908 2.65333 1.00533 2.78933 1.128 2.872C1.25333 2.952 1.39333 2.992 1.548 2.992C1.63333 2.992 1.70133 2.98667 1.752 2.976C1.80267 2.96267 1.85333 2.944 1.904 2.92C1.95467 2.89867 1.99333 2.868 2.02 2.828C2.04667 2.78533 2.07067 2.74 2.092 2.692L2.268 2.3H2.308L2.296 2.872C2.184 2.93067 2.05867 2.97867 1.92 3.016C1.78133 3.05333 1.62933 3.072 1.464 3.072ZM3.50216 3.06C3.29949 3.06 3.12349 3.01867 2.97416 2.936C2.82482 2.85067 2.70882 2.73067 2.62616 2.576C2.54616 2.42133 2.50616 2.24 2.50616 2.032C2.50616 1.824 2.54882 1.644 2.63416 1.492C2.72216 1.34 2.84082 1.22267 2.99016 1.14C3.14216 1.05733 3.31282 1.016 3.50216 1.016C3.69149 1.016 3.86082 1.05733 4.01016 1.14C4.15949 1.22 4.27682 1.336 4.36216 1.488C4.45016 1.64 4.49416 1.82133 4.49416 2.032C4.49416 2.24267 4.45282 2.42533 4.37016 2.58C4.29016 2.732 4.17549 2.85067 4.02616 2.936C3.87949 3.01867 3.70482 3.06 3.50216 3.06ZM3.50216 2.98C3.59549 2.98 3.67016 2.95333 3.72616 2.9C3.78216 2.84667 3.82216 2.752 3.84616 2.616C3.87282 2.48 3.88616 2.288 3.88616 2.04C3.88616 1.78933 3.87282 1.596 3.84616 1.46C3.82216 1.324 3.78216 1.22933 3.72616 1.176C3.67016 1.12267 3.59549 1.096 3.50216 1.096C3.40882 1.096 3.33282 1.12267 3.27416 1.176C3.21816 1.22933 3.17682 1.324 3.15016 1.46C3.12616 1.596 3.11416 1.78933 3.11416 2.04C3.11416 2.288 3.12616 2.48 3.15016 2.616C3.17682 2.752 3.21816 2.84667 3.27416 2.9C3.33282 2.95333 3.40882 2.98 3.50216 2.98ZM5.70528 3.06C5.50261 3.06 5.32661 3.01867 5.17728 2.936C5.02795 2.85067 4.91195 2.73067 4.82928 2.576C4.74928 2.42133 4.70928 2.24 4.70928 2.032C4.70928 1.824 4.75195 1.644 4.83728 1.492C4.92528 1.34 5.04395 1.22267 5.19328 1.14C5.34528 1.05733 5.51595 1.016 5.70528 1.016C5.89461 1.016 6.06395 1.05733 6.21328 1.14C6.36261 1.22 6.47995 1.336 6.56528 1.488C6.65328 1.64 6.69728 1.82133 6.69728 2.032C6.69728 2.24267 6.65595 2.42533 6.57328 2.58C6.49328 2.732 6.37861 2.85067 6.22928 2.936C6.08261 3.01867 5.90795 3.06 5.70528 3.06ZM5.70528 2.98C5.79861 2.98 5.87328 2.95333 5.92928 2.9C5.98528 2.84667 6.02528 2.752 6.04928 2.616C6.07595 2.48 6.08928 2.288 6.08928 2.04C6.08928 1.78933 6.07595 1.596 6.04928 1.46C6.02528 1.324 5.98528 1.22933 5.92928 1.176C5.87328 1.12267 5.79861 1.096 5.70528 1.096C5.61195 1.096 5.53595 1.12267 5.47728 1.176C5.42128 1.22933 5.37995 1.324 5.35328 1.46C5.32928 1.596 5.31728 1.78933 5.31728 2.04C5.31728 2.288 5.32928 2.48 5.35328 2.616C5.37995 2.752 5.42128 2.84667 5.47728 2.9C5.53595 2.95333 5.61195 2.98 5.70528 2.98ZM6.86534 3V2.96L6.92534 2.94C7.01601 2.91067 7.06134 2.84533 7.06134 2.744V0.604C7.06134 0.550667 7.05068 0.510667 7.02934 0.484C7.00801 0.457333 6.97068 0.436 6.91734 0.42L6.86534 0.408V0.368L7.59734 0.196L7.64534 0.232L7.63334 0.792V2.744C7.63334 2.85067 7.67734 2.91733 7.76534 2.944L7.82134 2.96V3H6.86534ZM8.34934 3L7.63734 2L8.37734 1.316C8.41201 1.284 8.43201 1.25067 8.43734 1.216C8.44534 1.17867 8.42268 1.152 8.36934 1.136L8.30134 1.116V1.076H8.89734V1.116L8.77734 1.148C8.71868 1.16667 8.67068 1.18933 8.63334 1.216C8.59868 1.24 8.55601 1.27467 8.50534 1.32L8.05734 1.74L8.77334 2.736C8.81601 2.79467 8.85601 2.84 8.89334 2.872C8.93068 2.904 8.97868 2.93067 9.03734 2.952L9.05334 2.96V3H8.34934ZM12.8028 1.016C12.9761 1.016 13.1241 1.052 13.2468 1.124C13.3694 1.19333 13.4628 1.28933 13.5268 1.412C13.5934 1.532 13.6268 1.66933 13.6268 1.824C13.6268 1.85333 13.6254 1.884 13.6228 1.916C13.6201 1.94533 13.6148 1.972 13.6068 1.996H12.4148C12.4174 2.284 12.4681 2.492 12.5668 2.62C12.6681 2.74533 12.8174 2.808 13.0148 2.808C13.1481 2.808 13.2561 2.78667 13.3388 2.744C13.4214 2.70133 13.4988 2.63867 13.5708 2.556L13.6108 2.592C13.5281 2.73867 13.4174 2.85333 13.2788 2.936C13.1428 3.01867 12.9788 3.06 12.7868 3.06C12.5974 3.06 12.4294 3.02 12.2828 2.94C12.1361 2.85733 12.0214 2.74 11.9388 2.588C11.8561 2.436 11.8148 2.25467 11.8148 2.044C11.8148 1.82533 11.8628 1.64 11.9588 1.488C12.0548 1.33333 12.1774 1.216 12.3268 1.136C12.4788 1.056 12.6374 1.016 12.8028 1.016ZM12.7908 1.096C12.7134 1.096 12.6468 1.12 12.5908 1.168C12.5374 1.21333 12.4948 1.296 12.4628 1.416C12.4334 1.53333 12.4174 1.7 12.4148 1.916H13.0988C13.1254 1.62533 13.1148 1.416 13.0668 1.288C13.0188 1.16 12.9268 1.096 12.7908 1.096Z" fill="url(#paint1_linear_170_1085)"/>
<defs>
<linearGradient id="paint0_linear_170_1085" x1="0" y1="1.5" x2="14" y2="1.5" gradientUnits="userSpaceOnUse">
<stop stop-color="white"/>
<stop offset="1" stop-color="#999999"/>
</linearGradient>
<linearGradient id="paint1_linear_170_1085" x1="0" y1="1.5" x2="14" y2="1.5" gradientUnits="userSpaceOnUse">
<stop stop-color="#FF3CAC"/>
<stop offset="0.52" stop-color="#562B7C"/>
<stop offset="1" stop-color="#2B86C5"/>
</linearGradient>
</defs>
</svg>
