<svg width="261" height="255" viewBox="0 0 261 255" fill="none" xmlns="http://www.w3.org/2000/svg">
<g clip-path="url(#clip0_613_280)">
<path d="M150 87C122.386 87 100 109.386 100 137C100 164.614 122.386 187 150 187C177.614 187 200 164.614 200 137C200 109.386 177.614 87 150 87Z" fill="url(#paint0_radial_613_280)"/>
<path d="M200 0C172.386 -2.41411e-06 150 22.3858 150 50C150 77.6142 172.386 100 200 100C227.614 100 250 77.6142 250 50C250 22.3858 227.614 2.41411e-06 200 0Z" fill="url(#paint1_radial_613_280)"/>
<path d="M69 205C69 177.386 91.3854 155 119 155C146.614 155 169 177.386 169 205C169 232.614 146.614 255 119 255C91.3854 255 69 232.614 69 205Z" fill="url(#paint2_radial_613_280)"/>
<path d="M50 155C22.3858 155 2.41411e-06 177.386 0 205C-2.41412e-06 232.614 22.3858 255 50 255C77.6142 255 100 232.614 100 205C100 177.386 77.6143 155 50 155Z" fill="url(#paint3_radial_613_280)"/>
<path d="M211 70C183.386 70 161 92.3858 161 120C161 147.614 183.386 170 211 170C238.614 170 261 147.614 261 120C261 92.3858 238.614 70 211 70Z" fill="url(#paint4_radial_613_280)"/>
<path d="M161 190C161 162.386 183.385 140 211 140C238.614 140 261 162.385 261 190C261 217.615 238.614 240 211 240C183.385 240 161 217.614 161 190Z" fill="url(#paint5_radial_613_280)"/>
</g>
<defs>
<radialGradient id="paint0_radial_613_280" cx="0" cy="0" r="1" gradientUnits="userSpaceOnUse" gradientTransform="translate(150 137) rotate(180) scale(49.9999)">
<stop stop-color="white"/>
<stop offset="1" stop-color="#E4511E"/>
</radialGradient>
<radialGradient id="paint1_radial_613_280" cx="0" cy="0" r="1" gradientUnits="userSpaceOnUse" gradientTransform="translate(200 50.0001) rotate(-180) scale(50.0003 50.0003)">
<stop stop-color="white"/>
<stop offset="1" stop-color="#F5B034"/>
</radialGradient>
<radialGradient id="paint2_radial_613_280" cx="0" cy="0" r="1" gradientUnits="userSpaceOnUse" gradientTransform="translate(119 205) rotate(-180) scale(49.9999 50.0001)">
<stop stop-color="white"/>
<stop offset="1" stop-color="#37A6D9"/>
</radialGradient>
<radialGradient id="paint3_radial_613_280" cx="0" cy="0" r="1" gradientUnits="userSpaceOnUse" gradientTransform="translate(50.0001 205) rotate(180) scale(49.9999 49.9999)">
<stop stop-color="white"/>
<stop offset="1" stop-color="#803586"/>
</radialGradient>
<radialGradient id="paint4_radial_613_280" cx="0" cy="0" r="1" gradientUnits="userSpaceOnUse" gradientTransform="translate(211 120) rotate(180) scale(49.9997)">
<stop stop-color="white"/>
<stop offset="1" stop-color="#36A662"/>
</radialGradient>
<radialGradient id="paint5_radial_613_280" cx="0" cy="0" r="1" gradientUnits="userSpaceOnUse" gradientTransform="translate(211 190) rotate(180) scale(49.9999)">
<stop stop-color="white"/>
<stop offset="1" stop-color="#DF001A"/>
</radialGradient>
<clipPath id="clip0_613_280">
<rect width="261" height="255" fill="white"/>
</clipPath>
</defs>
</svg>
