<svg aria-hidden="true" style="position: absolute; width: 0; height: 0; overflow: hidden;" version="1.1" xmlns="http://www.w3.org/2000/svg" xmlns:xlink="http://www.w3.org/1999/xlink">
<defs>
<symbol id="icon-logos_google-play-icon" viewBox="0 0 35 32">
<path fill="#ea4335" style="fill: var(--color1, #ea4335)" d="M16.214 15.424l-15.311 13.436c0.172 0.51 0.481 0.981 0.903 1.376s0.947 0.704 1.534 0.903 1.22 0.283 1.852 0.246c0.632-0.037 1.245-0.195 1.792-0.461l17.227-8.218-7.998-7.282z"></path>
<path fill="#fbbc04" style="fill: var(--color2, #fbbc04)" d="M31.696 13.14l-7.45-3.574-8.385 6.163 8.42 6.957 7.393-3.536c0.655-0.287 1.203-0.719 1.586-1.249s0.585-1.137 0.585-1.756c0-0.619-0.202-1.227-0.585-1.756s-0.931-0.962-1.586-1.249l0.023 0z"></path>
<path fill="#4285f4" style="fill: var(--color3, #4285f4)" d="M0.904 3.364c-0.093 0.287-0.139 0.582-0.137 0.879v23.737c0.001 0.297 0.047 0.592 0.137 0.879l15.835-13.092-15.835-12.403z"></path>
<path fill="#34a853" style="fill: var(--color4, #34a853)" d="M16.328 16.112l7.918-6.546-17.204-8.256c-0.647-0.318-1.384-0.486-2.134-0.487-1.862-0.003-3.498 1.032-4.004 2.532l15.425 12.757z"></path>
</symbol>
</defs>
</svg>
